<svg width="423" height="268" viewBox="0 0 423 268" fill="none" xmlns="http://www.w3.org/2000/svg">
<g opacity="0.3">
<path d="M346 45L423 9.18216e-07L423 90L346 45Z" fill="url(#paint0_linear_1037_1460)"/>
<path d="M346 134L423 89L423 179L346 134Z" fill="url(#paint1_linear_1037_1460)"/>
<path d="M346 223L423 178L423 268L346 223Z" fill="url(#paint2_linear_1037_1460)"/>
<path d="M173 45L250 9.18216e-07L250 90L173 45Z" fill="url(#paint3_linear_1037_1460)"/>
<path d="M173 134L250 89L250 179L173 134Z" fill="url(#paint4_linear_1037_1460)"/>
<path d="M173 223L250 178L250 268L173 223Z" fill="url(#paint5_linear_1037_1460)"/>
<path d="M5.3662e-07 45L77 9.18216e-07L77 90L5.3662e-07 45Z" fill="url(#paint6_linear_1037_1460)"/>
<path d="M5.3662e-07 134L77 89L77 179L5.3662e-07 134Z" fill="url(#paint7_linear_1037_1460)"/>
<path d="M5.3662e-07 223L77 178L77 268L5.3662e-07 223Z" fill="url(#paint8_linear_1037_1460)"/>
<path d="M288 45L366 9.30141e-07L366 90L288 45Z" fill="url(#paint9_linear_1037_1460)"/>
<path d="M288 134L366 89L366 179L288 134Z" fill="url(#paint10_linear_1037_1460)"/>
<path d="M288 223L366 178L366 268L288 223Z" fill="url(#paint11_linear_1037_1460)"/>
<path d="M115 45L193 9.30141e-07L193 90L115 45Z" fill="url(#paint12_linear_1037_1460)"/>
<path d="M115 134L193 89L193 179L115 134Z" fill="url(#paint13_linear_1037_1460)"/>
<path d="M115 223L193 178L193 268L115 223Z" fill="url(#paint14_linear_1037_1460)"/>
<path d="M230 45L308 9.30141e-07L308 90L230 45Z" fill="url(#paint15_linear_1037_1460)"/>
<path d="M230 134L308 89L308 179L230 134Z" fill="url(#paint16_linear_1037_1460)"/>
<path d="M230 223L308 178L308 268L230 223Z" fill="url(#paint17_linear_1037_1460)"/>
<path d="M57 45L135 9.30141e-07L135 90L57 45Z" fill="url(#paint18_linear_1037_1460)"/>
<path d="M57 134L135 89L135 179L57 134Z" fill="url(#paint19_linear_1037_1460)"/>
<path d="M57 223L135 178L135 268L57 223Z" fill="url(#paint20_linear_1037_1460)"/>
</g>
<defs>
<linearGradient id="paint0_linear_1037_1460" x1="346" y1="45" x2="423" y2="45" gradientUnits="userSpaceOnUse">
<stop stop-color="#E8E8E8"/>
<stop offset="1" stop-color="#D9D9D9" stop-opacity="0"/>
</linearGradient>
<linearGradient id="paint1_linear_1037_1460" x1="346" y1="134" x2="423" y2="134" gradientUnits="userSpaceOnUse">
<stop stop-color="#E8E8E8"/>
<stop offset="1" stop-color="#D9D9D9" stop-opacity="0"/>
</linearGradient>
<linearGradient id="paint2_linear_1037_1460" x1="346" y1="223" x2="423" y2="223" gradientUnits="userSpaceOnUse">
<stop stop-color="#E8E8E8"/>
<stop offset="1" stop-color="#D9D9D9" stop-opacity="0"/>
</linearGradient>
<linearGradient id="paint3_linear_1037_1460" x1="173" y1="45" x2="250" y2="45" gradientUnits="userSpaceOnUse">
<stop stop-color="#E8E8E8"/>
<stop offset="1" stop-color="#D9D9D9" stop-opacity="0"/>
</linearGradient>
<linearGradient id="paint4_linear_1037_1460" x1="173" y1="134" x2="250" y2="134" gradientUnits="userSpaceOnUse">
<stop stop-color="#E8E8E8"/>
<stop offset="1" stop-color="#D9D9D9" stop-opacity="0"/>
</linearGradient>
<linearGradient id="paint5_linear_1037_1460" x1="173" y1="223" x2="250" y2="223" gradientUnits="userSpaceOnUse">
<stop stop-color="#E8E8E8"/>
<stop offset="1" stop-color="#D9D9D9" stop-opacity="0"/>
</linearGradient>
<linearGradient id="paint6_linear_1037_1460" x1="5.3662e-07" y1="45" x2="77" y2="45" gradientUnits="userSpaceOnUse">
<stop stop-color="#E8E8E8"/>
<stop offset="1" stop-color="#D9D9D9" stop-opacity="0"/>
</linearGradient>
<linearGradient id="paint7_linear_1037_1460" x1="5.3662e-07" y1="134" x2="77" y2="134" gradientUnits="userSpaceOnUse">
<stop stop-color="#E8E8E8"/>
<stop offset="1" stop-color="#D9D9D9" stop-opacity="0"/>
</linearGradient>
<linearGradient id="paint8_linear_1037_1460" x1="5.3662e-07" y1="223" x2="77" y2="223" gradientUnits="userSpaceOnUse">
<stop stop-color="#E8E8E8"/>
<stop offset="1" stop-color="#D9D9D9" stop-opacity="0"/>
</linearGradient>
<linearGradient id="paint9_linear_1037_1460" x1="288" y1="45" x2="366" y2="45" gradientUnits="userSpaceOnUse">
<stop stop-color="#E8E8E8"/>
<stop offset="1" stop-color="#D9D9D9" stop-opacity="0"/>
</linearGradient>
<linearGradient id="paint10_linear_1037_1460" x1="288" y1="134" x2="366" y2="134" gradientUnits="userSpaceOnUse">
<stop stop-color="#E8E8E8"/>
<stop offset="1" stop-color="#D9D9D9" stop-opacity="0"/>
</linearGradient>
<linearGradient id="paint11_linear_1037_1460" x1="288" y1="223" x2="366" y2="223" gradientUnits="userSpaceOnUse">
<stop stop-color="#E8E8E8"/>
<stop offset="1" stop-color="#D9D9D9" stop-opacity="0"/>
</linearGradient>
<linearGradient id="paint12_linear_1037_1460" x1="115" y1="45" x2="193" y2="45" gradientUnits="userSpaceOnUse">
<stop stop-color="#E8E8E8"/>
<stop offset="1" stop-color="#D9D9D9" stop-opacity="0"/>
</linearGradient>
<linearGradient id="paint13_linear_1037_1460" x1="115" y1="134" x2="193" y2="134" gradientUnits="userSpaceOnUse">
<stop stop-color="#E8E8E8"/>
<stop offset="1" stop-color="#D9D9D9" stop-opacity="0"/>
</linearGradient>
<linearGradient id="paint14_linear_1037_1460" x1="115" y1="223" x2="193" y2="223" gradientUnits="userSpaceOnUse">
<stop stop-color="#E8E8E8"/>
<stop offset="1" stop-color="#D9D9D9" stop-opacity="0"/>
</linearGradient>
<linearGradient id="paint15_linear_1037_1460" x1="230" y1="45" x2="308" y2="45" gradientUnits="userSpaceOnUse">
<stop stop-color="#E8E8E8"/>
<stop offset="1" stop-color="#D9D9D9" stop-opacity="0"/>
</linearGradient>
<linearGradient id="paint16_linear_1037_1460" x1="230" y1="134" x2="308" y2="134" gradientUnits="userSpaceOnUse">
<stop stop-color="#E8E8E8"/>
<stop offset="1" stop-color="#D9D9D9" stop-opacity="0"/>
</linearGradient>
<linearGradient id="paint17_linear_1037_1460" x1="230" y1="223" x2="308" y2="223" gradientUnits="userSpaceOnUse">
<stop stop-color="#E8E8E8"/>
<stop offset="1" stop-color="#D9D9D9" stop-opacity="0"/>
</linearGradient>
<linearGradient id="paint18_linear_1037_1460" x1="57" y1="45" x2="135" y2="45" gradientUnits="userSpaceOnUse">
<stop stop-color="#E8E8E8"/>
<stop offset="1" stop-color="#D9D9D9" stop-opacity="0"/>
</linearGradient>
<linearGradient id="paint19_linear_1037_1460" x1="57" y1="134" x2="135" y2="134" gradientUnits="userSpaceOnUse">
<stop stop-color="#E8E8E8"/>
<stop offset="1" stop-color="#D9D9D9" stop-opacity="0"/>
</linearGradient>
<linearGradient id="paint20_linear_1037_1460" x1="57" y1="223" x2="135" y2="223" gradientUnits="userSpaceOnUse">
<stop stop-color="#E8E8E8"/>
<stop offset="1" stop-color="#D9D9D9" stop-opacity="0"/>
</linearGradient>
</defs>
</svg>
