<svg width="1440" height="80" viewBox="0 0 1440 80" fill="none" xmlns="http://www.w3.org/2000/svg">
<path d="M-128 26.605L-28.3486 12.0283C26.098 4.06408 81.4859 5.14196 135.581 15.2185L235.598 33.849C301.459 46.1171 369.114 45.0246 434.544 30.6365L460.917 24.837C527.334 10.2319 596.032 9.32872 662.81 22.1826L762.943 41.4568C800.851 48.7536 839.477 51.6357 878.048 50.0455L1059.92 42.5472L1197.66 18.2703C1256.09 7.97171 1315.89 8.15514 1374.26 18.812L1464 35.1981V119.53L-128 123V26.605Z" fill="url(#paint0_linear_851_13342)" fill-opacity="0.5"/>
<path d="M-6 43.966L94.8968 24.6486C155.847 12.9793 218.62 14.9002 278.742 30.2742L309.854 38.2297C364.01 52.0782 420.921 50.8593 474.435 34.7049C528.746 18.3099 586.539 17.3031 641.388 31.7964L660.953 36.9663C716.552 51.658 775.052 51.3505 830.494 36.0751C878.89 22.741 929.715 20.7863 978.991 30.3639L1009.94 36.3792C1069.5 47.956 1130.97 45.1035 1189.21 28.0604C1241.14 12.8621 1295.71 8.92769 1349.29 16.5204L1464 32.7778V130H-6V43.966Z" fill="url(#paint1_linear_851_13342)"/>
<path d="M-195 18L-43.4742 40.2248C7.73283 47.7355 59.7955 47.2503 110.854 38.7865L172.366 28.5898C214.778 21.5593 257.92 20.028 300.724 24.0339L409.018 34.1688C440.711 37.1349 472.615 37.0676 504.296 33.968L605.603 24.056C646.709 20.0342 688.155 21.1211 728.994 27.2919L809.979 39.5288C860.05 47.0946 910.979 47.0101 961.025 39.2782L1042.63 26.6706C1079.92 20.9087 1117.75 19.3874 1155.39 22.1358L1277.46 31.0502C1301.64 32.8157 1325.91 32.8206 1350.09 31.0648L1530 18V143H-195V18Z" fill="url(#paint2_linear_851_13342)" fill-opacity="0.5"/>
<defs>
<linearGradient id="paint0_linear_851_13342" x1="-211.527" y1="60.5361" x2="1805.3" y2="60.5361" gradientUnits="userSpaceOnUse">
<stop stop-color="#333333"/>
<stop offset="0.5" stop-color="#808080"/>
<stop offset="1" stop-color="#B3B3B3"/>
</linearGradient>
<linearGradient id="paint1_linear_851_13342" x1="-6" y1="67.5" x2="1464" y2="67.5" gradientUnits="userSpaceOnUse">
<stop stop-color="#808080"/>
<stop offset="0.5" stop-color="#808080"/>
<stop offset="1" stop-color="#B3B3B3"/>
</linearGradient>
<linearGradient id="paint2_linear_851_13342" x1="-195" y1="80.5" x2="1530" y2="80.5" gradientUnits="userSpaceOnUse">
<stop stop-color="#CCCCCC"/>
<stop offset="0.5" stop-color="#4D4D4D"/>
<stop offset="1" stop-color="#B3B3B3"/>
</linearGradient>
</defs>
</svg>
