<svg width="1440" height="68" viewBox="0 0 1440 68" fill="none" xmlns="http://www.w3.org/2000/svg">
<path d="M-6 31.966L94.8968 12.6486C155.847 0.979329 218.62 2.90017 278.742 18.2742L309.854 26.2297C364.01 40.0782 420.921 38.8593 474.435 22.7049C528.746 6.3099 586.539 5.30309 641.388 19.7964L660.953 24.9663C716.552 39.658 775.052 39.3505 830.494 24.0751C878.89 10.741 929.715 8.78626 978.991 18.3639L1009.94 24.3792C1069.5 35.956 1130.97 33.1035 1189.21 16.0604C1241.14 0.862094 1295.71 -3.07231 1349.29 4.52037L1464 20.7778V118H-6V31.966Z" fill="url(#paint0_linear_851_12814)"/>
<defs>
<linearGradient id="paint0_linear_851_12814" x1="-6" y1="55.5" x2="1464" y2="55.5" gradientUnits="userSpaceOnUse">
<stop stop-color="#808080"/>
<stop offset="0.5" stop-color="#808080"/>
<stop offset="1" stop-color="#B3B3B3"/>
</linearGradient>
</defs>
</svg>
