<svg width="57" height="56" viewBox="0 0 57 56" fill="none" xmlns="http://www.w3.org/2000/svg">
<g style="mix-blend-mode:luminosity" opacity="0.5" clip-path="url(#clip0_951_874)">
<path fill-rule="evenodd" clip-rule="evenodd" d="M1.50781 25.966H4.11235V29.7298C4.11235 30.5334 4.50601 31.04 5.34707 31.04C6.1126 31.04 6.55535 30.3869 6.55535 29.6737V25.966H9.09598V30.2739C9.09598 31.167 8.69041 32.0487 7.94754 32.567C7.19334 33.0885 6.22503 33.216 5.32819 33.216C3.36571 33.216 1.5081 32.5255 1.5081 30.2739L1.50781 25.966ZM9.83129 33.006V25.966H12.3943V26.7879C13.0512 26.1049 13.7865 25.7185 14.7548 25.7185C16.2896 25.7185 17.4041 26.604 17.4041 28.1877V33.0063H14.8373V29.3323C14.8373 28.5148 14.5781 27.8353 13.64 27.8353C12.7092 27.8353 12.394 28.631 12.394 29.4453V33.0066H9.83129V33.006ZM18.196 33.006V25.966H20.8003V33.006H18.196ZM27.1046 30.5929V32.7396C26.5117 33.0772 25.8176 33.2015 25.1383 33.2015C23.1082 33.2015 21.4458 31.5877 21.4458 29.5462C21.4458 27.4297 23.0971 25.7075 25.236 25.7075C25.9004 25.7075 26.5346 25.8539 27.1049 26.1877V28.3193C26.7034 28.0828 26.2641 27.8725 25.7877 27.8725C24.8722 27.8725 24.2003 28.5404 24.2003 29.4564C24.2003 30.3268 24.8307 30.9906 25.7162 30.9906C26.2115 30.9906 26.6694 30.8108 27.1046 30.5929ZM30.0578 30.1127C30.0578 30.8555 30.3805 31.4523 31.2138 31.4523C31.728 31.4523 32.0694 31.2344 32.298 30.7957H34.7221C34.4821 31.5345 34.1631 32.1917 33.4993 32.6417C32.8122 33.1149 31.9866 33.2762 31.165 33.2762C29.8968 33.2762 28.6583 32.7172 28.0354 31.576C27.6976 30.9529 27.4875 30.2176 27.4875 29.5049C27.4875 28.4689 27.8666 27.2981 28.6397 26.5889C29.3562 25.9321 30.3811 25.6508 31.3416 25.6508C33.6867 25.6508 34.8874 27.1369 34.8874 29.3692C34.8874 29.6173 34.8578 29.8646 34.8238 30.1127H30.0578ZM35.3566 33.006V26.2025C35.3566 25.1593 35.4127 23.9847 36.1977 23.2006C36.8467 22.5515 37.8563 22.3749 38.738 22.3749H39.4059V24.2249H39.0041C38.0474 24.2249 37.9498 24.8141 37.9498 25.6473V26.0599H39.3156V27.989H37.9498V33.0063L35.3566 33.006ZM46.6818 34.1881L46.4531 33.9668C46.8509 33.4862 47.4252 33.1452 47.988 32.8857C47.6725 32.7547 47.3462 32.6457 47.0013 32.6382L46.911 32.7431C46.558 33.1669 46.1115 33.2945 45.5673 33.2945C45.1809 33.2945 44.7344 33.257 44.3666 33.1332L43.9729 33.0057L43.8265 32.9081V32.8895C43.8265 32.7733 44.348 32.6902 44.4302 32.6757L45.0386 32.5554C45.5347 32.4523 46.04 32.3995 46.5467 32.3976C47.1664 32.3976 47.7779 32.522 48.3595 32.728C48.9673 32.5292 49.6015 32.3976 50.2427 32.3976C50.9333 32.3976 51.6125 32.488 52.277 32.6603C52.3484 32.6789 52.84 32.7657 52.84 32.8968C52.84 33.1295 51.3351 33.302 51.1326 33.302C50.6521 33.302 50.0027 33.1408 49.8043 32.6495C49.7703 32.6495 49.7328 32.6455 49.6954 32.6455C49.3799 32.6455 49.0237 32.7617 48.7346 32.8819C49.2602 33.1254 49.7741 33.4482 50.1794 33.8648L50.2581 33.9476L50.0367 34.1614L49.9165 34.0597L49.6951 33.861C49.5152 33.696 48.6033 33.0542 48.3816 33.0388C48.1829 33.024 47.4322 33.5307 47.2599 33.662C47.0533 33.8238 46.8663 34.0042 46.6818 34.1881ZM44.16 30.2065L44.3893 30.4357C44.6594 30.7059 45.7626 31.9139 45.7626 32.2855C45.7626 32.3683 45.6161 32.3642 45.5601 32.3642C45.0499 32.3642 44.592 31.9886 44.348 31.5647C44.1164 31.1659 43.9946 30.7128 43.995 30.2515C43.995 30.2141 43.995 30.1313 44.0479 30.1313C44.0926 30.1316 44.1342 30.1804 44.16 30.2065ZM42.0322 31.2835C42.0401 31.2387 42.0924 31.2233 42.1299 31.2233C42.4942 31.2233 44.941 32.1245 44.941 32.3907C44.941 32.5859 44.2838 32.5557 44.1903 32.5557C43.6534 32.5557 43.158 32.3157 42.7382 31.9926C42.6519 31.9252 42.0174 31.4151 42.0322 31.2835ZM43.1098 29.9816C43.1098 29.8614 43.1847 28.8332 43.3312 28.8332C43.4776 28.8332 43.751 29.9924 43.785 30.1275C43.8974 30.5967 43.9726 31.0546 43.9726 31.5386C43.9726 31.5801 43.9648 31.6588 43.9084 31.6588C43.7208 31.6588 43.3797 31.0618 43.3082 30.9229C43.158 30.6342 43.1098 30.3041 43.1098 29.9816ZM41.1845 29.2986C41.1845 29.2725 41.1918 29.2385 41.222 29.2385C41.5785 29.2385 43.4361 31.0287 43.4361 31.4038C43.4361 31.4485 43.4099 31.4639 43.3686 31.4639C42.828 31.4639 42.1525 30.8823 41.8225 30.5031C41.6386 30.2893 41.1845 29.5987 41.1845 29.2986ZM42.993 29.7149L42.8846 30.1388C42.8733 30.1804 42.8472 30.2925 42.7905 30.2925C42.5767 30.2925 42.4715 29.3318 42.4715 29.1481C42.4715 28.8178 42.5619 28.4802 42.6821 28.1761C42.7156 28.0938 42.9181 27.5384 43.0459 27.5384C43.1696 27.5384 43.1548 27.801 43.1548 27.8722C43.1548 28.4802 43.1432 29.1261 42.993 29.7149ZM41.4172 27.7037L41.7435 28.2249C41.9428 28.5476 42.4227 29.4448 42.4227 29.8346C42.4227 29.8649 42.4114 29.9102 42.3739 29.9102C42.2876 29.9102 42.2089 29.8541 42.1453 29.7972L41.86 29.5424C41.3498 29.0845 41.0384 28.154 41.0384 27.4744C41.0384 27.4332 41.0532 27.3542 41.1058 27.3542C41.2368 27.3545 41.3611 27.6133 41.4172 27.7037ZM43.0497 26.4088C43.0758 26.4088 43.0799 26.4315 43.0799 26.4538C43.0799 26.7876 42.4715 28.7879 42.2054 28.7879C42.0779 28.7879 42.0892 28.4282 42.0892 28.3527C42.0892 27.7748 42.303 27.2795 42.6441 26.8254C42.6967 26.758 42.9407 26.4088 43.0497 26.4088ZM41.2783 26.3675C41.2783 26.2586 41.3231 25.5006 41.4402 25.5006C41.5564 25.5006 41.7249 26.2025 41.7478 26.2926C41.8942 26.833 41.9954 27.4184 41.9954 27.9811C41.9954 28.041 42.0107 28.2548 41.9056 28.2548C41.7812 28.2548 41.5485 27.7408 41.5073 27.6281C41.353 27.2345 41.2783 26.7917 41.2783 26.3675ZM42.3812 27.0244L42.2313 27.1859C42.201 27.2159 42.1525 27.2722 42.1037 27.2722C42.0549 27.2722 42.0549 27.2121 42.0549 27.1784C42.0549 26.7016 42.2687 26.274 42.5651 25.9138C42.6853 25.7673 43.158 25.2421 43.3533 25.2421C43.38 25.2421 43.3948 25.2572 43.3948 25.2795C43.3948 25.6694 42.6627 26.7165 42.3812 27.0244ZM42.1113 24.1084C42.265 24.116 42.269 25.1366 42.269 25.2342C42.269 25.3655 42.1827 26.6677 42.0023 26.6677C41.7963 26.6677 41.7403 25.6206 41.7403 25.4817C41.7403 25.1741 41.7891 24.8775 41.8826 24.5849C41.9053 24.5175 42.0023 24.1012 42.1113 24.1084ZM43.4811 24.1349L43.6048 24.0524C43.6162 24.0486 43.6275 24.0373 43.6388 24.0373C43.665 24.041 43.6763 24.0747 43.6763 24.0974C43.6763 24.36 43.215 25.0393 43.0648 25.2418C42.9785 25.3545 42.5694 25.8647 42.4082 25.8647C42.3707 25.8647 42.344 25.831 42.344 25.797C42.344 25.2081 43.0157 24.4425 43.4811 24.1349ZM43.5037 23.3205L43.3907 23.6358C43.2408 24.0637 42.9669 24.5213 42.6519 24.8478L42.5502 24.953C42.5241 24.9832 42.4901 25.0204 42.4491 25.0204C42.3849 25.0204 42.3736 24.9379 42.3736 24.8891C42.3736 24.4539 42.6249 24.0222 42.8992 23.6994C42.9855 23.5942 43.3457 23.159 43.4921 23.159C43.5183 23.159 43.5223 23.2003 43.5223 23.2192C43.5223 23.2531 43.5151 23.2868 43.5037 23.3205ZM51.1253 32.3756C51.0687 32.3756 51.0123 32.3529 51.0123 32.2893C51.0123 31.9964 52.566 30.1165 52.7764 30.1165C52.8211 30.1165 52.8252 30.1801 52.8252 30.21C52.8255 31.1638 52.1982 32.3756 51.1253 32.3756ZM51.9919 32.2254L52.3301 32.049C52.7499 31.8317 54.2174 31.2315 54.6941 31.2315C54.7202 31.2315 54.7691 31.2428 54.7691 31.2762C54.7691 31.4412 53.9547 32.0531 53.8272 32.1359C53.4181 32.4061 52.9495 32.5711 52.4574 32.5711C52.3603 32.5711 51.8162 32.5746 51.8162 32.3947C51.8159 32.3116 51.9283 32.2553 51.9919 32.2254ZM53.084 31.4752L52.9335 31.6176C52.9114 31.6402 52.8812 31.6705 52.8472 31.6737C52.7871 31.6777 52.7984 31.5499 52.7984 31.52V31.4639C52.7984 30.8108 53.0009 30.147 53.2037 29.5313C53.2229 29.4671 53.4103 28.8448 53.5192 28.8448C53.5907 28.8448 53.6096 29.0322 53.6168 29.0807L53.6805 29.4599C53.7031 29.6028 53.7107 29.7487 53.7107 29.8951C53.7107 30.4845 53.512 31.058 53.084 31.4752ZM55.4933 29.3213L55.5982 29.2725C55.6095 29.2684 55.6244 29.2571 55.6429 29.2571C55.6656 29.2571 55.6845 29.2832 55.6845 29.3059C55.6832 29.3254 55.678 29.3445 55.6691 29.362L55.5494 29.6322C55.3054 30.1763 54.8362 30.7658 54.3219 31.0848C54.1421 31.1937 53.6314 31.4784 53.4175 31.4784C53.3766 31.4784 53.3501 31.4558 53.3501 31.4148C53.3501 31.1934 54.0706 30.4877 54.2325 30.3265C54.5474 30.0078 55.0843 29.5197 55.4933 29.3213ZM53.7447 27.9361L53.7595 27.6848C53.7636 27.6549 53.7749 27.5346 53.8269 27.5386C53.8684 27.5424 53.8984 27.6023 53.9172 27.6325L54.075 27.9175C54.2775 28.2891 54.3786 28.7356 54.3786 29.1595C54.3786 29.2911 54.2287 30.3227 54.0488 30.3227C53.8269 30.3227 53.7261 28.6307 53.7261 28.5029C53.7258 28.3152 53.7333 28.124 53.7447 27.9361ZM54.7688 28.5177L54.7385 28.6868C54.7313 28.7202 54.7237 28.7803 54.679 28.7803C54.4724 28.7803 53.973 27.208 53.917 26.9756C53.9129 26.9643 53.7519 26.4201 53.8795 26.4201C54.0747 26.4201 54.491 27.1706 54.566 27.3434C54.6976 27.6325 54.7911 27.9401 54.7911 28.2632C54.7914 28.3492 54.7842 28.4355 54.7688 28.5177ZM55.6319 25.8234L55.6546 26.1572C55.6618 26.2173 55.6618 26.2737 55.6618 26.3298C55.6618 26.6976 55.5869 27.1177 55.4707 27.4669C55.4291 27.5793 55.1255 28.2626 54.9605 28.2626C54.8963 28.2626 54.889 28.1464 54.889 28.1049C54.889 27.4779 55.0389 26.8925 55.2194 26.2999C55.242 26.2284 55.4294 25.5457 55.527 25.5457C55.6098 25.5459 55.6284 25.7746 55.6319 25.8234ZM54.6639 29.8088L54.4875 29.9105C54.4686 29.9233 54.4467 29.9309 54.4239 29.9326C54.3978 29.9326 54.3937 29.8916 54.3937 29.873C54.3937 29.5241 55.5755 27.3472 55.8344 27.3472C55.8611 27.3472 55.8611 27.3922 55.8611 27.4111C55.8611 27.8315 55.7409 28.2705 55.5872 28.6609C55.4259 29.0732 55.0503 29.5874 54.6639 29.8088ZM54.8443 27.0581V27.1857C54.8443 27.2194 54.8443 27.2682 54.8028 27.2682C54.7426 27.2682 54.6938 27.1894 54.6604 27.1517L54.4085 26.8516C54.1985 26.6003 53.5494 25.6546 53.5494 25.3132C53.5494 25.2906 53.5608 25.2607 53.5869 25.2607C53.6398 25.2607 53.6918 25.2981 53.7293 25.3281L53.9812 25.5233C54.4085 25.8536 54.855 26.4951 54.8443 27.0581ZM53.3728 24.3563L53.3281 24.2061C53.3208 24.1799 53.3095 24.1497 53.3095 24.1236C53.3095 24.1047 53.3243 24.0933 53.3429 24.0933C53.591 24.0933 54.1162 24.7049 54.2586 24.9077C54.4164 25.1366 54.6003 25.448 54.6003 25.733C54.6003 25.7667 54.6075 25.887 54.5515 25.887C54.2287 25.8873 53.4591 24.6526 53.3728 24.3563ZM53.6096 23.2305L53.8722 23.4707C54.2211 23.7897 54.611 24.3263 54.611 24.8255C54.611 24.8743 54.6264 25.0468 54.5549 25.0468C54.2702 25.0468 53.7258 23.9513 53.6357 23.7296C53.6317 23.722 53.4143 23.1703 53.5233 23.1817C53.5567 23.1817 53.5869 23.2078 53.6096 23.2305ZM55.0389 26.5026L54.9753 26.6415C54.964 26.6642 54.9527 26.6903 54.9224 26.6903C54.776 26.6903 54.6938 25.5831 54.6938 25.4483C54.6938 25.3281 54.7842 24.1236 54.885 24.1236C54.9338 24.1236 54.9713 24.2848 54.9826 24.3185L55.0915 24.6224C55.1964 24.9114 55.2231 25.2714 55.2231 25.5794C55.2234 25.8911 55.1633 26.2176 55.0389 26.5026Z" fill="black"/>
<path fill-rule="evenodd" clip-rule="evenodd" d="M43.428 27.0358C43.428 25.5646 44.0244 24.0974 45.1354 23.1181C46.0433 22.3113 47.2553 21.8119 48.4753 21.8119C51.2518 21.8119 53.4624 24.116 53.4624 26.8705C53.4624 29.6621 51.1733 32.0153 48.3698 32.0153C45.6415 32.0153 43.428 29.7452 43.428 27.0358ZM19.4936 22.2886C20.3117 22.2886 20.9872 22.9754 20.9872 23.7898C20.9872 24.6041 20.3155 25.2981 19.4936 25.2981C18.6758 25.2981 18 24.6079 18 23.7898C18 22.9754 18.6755 22.2886 19.4936 22.2886Z" fill="black"/>
<path fill-rule="evenodd" clip-rule="evenodd" d="M30.0938 28.604H32.4542C32.4168 27.9175 32.1091 27.3434 31.3433 27.3434C30.529 27.3434 30.1989 27.8649 30.0938 28.604ZM49.8438 22.4612C49.9225 22.3862 50.0015 22.311 50.0843 22.236L49.9306 22.1948C49.6305 22.1123 49.3377 22.0484 49.0262 22.0184L49.116 22.0672L49.3005 22.1497C49.4914 22.2323 49.6677 22.3522 49.8438 22.4612ZM48.6245 24.0111C48.9774 23.9847 49.315 23.9434 49.6526 23.8348C49.5402 23.5721 49.4167 23.3206 49.2514 23.0844C49.0483 23.1332 48.8496 23.1669 48.6399 23.1744L48.6245 24.0111ZM48.6204 25.2043C49.0001 25.2002 49.3676 25.118 49.7467 25.1029C49.8438 25.0954 50.039 25.0803 50.039 24.9454C50.039 24.9193 50.0317 24.8966 50.0283 24.8743L49.9754 24.6604C49.9266 24.4466 49.8403 24.2476 49.754 24.0489C49.3824 24.1613 49.0033 24.2064 48.6169 24.2366L48.6204 25.2043ZM49.8592 23.7822C50.1295 23.6939 50.3869 23.5702 50.6247 23.4144C50.3961 23.159 50.152 22.9153 49.8592 22.7352C49.7344 22.8365 49.5968 22.921 49.4501 22.9867L49.5288 23.1256L49.6825 23.3882C49.754 23.512 49.8063 23.6471 49.8592 23.7822ZM50.8237 23.313C51.0037 23.1972 51.171 23.0626 51.3225 22.9115C51.0297 22.6451 50.6508 22.465 50.2796 22.3261C50.2008 22.4199 50.1105 22.4987 50.0242 22.5812C50.3243 22.7764 50.591 23.0466 50.8237 23.313ZM50.9701 23.4893C51.2249 23.786 51.4541 24.1125 51.634 24.4614C51.8893 24.315 52.1406 24.1535 52.362 23.9585C52.1293 23.6244 51.844 23.2941 51.5102 23.0579C51.4053 23.1593 51.2923 23.2494 51.1726 23.3394L50.9701 23.4893Z" fill="white"/>
<path fill-rule="evenodd" clip-rule="evenodd" d="M46.7412 22.3034C44.8839 23.0277 43.5664 24.9605 43.5664 26.9492C43.5664 29.6287 45.7096 31.8427 48.4036 31.8427C51.2295 31.8427 53.3271 29.4971 53.3271 26.7391C53.3271 25.8048 52.9968 24.919 52.5049 24.1384L52.3062 24.281C52.1185 24.4123 51.9271 24.5361 51.7246 24.645C51.7661 24.7313 51.8109 24.8289 51.8109 24.9266C51.8109 24.964 51.7995 25.0465 51.7467 25.0465C51.6456 25.0465 51.552 24.8289 51.518 24.754C51.3789 24.799 51.2292 24.8743 51.0787 24.8743C51.0453 24.8743 50.9776 24.8478 50.9776 24.8028C50.9776 24.6825 51.33 24.5776 51.4201 24.5364C51.2475 24.1912 51.0523 23.8836 50.7862 23.6021C50.5195 23.7523 50.2493 23.8836 49.9605 23.9885C50.0201 24.1349 50.0802 24.2775 50.129 24.4277L50.2226 24.7127C50.2412 24.7766 50.2641 24.844 50.2641 24.9117C50.2641 25.1857 50.0282 25.2871 49.7987 25.3132L49.2546 25.3806C49.0445 25.4068 48.8307 25.4181 48.6169 25.4219L48.6203 25.7557C48.6203 25.8269 48.6203 25.9472 48.5155 25.9472C48.4178 25.9472 48.3917 25.8647 48.3879 25.7784L48.3807 25.4594C48.2796 25.4594 47.9754 25.4707 47.9754 25.3132C47.9754 25.2345 48.0617 25.2118 48.1259 25.2118C48.1854 25.2118 48.2456 25.2156 48.3098 25.2156H48.4033L48.3961 24.2662L48.0806 24.2511C48.0373 24.154 47.9832 24.0621 47.9193 23.9771L48.4147 24.0111V23.1703C48.2081 23.159 48.0169 23.1181 47.8176 23.0614C47.754 23.1477 47.5628 23.5381 47.4652 23.5381C47.4164 23.5381 47.3865 23.4856 47.3865 23.4405C47.3865 23.2793 47.5175 23.0916 47.6038 22.9638C47.4495 22.898 47.3046 22.8123 47.1727 22.7087C47.0411 22.7912 46.557 23.2003 46.4969 23.2003C46.4481 23.2003 46.426 23.1364 46.426 23.0951C46.426 22.9339 46.8685 22.6712 46.9923 22.5887C46.9031 22.4987 46.8203 22.401 46.7412 22.3034ZM47.9347 22.0446H47.9045C47.5896 22.0446 47.3043 22.1233 47.0079 22.2322C47.0681 22.311 47.1317 22.3787 47.2067 22.4385C47.4394 22.2811 47.6799 22.1611 47.9347 22.0446Z" fill="white"/>
<path fill-rule="evenodd" clip-rule="evenodd" d="M48.2111 22.1646C47.8996 22.2546 47.6329 22.3935 47.3555 22.5661C47.4792 22.6448 47.6068 22.7125 47.7378 22.7723L47.8883 22.5661L48.0795 22.3334L48.2111 22.1646ZM47.9516 22.8551C48.1021 22.9037 48.2517 22.9414 48.4095 22.9713L48.4249 22.3031C48.3868 22.2848 47.9891 22.8026 47.9516 22.8551ZM48.6535 22.3185L48.6495 22.9638C48.8051 22.9447 48.9594 22.9159 49.1114 22.8775C48.9763 22.6712 48.8374 22.4839 48.6535 22.3185ZM49.3514 22.784C49.4548 22.7271 49.555 22.6644 49.6515 22.5963C49.4188 22.4313 49.1977 22.3113 48.9275 22.2172C49.0437 22.3636 49.1561 22.51 49.261 22.6599L49.3514 22.784Z" fill="white"/>
<path fill-rule="evenodd" clip-rule="evenodd" d="M44.1599 26.2362C44.0963 26.2737 44.0324 26.3112 43.9688 26.3524C44.0216 25.6808 44.3479 24.5736 44.8993 24.1573C44.8618 24.2735 44.8357 24.3862 44.8243 24.5062C44.4754 25.0242 44.2689 25.6247 44.1599 26.2362ZM51.5078 30.2292L51.4555 30.0828C51.8158 29.7452 52.1159 29.332 52.3105 28.8748L52.5845 28.6455C52.3558 29.2458 52.0444 29.8501 51.5078 30.2292Z" fill="black"/>
<path fill-rule="evenodd" clip-rule="evenodd" d="M51.3471 30.4204C50.506 31.0883 49.5307 31.5275 48.4465 31.5275C45.7972 31.5275 43.8867 29.4337 43.8867 26.8368C43.8867 26.1537 45.0654 26.15 45.0654 25.5158C45.0654 25.193 44.9378 24.8853 44.9378 24.5663C44.9378 23.842 45.5982 23.268 46.2963 23.268C47.0168 23.268 48.0223 23.8984 48.0223 24.6942C48.0223 25.1706 47.6513 25.392 47.6513 25.6735C47.6513 25.7636 47.6661 25.8536 47.6661 25.9437C47.6661 26.0413 47.5238 26.0599 47.5124 26.1651L47.5052 26.2214L47.441 26.319L47.3849 26.4204C47.3588 26.4617 47.2051 26.5782 47.1563 26.6308C47.07 26.7246 46.9456 26.7435 46.8222 26.7435C46.7434 26.7435 46.6609 26.7397 46.5857 26.7208L46.3797 26.6648C46.3453 26.6571 46.3101 26.6533 46.2748 26.6534C46.1618 26.6534 46.0308 26.7322 46.0308 26.8562C46.0308 27.0587 46.1432 27.2577 46.1357 27.464L46.1243 28.0084L46.1316 28.0459L46.1917 28.2257L46.2365 28.38C46.3045 28.6313 46.6984 28.6127 46.957 28.7135L47.1783 28.7963C47.2086 28.8071 47.2457 28.8297 47.28 28.8297C47.4151 28.8297 47.5729 28.5744 47.798 28.5744C47.8843 28.5744 47.8878 28.706 47.963 28.6987L48.1769 28.6801C48.2216 28.6723 48.2553 28.8527 48.2553 28.8902C48.2553 29.2051 48.038 29.6107 47.685 29.6107C47.5386 29.6107 47.4262 29.4945 47.2914 29.4945C47.2353 29.4945 46.8181 29.6107 46.7025 29.6296C46.5374 29.6557 46.3721 29.6818 46.2071 29.6818C46.0796 29.6818 45.8916 29.6859 45.7827 29.6182L45.6964 29.5621C45.6816 29.5549 45.6662 29.5436 45.6476 29.5436C45.5125 29.5436 45.4451 29.8852 45.4451 29.9747C45.4451 30.3878 45.9706 30.5415 46.2934 30.5415C46.4994 30.5415 46.7132 30.5113 46.905 30.4285L47.4866 30.1737C47.9064 29.9898 48.6196 29.9111 48.7399 29.8469C48.8448 29.7908 48.9273 29.6932 48.9273 29.5694C48.9269 29.5176 48.9207 29.4661 48.9087 29.4157L48.8564 29.2092L48.8149 28.9579L48.7809 28.6839C48.7059 28.0235 47.9218 27.9898 47.9218 27.498C47.9218 27.2955 48.1356 27.179 48.1432 26.9875C48.1472 26.9088 48.158 26.8562 48.2335 26.8187L48.3085 26.785C48.4134 26.7362 48.3085 26.5035 48.4436 26.4547L48.515 26.4286C48.6763 26.3722 48.5299 26.0384 48.7591 26.0082L48.943 25.982L49.1644 25.937C49.4345 25.8806 49.4197 25.6105 49.7387 25.4716L50.0722 25.3252L50.1966 25.2464L50.3424 25.0927C50.474 24.9614 50.6954 24.935 50.8718 24.935C52.1065 24.935 53.0109 25.8958 53.0109 27.104C53.0109 28.0459 52.2488 29.2432 51.2131 29.2432C51.1457 29.2432 51.078 29.2353 51.0106 29.2353C50.8415 29.2353 50.8302 29.423 50.8302 29.5549C50.8302 29.9901 51.3558 30.2902 51.3558 30.2978C51.3558 30.3352 51.3485 30.3727 51.3485 30.4102V30.4204H51.3471Z" fill="black"/>
</g>
<defs>
<clipPath id="clip0_951_874">
<rect width="56" height="56" fill="white" transform="translate(0.683594)"/>
</clipPath>
</defs>
</svg>
