<svg width="81" height="80" viewBox="0 0 81 80" fill="none" xmlns="http://www.w3.org/2000/svg">
<g style="mix-blend-mode:luminosity" opacity="0.5" clip-path="url(#clip0_951_1019)">
<path fill-rule="evenodd" clip-rule="evenodd" d="M72.2924 30.6419C70.6136 28.9635 68.5596 27.654 66.1869 26.7501C63.7274 25.8125 60.9853 25.3377 58.0361 25.3377C51.7529 25.3377 45.8931 27.7839 40.2262 30.1492C34.7096 32.4514 29.4989 34.6266 24.0727 34.6266C16.0912 34.6266 14.649 28.155 14.6353 28.0898L14.6316 28.0724L14.6237 28.0562L14.5681 27.9417L14.4469 27.9819C14.3755 28.0056 13.6596 28.6294 13.0698 29.5096C12.3377 30.602 12.0135 31.745 12.1173 32.839C11.3528 32.1891 10.4634 31.6549 9.67857 31.381C7.02153 30.4551 4.22172 31.5188 4.10385 31.5641L3.87891 31.6512L4.06069 31.8089L6.21097 33.6753C7.80387 35.0582 8.01346 36.5743 8.36084 39.0861C8.46335 39.8286 8.57956 40.6707 8.74682 41.573C9.22411 44.1499 10.5128 45.5328 11.5097 46.2379C12.2335 46.7518 13.0626 47.0982 13.9368 47.2519L13.9414 47.2568C17.3617 51.3287 24.0707 53.8584 31.4508 53.8584C40.933 53.8584 48.4376 49.1461 54.4676 45.3597C55.9501 44.4292 57.3583 43.5456 58.708 42.7828C58.1428 43.9203 57.8488 45.1732 57.8489 46.4434C57.8489 48.6621 58.7034 50.739 60.2548 52.2904C61.7846 53.8202 63.8233 54.6623 65.9947 54.6623C68.5198 54.6623 71.0424 53.5296 73.0988 51.4732C75.4562 49.1158 76.8084 45.9067 76.8084 42.6691L76.8204 41.7021C76.8204 37.4899 75.2122 33.562 72.2924 30.6419Z" fill="black"/>
<path fill-rule="evenodd" clip-rule="evenodd" d="M76.5211 42.6699C76.5211 48.795 71.5058 54.3726 65.9979 54.3726C63.9041 54.3726 61.9385 53.5604 60.4639 52.0858C58.9669 50.5887 58.1422 48.5845 58.1422 46.4438C58.1422 45.0526 58.5079 43.6838 59.1993 42.4856L59.4595 42.0357L59.0038 42.2864C57.5155 43.1061 55.9616 44.0819 54.316 45.1145C48.3176 48.8805 40.8528 53.5683 31.454 53.5683C24.1577 53.5683 17.5334 51.0781 14.167 47.0705L14.1289 47.0253L14.0944 46.9838L14.0413 46.975C13.1911 46.8334 12.3842 46.5004 11.6814 46.0014C10.7285 45.327 9.49543 44.0018 9.03599 41.5203C8.86997 40.6238 8.75418 39.7859 8.65208 39.0467C8.29557 36.4673 8.08058 34.9105 6.4051 33.4562L4.44531 31.7554C5.1683 31.5238 7.45928 30.9137 9.58632 31.6554C10.245 31.8849 11.283 32.4419 12.2205 33.3155L12.5467 33.6193L12.4621 33.1814C12.0026 30.8066 13.8383 28.9091 14.4136 28.3828C14.5601 28.9041 15.0079 30.2131 16.099 31.5375C17.3686 33.0789 19.7828 34.9167 24.0759 34.9167C29.5606 34.9167 34.7975 32.7307 40.3411 30.4165C45.9813 28.062 51.8138 25.6274 58.0393 25.6274C60.9528 25.6274 63.6601 26.096 66.0872 27.0207C68.4209 27.9101 70.4409 29.1971 72.0906 30.8465C74.9552 33.7119 76.5335 37.5671 76.5335 41.7025L76.5211 42.6699Z" fill="white"/>
<path fill-rule="evenodd" clip-rule="evenodd" d="M73.279 48.3309C73.279 48.3309 74.9723 38.9446 65.6349 38.9446C57.1192 38.9446 47.2016 52.4431 31.4532 52.4431C24.2927 52.4431 18.0759 49.9757 15.0275 46.3471L18.8495 45.2821C18.8495 45.2821 19.6717 46.2985 21.5589 46.2985C22.7197 46.2985 22.8168 45.7183 22.8168 45.2821C22.8168 44.8468 22.2847 44.4604 21.3169 44.4604C20.3494 44.4604 19.3334 44.7982 18.6557 44.992C17.9784 45.1858 15.753 45.9113 14.737 45.9113C13.721 45.9113 10.8664 45.2344 10.1405 41.3152C9.41459 37.3965 9.70511 34.8324 7.14062 32.6066C7.14062 32.6066 11.0112 32.1227 12.9465 36.2352C15.1304 40.8766 16.3091 38.9462 16.3091 38.122C16.3091 36.9126 12.1725 35.6061 14.1078 30.9129C14.1078 30.9129 16.5751 36.0414 24.0744 36.0414C35.589 36.0414 46.1367 26.7522 58.0377 26.7522C68.8269 26.7522 75.4068 33.4774 75.4068 41.7021C75.4077 46.5891 73.279 48.3309 73.279 48.3309Z" fill="black"/>
<path fill-rule="evenodd" clip-rule="evenodd" d="M59.8186 48.4559L60.1365 49.1286L59.5352 49.0672L59.8186 48.4559ZM60.1639 49.1789L60.4852 49.867L59.8771 49.8549L60.1639 49.1789ZM60.5159 49.933L60.789 50.5352L60.3221 50.5115L60.5159 49.933Z" fill="black"/>
<path fill-rule="evenodd" clip-rule="evenodd" d="M71.1028 45.8051L72.4857 45.1136L72.23 45.4485L72.6662 45.7328L72.3064 46.1035L72.7895 46.5542L72.2553 46.8468L72.7588 47.4046L72.1022 47.6403L72.5845 48.1703L71.9279 48.4065L72.394 49.0191L71.6531 49.1432L71.9959 49.7794L71.3132 49.8769L71.5386 50.5676L70.8455 50.5227L71.0127 51.2403L70.2943 51.1527L70.3918 51.8359L69.6842 51.7147L69.7021 52.3169L69.038 52.0916L68.9878 52.7544L68.3457 52.4771L68.1536 53.1507L67.5742 52.7822L67.2119 53.3923L66.6354 52.959L66.2299 53.5139L65.8215 52.9532L65.3102 53.4483L65.0213 52.8494L64.4847 53.301L64.2821 52.7344L63.6671 53.1046L63.5243 52.431L62.8727 52.7772L62.7664 52.0476L62.1518 52.3393L62.1107 51.6138L61.4392 51.772L61.5114 51.0577L60.7917 51.2096L60.9864 50.5514L61.2918 50.3982L60.49 48.6846L61.8932 50.1247L62.2834 49.9085L62.092 47.9678L62.8748 49.6686L63.3442 49.4528L62.2136 47.0049L61.5981 47.2959L61.7978 49.3623L60.3086 47.8902L59.694 48.1819L59.7994 48.4007L59.3246 48.2517L59.6429 47.8242L59.1938 47.5586L59.5545 47.1879L59.0859 46.7347L59.6213 46.4421L59.1171 45.8839L59.7736 45.6486L59.2914 45.1178L59.9326 44.8849L59.4819 44.269L60.2082 44.1482L59.8799 43.5087L60.563 43.4124L60.3368 42.7218L61.0154 42.7687L60.8478 42.0511L61.5811 42.1362L61.4686 41.4563L62.1771 41.5771L62.1584 40.9749L62.8229 41.2003L62.8727 40.5379L63.5301 40.8118L63.7065 40.1415L64.2863 40.5101L64.6673 39.912L65.2247 40.3329L65.6302 39.778L66.0543 40.3362L66.5511 39.8431L66.8387 40.442L67.3754 39.9905L67.5779 40.5582L68.1934 40.1868L68.3515 40.8579L68.9886 40.5151L69.094 41.2438L69.7236 40.9496L69.7651 41.6751L70.4362 41.5161L70.3487 42.2345L71.0841 42.0797L70.8733 42.8206L71.5714 42.8002L71.3149 43.4697L72.0121 43.4502L71.7469 44.1541L72.3508 44.2308L72.1109 44.8177L71.3643 45.1663L70.425 43.1439L69.9523 43.3452L71.1028 45.8051Z" fill="black"/>
<path fill-rule="evenodd" clip-rule="evenodd" d="M66.4058 47.9977L65.4665 45.9752L66.6241 45.4386L67.5633 47.4606L68.0327 47.244L67.0935 45.2224L67.7662 44.9036L67.5774 44.4936L64.1044 46.1051L64.2937 46.516L64.9971 46.1919L65.9521 48.211L66.4058 47.9977ZM69.6127 43.5282L67.8376 44.3421L68.9868 46.8024L70.7466 45.9914L70.5544 45.566L69.2487 46.1628L68.9611 45.5635L70.134 45.0236L69.9418 44.5982L68.769 45.1381L68.4988 44.5521L69.8049 43.9544L69.6127 43.5282ZM63.2656 46.4957L63.4341 49.4125L63.9156 49.178L63.9118 48.653L64.9121 48.2085L65.2644 48.5563L65.7616 48.3198L63.6338 46.3305L63.2656 46.4957Z" fill="white"/>
<path fill-rule="evenodd" clip-rule="evenodd" d="M63.8496 48.1682L63.7031 46.9684L64.5411 47.8615L63.8496 48.1682Z" fill="black"/>
<path fill-rule="evenodd" clip-rule="evenodd" d="M34.717 35.9933C34.717 35.9933 32.5215 36.725 29.5802 37.2708C29.8437 38.7636 30.2733 42.1383 28.7663 42.1383C27.2564 42.1383 27.9844 38.8998 28.3774 37.4754C26.0188 37.8389 23.3427 38.0265 20.9766 37.6389C20.9766 37.6389 21.6365 39.4754 23.6378 40.2025C25.7665 40.9766 27.7985 43.3477 25.0406 47.1697C24.3553 48.1197 22.7666 49.1531 22.7666 49.1531C22.7666 49.1531 24.6023 50.0206 27.5179 50.4655C27.4054 49.0427 27.1788 44.5724 28.7659 44.6542C30.3978 44.7376 29.2432 49.3793 28.9016 50.6331C30.1865 50.7481 31.6246 50.7668 33.1686 50.6049C33.1686 50.6049 31.3785 48.4277 31.3785 44.0731C31.3785 39.1865 34.717 37.6866 34.717 35.9933Z" fill="white"/>
<path fill-rule="evenodd" clip-rule="evenodd" d="M35.2499 39.1384C37.1366 39.1384 38.4431 40.9284 38.4431 44.992C38.4431 49.0564 36.9917 50.4597 35.4918 50.4597C33.9919 50.4597 32.25 48.3787 32.25 44.8472C32.25 41.3157 33.3146 39.1384 35.2499 39.1384Z" fill="white"/>
<path fill-rule="evenodd" clip-rule="evenodd" d="M35.3951 40.8799C35.8791 40.8799 36.1692 43.9764 36.1692 45.3797C36.1692 46.7829 36.1692 48.6692 35.5404 48.6692C34.9112 48.6692 34.6211 45.3311 34.6211 44.1703C34.6211 43.0086 34.6211 40.8799 35.3951 40.8799Z" fill="black"/>
<path fill-rule="evenodd" clip-rule="evenodd" d="M36.5547 38.1224C36.5547 38.1224 39.2159 39.5742 39.2159 43.783C39.2159 47.9927 39.506 49.1531 40.9096 49.1531C42.3128 49.1531 43.2313 47.073 42.6507 43.0086C42.6507 43.0086 41.3284 45.4996 40.7644 42.96C40.6672 42.5246 40.7158 41.0737 40.7158 41.0737C40.7158 41.0737 42.0215 40.9766 42.2153 39.4285C42.2153 39.4285 41.0545 39.912 40.522 39.8157C40.522 39.8157 40.8606 37.3484 39.3122 37.4932C37.7641 37.6385 36.5547 38.1224 36.5547 38.1224Z" fill="white"/>
<path fill-rule="evenodd" clip-rule="evenodd" d="M38.1523 34.59C38.1523 34.59 38.9749 36.622 41.2485 37.2512C43.2103 37.7937 46.3285 40.1054 45.1191 46.9754L49.0872 44.6052C49.0872 44.6052 47.4902 42.5242 48.2156 38.9927C48.2156 38.9927 48.8448 42.8143 50.5382 43.7336L52.2315 42.6213C52.2315 42.6213 51.699 41.2181 52.2315 39.0408C52.764 36.8636 54.3602 32.7996 50.0057 29.8969L45.3619 31.5902C45.3619 31.5902 45.7972 32.8967 47.0552 33.2839C48.3132 33.6712 50.1518 34.1547 50.4896 35.848C50.8283 37.5413 49.6189 37.5895 49.9094 39.3318C49.9094 39.3318 49.474 38.4125 49.4255 36.6706C49.3777 34.9287 48.4099 34.6386 48.4099 34.6386L46.7165 35.3641C46.7165 35.3641 47.5391 36.4286 47.442 37.4446C47.3457 38.4606 46.8618 40.154 46.9104 40.8794C46.9581 41.6049 46.4742 39.9601 46.5227 38.7022C46.5713 37.4442 46.8614 36.1863 44.9265 35.1221C42.9908 34.058 42.9422 33.5255 42.6521 32.7996L38.1523 34.59Z" fill="white"/>
<path fill-rule="evenodd" clip-rule="evenodd" d="M57.4082 33.6712C57.5053 31.2038 59.1015 28.5912 59.1015 28.5912C59.1015 28.5912 57.8668 28.626 56.249 28.7875C56.2685 30.9249 56.4403 33.2283 55.5219 33.0906C54.9076 32.9984 54.8117 30.1056 54.798 28.9577C53.4654 29.139 52.0534 29.4067 50.9258 29.8006C50.9258 29.8006 53.5861 31.5906 53.6347 34.9291C53.6833 38.2673 53.2471 41.0251 52.9569 42.2831C52.9569 42.2831 54.1597 41.6174 55.5077 40.8927C55.3027 39.6024 54.72 35.3948 55.763 35.074C56.7429 34.7723 56.6067 38.6395 56.4988 40.3636C57.6929 39.7327 58.8002 39.1704 59.1011 39.0898C59.1015 39.0898 57.3115 36.1386 57.4082 33.6712Z" fill="white"/>
<path fill-rule="evenodd" clip-rule="evenodd" d="M59.9752 34.2999L62.7808 32.2198C62.7808 32.2198 63.1178 28.4164 61.3299 28.4945C60.2168 28.5426 58.2578 29.8973 58.2578 33.9131C58.2578 37.5899 59.8781 38.5578 60.6525 38.5578C61.2336 38.5578 62.636 38.1705 62.5397 35.2197C62.5397 35.2197 61.862 36.1385 60.9916 36.1385C60.1213 36.1385 59.9752 34.2999 59.9752 34.2999Z" fill="white"/>
<path fill-rule="evenodd" clip-rule="evenodd" d="M59.9727 32.6552C59.9727 32.6552 60.1113 30.2359 60.8434 30.2359C61.3273 30.2359 61.3273 31.5906 61.3273 31.5906C61.3273 31.5906 60.6981 32.5099 59.9727 32.6552Z" fill="black"/>
<path fill-rule="evenodd" clip-rule="evenodd" d="M64.5198 34.0584L66.673 32.8004C66.673 32.8004 67.2291 29.7109 65.2942 29.6557C63.6009 29.6072 63.0203 33.3811 63.0692 34.8324C63.117 36.2838 63.3593 37.7837 64.5202 37.8319C65.6819 37.8804 66.6012 36.7677 66.5036 34.9773C66.5036 34.9773 64.5198 36.8644 64.5198 34.0584Z" fill="white"/>
<path fill-rule="evenodd" clip-rule="evenodd" d="M64.5195 32.9938C64.5195 32.9938 64.8096 31.01 65.4874 31.01C65.9228 31.01 65.6812 32.2679 65.6812 32.2679L64.5195 32.9938Z" fill="black"/>
<path fill-rule="evenodd" clip-rule="evenodd" d="M67.1803 30.4779C67.1803 30.4779 68.2926 34.4938 66.4062 37.5418C66.4062 37.5418 68.3411 37.5899 68.8251 38.0738C68.8251 38.0738 69.0666 36.671 69.1152 36.4772C69.1152 36.4772 67.5671 36.6225 68.0996 34.6386C68.7043 32.3829 69.2845 32.0015 69.2845 32.0015C69.2845 32.0015 68.5835 31.2038 67.1803 30.4779ZM69.5028 36.8885L69.1641 38.0738C69.1641 38.0738 69.2127 38.7997 70.6151 38.8479C72.0183 38.8964 71.9706 37.5418 71.6792 36.8644C71.3891 36.1871 70.2283 34.5419 71.8731 35.2678C71.8731 35.2678 72.9318 34.2821 70.9538 33.623C70.6637 33.5263 69.7307 33.479 69.6236 34.4456C69.4783 35.7517 70.8085 36.4291 70.7122 37.0097C70.6151 37.5899 69.8896 37.372 69.5028 36.8885Z" fill="white"/>
</g>
<defs>
<clipPath id="clip0_951_1019">
<rect width="80" height="80" fill="white" transform="translate(0.351562)"/>
</clipPath>
</defs>
</svg>
