<svg width="169" height="26" viewBox="0 0 169 26" fill="none" xmlns="http://www.w3.org/2000/svg">
<g style="mix-blend-mode:luminosity" opacity="0.5" clip-path="url(#clip0_951_710)">
<path d="M0.351729 13.0003C0.351729 19.9227 6.02366 25.5354 13.0195 25.5354C14.8616 25.5354 16.613 25.1455 18.1913 24.4462C11.7111 22.6517 2.75789 18.5633 3.78403 10.422C4.45947 5.05826 11.3982 1.58297 18.3569 1.62796C16.7341 0.881487 14.9261 0.464584 13.0193 0.464584C6.02366 0.464584 0.351729 6.07728 0.351729 13.0003Z" fill="#F58113"/>
<path d="M8.52742 8.19738C7.88879 14.0418 16.0808 17.3984 21.0292 18.7918C21.9844 19.0607 23.0308 19.2301 23.9507 19.3379C25.0545 17.4785 25.6878 15.3119 25.6878 13.0003C25.6878 8.56205 23.356 4.66146 19.8387 2.43424V2.43474C19.4083 2.40705 18.9827 2.39338 18.563 2.39338C13.2721 2.39338 8.92492 4.56885 8.52742 8.19738Z" fill="#F58113"/>
<path d="M131.454 7.3087C127.022 9.65885 125.455 14.1535 125.156 15.5586C124.693 17.5475 124.723 19.7741 127.511 20.9673C128.184 21.2491 128.888 21.4015 129.63 21.5102C130.364 21.6409 131.148 21.6854 131.942 21.6871C136.128 21.6917 138.471 20.3322 139.399 19.75C141.48 18.4548 142.805 16.6409 143.708 15.1073C144.311 14.049 144.782 12.9679 145.027 11.9091C145.339 10.5685 145.419 8.81779 144.05 7.41054C142.831 6.17664 140.403 5.78495 138.407 5.78182H138.376C135.68 5.78182 133.358 6.27666 131.454 7.3087ZM132.98 18.4011C132.788 18.4011 131.174 18.399 130.948 17.0149C130.857 16.5829 130.983 16.0426 131.023 15.8694C131.359 14.4204 132.782 11.7203 134.036 10.4465C135.253 9.21525 136.546 8.95736 137.175 8.95852C139.501 8.96099 139.258 10.7128 139.092 11.4253C138.956 12.0085 138.706 12.6142 138.433 13.1974C137.59 15.0555 135.856 18.4004 132.985 18.4011H132.98ZM29.8047 14.7393C28.9589 18.6074 30.7419 21.5079 36.396 21.5163C38.4513 21.5183 39.8981 21.1601 40.9595 20.772C41.2418 20.1882 42.9567 16.8902 42.9567 16.8902C42.0348 17.3432 40.5229 18.0399 38.647 18.0373C36.2052 18.0336 34.9677 16.7574 35.4683 14.4662C35.8833 12.5638 38.1462 9.15065 42.0268 9.15593C44.1084 9.15922 45.357 10.3559 45.357 10.3559L47.3658 6.77382C46.7009 6.40503 46.1622 6.1132 45.0273 5.89618C44.1186 5.70009 43.1872 5.61275 42.2103 5.61044H42.1892C35.0834 5.6111 30.7669 10.3345 29.8047 14.7393ZM46.13 13.2704L44.4619 16.8137L42.3634 21.2568L53.5878 21.2601L55.4036 17.8547L49.0345 17.8585L49.9187 15.9575L50.4183 14.8983L55.5141 14.9072L57.1037 11.8739L51.7435 11.8734L53.0128 9.12923L58.4849 9.12874L60.1352 5.93424L49.3204 5.92963C48.0331 8.99856 47.6451 9.90025 46.1302 13.2704M55.5111 21.2632L66.5359 21.2599L68.3041 17.8549L62.2033 17.857L67.8591 5.93128L62.4233 5.92963L55.5111 21.2632ZM87.5198 7.51864C87.0373 7.9067 85.8494 9.07222 85.491 10.8443C85.0364 13.0926 86.5805 14.0467 87.6864 14.6963L88.3883 15.1079C89.3891 15.6932 90.0952 16.0834 89.933 16.8833C89.8193 17.4455 89.085 18.3736 87.1572 18.371C86.4922 18.3693 85.399 18.2386 84.4707 17.6538C84.0511 17.3714 83.728 17.0481 83.4849 16.7238L81.6654 20.321C82.175 20.6239 82.6099 20.8508 83.3706 21.0899C84.538 21.4368 85.7686 21.59 87.0293 21.592C91.6441 21.5989 94.7728 19.3114 95.3978 16.2205C95.8699 13.8865 93.971 12.8028 92.9671 12.2389L92.539 12.0009C91.1651 11.2633 90.7327 10.8094 90.8649 10.1613C91.0139 9.42518 91.8924 8.8435 93.0581 8.84564C93.6776 8.84564 94.7745 9.06315 95.5415 9.62721C95.8113 9.82231 96.1923 10.1875 96.4254 10.4473L96.4286 10.45L98.2327 6.92179C97.4382 6.51478 95.7656 5.69251 93.1495 5.68839H93.1327C91.3993 5.68839 89.2632 6.05454 87.5198 7.51864ZM100.281 6.02141L98.5853 9.37509H102.661L97.0416 21.3446L102.29 21.3413L107.7 9.37558L111.307 9.37871L112.981 6.02158L100.281 6.02141ZM114.732 6.01977C113.391 9.47725 112.97 10.4508 111.21 14.2112L109.982 16.8678L107.866 21.3496L113.021 21.3484C114.133 18.56 114.449 17.7632 115.448 15.6448L116.319 15.6669L117.568 21.3448L123.047 21.3395L121.024 14.8734C122.089 14.5504 123.285 14.1629 124.487 12.9326C125.332 12.0477 125.832 10.9883 126.05 9.90816C126.4 8.17843 125.744 7.18347 124.875 6.66308C123.855 6.05635 122.313 6.03278 119.866 6.00757L114.732 6.01977ZM117.174 12.7281L116.794 12.7265L117.999 10.1776L118.508 9.07551H118.984C119.816 9.07765 120.237 9.12099 120.525 9.33752C120.862 9.55355 120.993 9.96584 120.91 10.3763C120.88 10.5271 120.659 11.262 120.151 11.7798C119.243 12.7077 118.109 12.7281 117.237 12.7281H117.174ZM142.639 21.3578H147.291L151.1 12.1967L154.049 21.327H157.41L164.299 6.0107L159.981 6.01598L156.25 14.3392C155.898 13.3658 153.588 6.01598 153.588 6.01598L149.485 6.00774C148.533 8.36249 142.639 21.3578 142.639 21.3578ZM72.0787 13.2704L70.41 16.8137L68.3107 21.2568L79.5363 21.2601L81.3512 17.8547L74.9825 17.8585L75.8667 15.9575L76.3663 14.8983L81.4621 14.9072L83.0527 11.8739L77.6922 11.8734L78.9612 9.12923L84.4336 9.12874L86.0839 5.93424L75.2684 5.92963C73.9818 8.99856 73.5931 9.90025 72.0787 13.2704ZM165.518 7.47711C165.518 8.27911 166.169 8.86442 166.94 8.86442C167.702 8.86442 168.353 8.27911 168.353 7.47711C168.353 6.68269 167.702 6.09573 166.94 6.09573C166.169 6.09573 165.518 6.68269 165.518 7.47711ZM165.8 7.47711C165.8 6.82127 166.299 6.32643 166.94 6.32643C167.572 6.32643 168.072 6.82127 168.072 7.47711C168.072 8.143 167.572 8.63373 166.94 8.63373C166.299 8.63373 165.8 8.143 165.8 7.47711ZM166.399 6.68269V8.27911H166.643V7.58702H166.924L167.35 8.27911H167.624L167.165 7.57598C167.402 7.54632 167.583 7.42224 167.583 7.13601C167.583 6.82127 167.394 6.68269 167.014 6.68269H166.399ZM166.643 6.88669H166.977C167.146 6.88669 167.328 6.92426 167.328 7.122C167.328 7.36687 167.143 7.38137 166.935 7.38137H166.643V6.88669Z" fill="black"/>
</g>
<defs>
<clipPath id="clip0_951_710">
<rect width="168" height="26" fill="white" transform="translate(0.351562)"/>
</clipPath>
</defs>
</svg>
