<svg width="56" height="56" viewBox="0 0 56 56" fill="none" xmlns="http://www.w3.org/2000/svg">
<g style="mix-blend-mode:luminosity" opacity="0.5" clip-path="url(#clip0_951_729)">
<path d="M43.2416 26.8274C42.4306 26.8834 41.682 26.9341 40.9335 26.9877C40.6655 27.007 40.398 27.0405 40.1298 27.0544C39.7148 27.0762 39.389 27.2542 39.2097 27.6269C38.8081 28.4606 38.4159 29.2997 38.0436 30.1469C37.8801 30.5188 37.7653 30.9134 37.6437 31.3027C37.5293 31.6686 37.5378 32.0387 37.7022 32.3898C37.9067 32.8262 37.8337 33.2299 37.6166 33.6399C37.4663 33.9243 37.3244 34.2204 37.235 34.5275C37.1435 34.8417 37.3001 35.1157 37.5703 35.2461C37.862 35.3869 38.0563 35.3305 38.2142 35.0469C38.4025 34.7062 38.5875 34.3636 38.769 34.0192C39.056 33.4778 39.1036 32.9143 38.8443 32.3579C38.6203 31.8775 38.6233 31.4001 38.8014 30.927C39.0975 30.1398 39.4163 29.3608 39.7426 28.5856C39.8746 28.2726 40.127 28.1128 40.4818 28.0865C41.3225 28.0247 42.1619 27.9391 43.0017 27.8658C43.0722 27.8597 43.1445 27.8734 43.2612 27.8806C43.2223 28.4324 43.2071 28.9686 43.1431 29.4988C42.7276 32.9456 41.3585 35.9612 38.9422 38.4561C35.8092 41.6902 31.9633 43.3128 27.4643 43.0586C22.0704 42.754 17.9601 40.1565 15.2671 35.4938C11.2861 28.6011 13.1943 19.8957 19.6155 15.1985C21.098 14.1141 22.7364 13.3461 24.5139 12.879C24.5652 12.8656 24.6191 12.8613 24.6831 12.851C24.6831 13.0768 24.689 13.2885 24.6822 13.4995C24.6466 14.6587 24.6307 15.8189 24.4012 16.9633C24.3478 17.23 24.2424 17.4328 24.0304 17.6161C22.791 18.6881 21.8876 19.9718 21.5913 21.6217C21.4685 22.3048 21.4826 22.9872 21.5887 23.6724C21.605 23.7772 21.564 23.9397 21.4885 24.0033C19.3252 25.8317 17.099 27.574 14.6243 28.9715C14.464 29.0621 14.301 29.1479 14.1032 29.2556C14.5234 29.4978 14.9555 29.5361 15.3849 29.5469C16.5098 29.5754 17.5947 29.3315 18.6657 29.0187C20.2808 28.5468 21.8231 27.8893 23.3321 27.1514C23.5169 27.0608 23.6331 27.0735 23.7959 27.2029C24.7182 27.9349 25.6515 28.6531 26.5827 29.374C27.0065 29.7022 27.0474 30.0987 26.6846 30.4925C26.591 30.5941 26.4889 30.6958 26.3722 30.7674C24.5874 31.8639 22.7997 32.9559 21.0093 34.0434C20.79 34.1762 20.546 34.2686 20.3116 34.431C20.5062 34.4577 20.7001 34.4928 20.8956 34.5096C22.8858 34.6815 24.8163 34.3656 26.7041 33.7608C27.4171 33.5321 28.1099 33.2377 28.8069 32.9606C28.9496 32.904 29.0351 32.9037 29.1393 33.0269C29.8058 33.8145 30.4314 34.6231 30.8606 35.577C31.0911 36.0893 31.4177 36.559 31.7106 37.0423C31.8763 37.3161 32.1342 37.4592 32.4529 37.4609C33.1661 37.4646 33.8818 37.4902 34.5923 37.4445C35.3659 37.3955 36.1901 36.5731 36.3132 35.7967C36.3276 35.6958 36.3226 35.5932 36.2986 35.4942C36.1986 35.0692 35.8751 34.9768 35.564 35.2851C35.3069 35.5398 35.0737 35.8204 34.8017 36.0568C34.6653 36.1755 34.4724 36.2589 34.293 36.2911C34.0121 36.3412 33.7185 36.317 33.4345 36.3545C32.7938 36.4387 32.3725 36.1047 32.0386 35.6263C31.8921 35.416 31.7972 35.1685 31.6859 34.9348C31.3231 34.1729 30.9752 33.4035 30.5957 32.6497C30.4722 32.4042 30.4952 32.2671 30.6869 32.0602C32.831 29.7481 33.8877 27.0074 33.7987 23.8531C33.7667 22.7247 33.3414 21.7505 32.3075 21.1506C31.7213 20.8108 31.0778 20.6716 30.4077 20.7318C29.1247 20.847 28.3476 21.9361 28.5516 23.3383C28.6558 24.0529 28.8438 24.756 28.9313 25.4718C29.0388 26.3506 29.0482 27.2375 28.6975 28.0769C28.617 28.2696 28.4735 28.4716 28.3027 28.5837C27.9716 28.8009 27.7191 28.7515 27.419 28.4836C26.4575 27.6246 25.4976 26.7637 24.5394 25.9009C23.6185 25.0723 22.9946 24.0811 22.8719 22.8194C22.7652 21.7251 23.0701 20.7269 23.5849 19.778C23.9446 19.1158 24.3752 18.5316 25.08 18.1822C25.5783 17.935 25.7939 17.4697 25.8424 16.9314C25.8671 16.6552 25.8558 16.3756 25.8642 16.0976C25.899 14.9313 25.935 13.7649 25.9718 12.5612C30.1317 12.0045 33.8738 12.8794 37.1698 15.3912C40.9204 18.2501 42.8586 22.1065 43.2416 26.8274ZM48.0227 8.20393C50.1346 10.3401 51.8462 12.7446 53.1903 15.4561C52.753 15.6734 52.3246 15.8871 51.8952 16.0992C50.1833 16.9442 48.4719 17.7905 46.7579 18.6317C46.4941 18.7609 46.2856 18.9308 46.2242 19.2288C46.1636 19.5226 46.2389 19.7827 46.4664 19.9864C46.7111 20.2057 46.9934 20.251 47.2953 20.1324C47.994 19.8583 48.6904 19.578 49.3875 19.2995C50.8679 18.7083 52.3478 18.1164 53.8282 17.5254C53.896 17.4984 53.9659 17.4774 54.0693 17.4419C55.1897 20.2343 55.812 23.1251 56.004 26.1389C55.2825 26.1821 54.5719 26.2261 53.8612 26.2669C51.6858 26.3908 49.5099 26.5085 47.335 26.639C46.2901 26.7017 45.3871 26.0273 45.2126 24.9947C44.7116 22.0231 43.5306 19.3588 41.6582 16.9978C41.0199 16.1933 41.0658 15.0947 41.7796 14.3806C43.8065 12.3537 45.8466 10.3401 47.882 8.32161C47.9204 8.28366 47.9653 8.2518 48.0227 8.20393ZM9.12891 7.77047C11.2993 5.68238 13.717 4.00285 16.4376 2.69812C16.4973 2.81562 16.5564 2.92651 16.6107 3.03984C17.5855 5.08215 18.5586 7.12498 19.535 9.1666C19.7748 9.66812 20.1815 9.85665 20.6079 9.67595C21.0452 9.49108 21.1951 9.05832 20.9921 8.52772C20.1896 6.43214 19.3835 4.33761 18.5791 2.24255C18.5329 2.12209 18.489 2.00093 18.4306 1.84356C21.2393 0.762173 24.1307 0.166122 27.1535 0.0252911C27.1789 0.535172 27.2056 1.02277 27.2265 1.51072C27.3288 3.90328 27.431 6.29584 27.5304 8.68857C27.5771 9.8194 26.8954 10.6506 25.7715 10.8242C23.3253 11.2019 21.0667 12.0682 18.9984 13.4269C18.5882 13.6967 18.1961 13.9944 17.7994 14.2846C17.0027 14.8674 15.9141 14.8099 15.2285 14.1056C13.2229 12.0441 11.2304 9.96998 9.23326 7.90068C9.20195 7.86831 9.17639 7.83036 9.12891 7.77047ZM36.6924 4.81494L36.1936 6.19191C36.5004 6.31203 36.7793 6.43702 37.0684 6.53067C37.4288 6.64748 37.8196 6.44711 37.9573 6.09895C38.0949 5.75131 37.9469 5.34049 37.6003 5.17807C37.3168 5.04525 37.0187 4.94376 36.6924 4.81494ZM39.6611 14.9078C38.3502 13.7533 36.8973 12.8202 35.292 12.0957C35.6929 11.1929 36.0837 10.3122 36.475 9.43207C36.712 8.89921 36.5903 8.60327 36.0428 8.38776C35.8635 8.31726 35.6826 8.25041 35.4737 8.17086L34.2022 11.6542C32.5437 11.0629 30.855 10.7175 29.0929 10.6404L29.5562 0.00335693C30.3261 0.075078 31.0653 0.122254 31.7991 0.215735C36.1595 0.771747 40.1682 2.27441 43.8204 4.72424C44.1282 4.93105 44.4343 5.14203 44.729 5.36695C45.7671 6.15988 45.9675 7.66428 45.1612 8.69327C44.8528 9.08687 44.5218 9.46706 44.1677 9.82009C43.666 10.3204 43.0517 10.4496 42.3706 10.2565C42.2913 10.2342 42.213 10.2085 42.1337 10.1857C42.1273 10.1839 42.1175 10.1931 42.0972 10.2036C42.3647 10.6127 42.5247 11.0554 42.3796 11.5423C42.3097 11.7768 42.212 12.0257 42.0563 12.2078C41.3041 13.09 40.5277 13.9521 39.7593 14.8209C39.7355 14.8479 39.7051 14.8691 39.6611 14.9078Z" fill="#231F20"/>
<path d="M8.18141 18.9374C7.45268 18.6206 6.75108 18.3107 6.04513 18.0106C5.55606 17.8025 5.06769 17.9885 4.88629 18.4383C4.69585 18.9097 4.91829 19.3827 5.43223 19.571C5.97956 19.7716 6.53142 19.9598 7.08153 20.1532C7.26137 20.2165 7.4412 20.2794 7.62765 20.3446L8.18141 18.9374ZM15.4753 16.4978C14.3193 17.8365 13.409 19.2934 12.6978 20.8991L10.381 19.8962C10.2153 20.3175 10.0577 20.718 9.88915 21.1475C10.6961 21.4353 11.4692 21.711 12.267 21.9958C11.6938 23.6482 11.3626 25.3324 11.3 27.1059C11.1892 27.1059 11.092 27.1089 10.9951 27.1054C8.36281 27.0133 5.73016 26.928 3.0982 26.8243C1.78387 26.7724 0.748171 25.5671 0.897917 24.2475C1.17341 21.8181 1.80979 19.4784 2.73105 17.2157C3.5257 15.2657 4.53393 13.4324 5.74773 11.7125C6.68743 10.3812 8.23046 10.1867 9.45609 11.2502C11.3831 12.922 13.3067 14.5983 15.2312 16.2729C15.3075 16.3394 15.3799 16.4099 15.4753 16.4978ZM47.713 34.0549C47.6229 34.0549 47.5498 34.0519 47.4768 34.0556C47.1728 34.0705 46.9253 34.2899 46.8802 34.582C46.8369 34.8636 46.9795 35.1228 47.2411 35.237C47.5196 35.3589 47.8387 35.2816 48.0017 35.0196C48.2024 34.697 48.3777 34.3585 48.5621 34.026C49.448 32.4279 50.3361 30.8309 51.2178 29.2307C51.6471 28.4514 52.3076 28.1093 53.1851 28.1234C53.7992 28.1332 54.3898 28.2035 54.897 28.5886C55.6193 29.1371 55.9656 29.8696 55.865 30.7707C55.3645 35.2605 53.8514 39.3831 51.3451 43.1403C50.4769 44.4422 48.9064 44.6731 47.7032 43.6784C47.3679 43.4011 47.0329 43.1229 46.6691 42.8215C48.2535 40.8828 49.5098 38.7625 50.4303 36.4398C50.5635 36.4398 50.6856 36.4591 50.799 36.4359C51.0634 36.3818 51.2622 36.1478 51.2865 35.8928C51.3125 35.6202 51.166 35.3749 50.9138 35.2698C50.6533 35.161 50.366 35.2207 50.1841 35.4449C49.7346 35.9999 49.2929 36.5614 48.8487 37.1208C48.0869 38.0796 47.3255 39.0384 46.564 39.9976C45.8019 40.9575 44.5615 41.0867 43.6143 40.3038C43.3068 40.05 42.9948 39.8009 42.6927 39.541C42.0466 38.9852 41.9184 38.1115 42.4004 37.4083C43.9936 35.0844 44.9556 32.5237 45.3052 29.7297C45.3282 29.5458 45.3362 29.3564 45.3892 29.181C45.5776 28.5586 45.9911 28.1248 46.6378 28.062C47.3147 27.9962 48.0029 28.0473 48.7214 28.0473C48.6873 30.1248 48.3473 32.1121 47.713 34.0549ZM11.6891 31.394C12.1007 33.2137 12.7731 34.9032 13.7304 36.5092C11.8958 37.6129 10.0613 38.7166 8.22681 39.8204L10.2311 42.6678L7.00049 45.3337C5.16422 43.1105 3.7231 40.6713 2.65627 38.011C1.51882 35.1751 0.879656 32.2277 0.703125 29.1463L4.87986 28.9282L5.40771 32.7848L11.6891 31.394ZM46.6498 46.3914L47.7761 47.4653C42.8981 52.1552 37.125 54.8197 30.4004 55.3299C21.6124 55.9966 13.9076 52.4304 8.97902 47.4702L10.0921 46.4215C15.176 51.2523 21.2696 53.8346 28.3671 53.8318C35.4553 53.8288 41.5401 51.2476 46.6498 46.3914Z" fill="#231F20"/>
<path d="M12.1016 44.2347L13.2256 43.1457C17.4497 47.168 22.4878 49.3026 28.3464 49.3047C34.2068 49.3064 39.2468 47.1758 43.4948 43.1346C43.5308 43.1612 43.5614 43.18 43.5873 43.2037C43.9412 43.5301 44.2943 43.857 44.647 44.1832C36.0532 52.967 21.1025 53.2899 12.1016 44.2347ZM24.3465 33.3579C25.0669 32.8903 25.7459 32.4901 26.3811 32.0293C27.7479 31.0381 28.8554 29.8195 29.4866 28.2239C30.0585 26.778 30.1404 25.3059 29.6798 23.8109C29.6285 23.644 29.6014 23.4664 29.5873 23.2922C29.5336 22.6162 29.8025 22.1304 30.3406 21.9102C30.967 21.6537 31.5937 21.8048 32.0217 22.3187C32.4391 22.8201 32.6095 23.4247 32.6177 24.0508C32.6492 26.552 32.0234 28.83 30.2106 30.6573C28.8125 32.0665 27.0785 32.838 25.1572 33.2273C24.9059 33.2783 24.6502 33.3095 24.3465 33.3579ZM22.8746 26.191C21.0408 27.2431 19.2251 28.2258 17.1076 28.4648C18.7925 27.3303 20.4775 26.1955 22.1763 25.0518L22.8746 26.191Z" fill="#231F20"/>
</g>
<defs>
<clipPath id="clip0_951_729">
<rect width="55.3" height="56" fill="white" transform="translate(0.703125)"/>
</clipPath>
</defs>
</svg>
