<svg width="81" height="80" viewBox="0 0 81 80" fill="none" xmlns="http://www.w3.org/2000/svg">
<g style="mix-blend-mode:luminosity" opacity="0.5" clip-path="url(#clip0_951_298)">
<path fill-rule="evenodd" clip-rule="evenodd" d="M13.2708 45.4851C13.2484 45.4597 13.2455 45.4519 13.2455 45.4382C13.2455 45.4294 13.2596 45.4211 13.2708 45.4211C13.3156 45.4211 13.4223 45.4543 13.4675 45.4714C13.5011 45.4884 13.5148 45.5021 13.5148 45.5444C13.5148 45.7453 13.3717 45.9823 13.2733 46.1006C13.2621 46.1176 13.2509 46.1234 13.2368 46.1234C13.231 46.1234 13.2227 46.1176 13.2227 46.1089C13.2227 46.1005 13.2256 46.0918 13.2339 46.0723C13.2762 45.9823 13.3264 45.8299 13.3264 45.6685C13.3274 45.6031 13.3079 45.539 13.2708 45.4851ZM13.6356 45.4851C13.6136 45.4597 13.6107 45.4519 13.6107 45.4382C13.6107 45.4294 13.6248 45.4211 13.6356 45.4211C13.6809 45.4211 13.7875 45.4543 13.8328 45.4714C13.8664 45.4884 13.8801 45.5021 13.8801 45.5444C13.8801 45.7453 13.7373 45.9823 13.6389 46.1006C13.6277 46.1176 13.6161 46.1234 13.602 46.1234C13.5984 46.123 13.595 46.1213 13.5925 46.1186C13.59 46.116 13.5885 46.1125 13.5883 46.1089C13.5883 46.1005 13.5912 46.0918 13.5995 46.0723C13.6414 45.9823 13.6921 45.8299 13.6921 45.6685C13.6924 45.603 13.6727 45.539 13.6356 45.4851ZM14.5682 46.594C14.5682 45.9765 14.9193 45.666 15.3883 45.666C15.832 45.666 16.242 46.03 16.242 46.7069C16.242 47.5283 15.7195 47.6739 15.4672 47.6739C14.9608 47.6735 14.5682 47.2514 14.5682 46.594ZM16.3117 47.9474C16.7666 48.1985 17.1289 48.3251 17.4684 48.3251C17.7757 48.3248 18.0793 48.2584 18.3587 48.1305C18.3757 48.1222 18.3811 48.1135 18.3811 48.1023C18.3812 48.1 18.3807 48.0978 18.3799 48.0957C18.3791 48.0936 18.3778 48.0917 18.3762 48.0901C18.3746 48.0885 18.3727 48.0872 18.3707 48.0864C18.3686 48.0856 18.3663 48.0852 18.3641 48.0852C18.3558 48.0852 18.3417 48.091 18.3247 48.0964C18.1484 48.1662 17.961 48.2036 17.7714 48.2068C17.6311 48.2068 17.2045 48.1923 16.5894 47.8736L16.0137 47.5752C16.1665 47.4686 16.2914 47.3269 16.3779 47.162C16.4644 46.9971 16.5101 46.8139 16.511 46.6276C16.511 45.9735 16.0391 45.5697 15.4074 45.5697C14.6325 45.5697 14.3013 46.2151 14.3013 46.6721C14.3013 47.1796 14.6213 47.781 15.3991 47.781C15.5481 47.781 15.739 47.7379 15.8399 47.6847L16.3117 47.9474Z" fill="black"/>
<path fill-rule="evenodd" clip-rule="evenodd" d="M17.1542 46.4276C17.1542 45.9868 17.1542 45.908 17.1488 45.8179C17.143 45.7225 17.1206 45.6768 17.0276 45.6573C16.9963 45.6514 16.9645 45.6485 16.9326 45.6486C16.9214 45.6486 16.9102 45.6428 16.9102 45.6316C16.9102 45.6146 16.9243 45.6087 16.955 45.6087C17.0816 45.6087 17.2526 45.6175 17.2779 45.6175C17.3032 45.6175 17.4717 45.6087 17.5559 45.6087C17.5867 45.6087 17.6004 45.6146 17.6004 45.6316C17.6004 45.6428 17.5896 45.6486 17.5779 45.6486C17.5584 45.6486 17.5418 45.6519 17.5078 45.6573C17.4319 45.6677 17.4094 45.7187 17.404 45.8179C17.3982 45.908 17.3982 45.9864 17.3982 46.4276V46.8215C17.3982 47.2282 17.4883 47.4025 17.6087 47.5187C17.7464 47.6482 17.873 47.6735 18.0324 47.6735C18.116 47.673 18.1986 47.6546 18.2746 47.6197C18.3506 47.5848 18.4183 47.5341 18.4732 47.471C18.6022 47.3096 18.6359 47.0705 18.6359 46.7796V46.4276C18.6359 45.9868 18.6359 45.908 18.6305 45.8179C18.6251 45.7225 18.6022 45.6768 18.5101 45.6573C18.4786 45.6514 18.4467 45.6485 18.4146 45.6486C18.403 45.6486 18.3922 45.6428 18.3922 45.6316C18.3922 45.6146 18.4063 45.6087 18.4371 45.6087C18.5632 45.6087 18.718 45.6175 18.7346 45.6175C18.7541 45.6175 18.8861 45.6087 18.9704 45.6087C19.0015 45.6087 19.0152 45.6146 19.0152 45.6316C19.0152 45.6428 19.0044 45.6486 18.9928 45.6486C18.9729 45.6486 18.9563 45.6486 18.9226 45.6573C18.8467 45.671 18.8243 45.7187 18.8185 45.8179C18.8131 45.908 18.8131 45.9864 18.8131 46.4276V46.7293C18.8131 47.0331 18.779 47.3722 18.5545 47.5723C18.3524 47.7532 18.1416 47.7814 17.976 47.7814C17.8805 47.7814 17.597 47.7702 17.3974 47.5806C17.2596 47.4486 17.1534 47.2514 17.1534 46.8389V46.4276H17.1542ZM19.7602 46.4276C19.7602 45.9868 19.7602 45.908 19.7544 45.8179C19.7486 45.7225 19.7266 45.6768 19.6336 45.6573C19.6021 45.6514 19.5702 45.6485 19.5381 45.6486C19.5269 45.6486 19.5153 45.6428 19.5153 45.6316C19.5153 45.6146 19.5294 45.6087 19.5601 45.6087C19.6867 45.6087 19.8631 45.6175 19.8776 45.6175C19.8971 45.6175 20.4562 45.6175 20.5205 45.6141C20.5741 45.6117 20.6189 45.6058 20.6417 45.6004C20.6554 45.598 20.667 45.5868 20.6807 45.5868C20.689 45.5868 20.6919 45.598 20.6919 45.6121C20.6919 45.6316 20.6778 45.6656 20.6695 45.7449C20.6666 45.7723 20.6608 45.8964 20.6554 45.9304C20.6525 45.9441 20.6471 45.9611 20.6355 45.9611C20.6189 45.9611 20.6131 45.9474 20.6131 45.9246C20.6135 45.8901 20.6077 45.8558 20.5961 45.8233C20.5766 45.7781 20.5483 45.7449 20.3968 45.7279C20.2688 45.7222 20.1407 45.7193 20.0125 45.7191C20.0013 45.7191 19.9955 45.7279 19.9955 45.7474V46.5256C19.9955 46.5451 19.9984 46.5538 20.0125 46.5538C20.049 46.5538 20.3939 46.5538 20.4587 46.548C20.5263 46.5422 20.5658 46.5368 20.5911 46.509C20.6106 46.4861 20.6218 46.4716 20.6334 46.4716C20.6421 46.4716 20.6475 46.4774 20.6475 46.4944C20.6475 46.5114 20.6334 46.5592 20.6251 46.6526C20.6196 46.7125 20.6158 46.7725 20.6139 46.8327C20.6139 46.8555 20.6139 46.887 20.594 46.887C20.5803 46.887 20.5749 46.8758 20.5749 46.8613C20.5749 46.8331 20.5749 46.8053 20.5633 46.7679C20.5521 46.7289 20.5267 46.6804 20.4172 46.67C20.2836 46.6613 20.1497 46.6565 20.0158 46.6555C20.0017 46.6555 19.9963 46.6642 19.9963 46.6758V46.924C19.9963 47.0194 19.9934 47.3473 19.9963 47.4063C20.0051 47.6009 20.047 47.6374 20.3221 47.6374C20.3948 47.6374 20.5184 47.6374 20.5915 47.6067C20.6645 47.576 20.6982 47.5191 20.7177 47.4034C20.7231 47.3726 20.7289 47.361 20.743 47.361C20.7596 47.361 20.7596 47.3838 20.7596 47.4034C20.7596 47.4262 20.7376 47.6183 20.7231 47.6773C20.7036 47.7503 20.6811 47.7503 20.5716 47.7503C20.1478 47.7503 19.9594 47.7333 19.8781 47.7333C19.8727 47.7333 19.8249 47.7358 19.7656 47.7358C19.7113 47.7394 19.6569 47.7416 19.6025 47.7424C19.5718 47.7424 19.5576 47.7358 19.5576 47.7196C19.5576 47.7109 19.5635 47.7026 19.5801 47.7026C19.6054 47.7026 19.639 47.6968 19.6643 47.6914C19.7203 47.6802 19.7349 47.6183 19.7461 47.5366C19.7602 47.4183 19.7602 47.1954 19.7602 46.9244V46.4276ZM21.8096 45.7499C21.8096 45.7328 21.8183 45.7225 21.832 45.7167C21.8602 45.7079 21.9358 45.6996 22.0205 45.6996C22.3209 45.6996 22.506 45.9113 22.506 46.2637C22.506 46.4778 22.4334 46.6301 22.335 46.6982C22.2703 46.7426 22.1914 46.7518 22.1242 46.7518C22.0009 46.7518 21.8715 46.7314 21.8295 46.7065C21.8234 46.7033 21.8182 46.6984 21.8147 46.6923C21.8112 46.6863 21.8094 46.6794 21.8096 46.6725V45.7499ZM21.5851 46.924C21.5851 47.1946 21.5851 47.4175 21.5714 47.5362C21.5602 47.6179 21.5461 47.6798 21.49 47.691C21.4623 47.6975 21.4339 47.7013 21.4054 47.7022C21.3888 47.7022 21.3834 47.7105 21.3834 47.7192C21.3834 47.7354 21.3971 47.742 21.4282 47.742C21.5125 47.742 21.6893 47.7333 21.6922 47.7333C21.7059 47.7333 21.8827 47.742 22.0375 47.742C22.0686 47.742 22.0827 47.7333 22.0827 47.7192C22.0827 47.7105 22.0769 47.7022 22.0603 47.7022C22.0346 47.7022 21.9731 47.6964 21.9337 47.691C21.8495 47.6798 21.8324 47.6179 21.8241 47.5362C21.81 47.4179 21.81 47.195 21.81 46.924V46.8559C21.81 46.8422 21.8158 46.8331 21.83 46.8331L22.1753 46.8389C22.1919 46.8389 22.2006 46.8447 22.2114 46.8559C22.2678 46.9298 22.3998 47.1186 22.5177 47.2734C22.6774 47.4851 22.7762 47.6237 22.8966 47.6885C22.9696 47.7275 23.0398 47.742 23.1971 47.742H23.3959C23.4465 47.742 23.4631 47.7354 23.4631 47.7192C23.4631 47.7105 23.4523 47.7022 23.4382 47.7022C23.4212 47.7022 23.3822 47.7022 23.3286 47.6939C23.2585 47.6827 23.1377 47.6507 22.9858 47.4905C22.8231 47.3154 22.6322 47.0651 22.4019 46.7683C22.6546 46.5351 22.7414 46.3259 22.7414 46.1176C22.7414 45.9229 22.6181 45.7843 22.5475 45.7333C22.399 45.627 22.2105 45.6092 22.0337 45.6092C21.9466 45.6092 21.7332 45.6179 21.7025 45.6179C21.6884 45.6179 21.5116 45.6092 21.385 45.6092C21.3543 45.6092 21.3402 45.615 21.3402 45.632C21.3402 45.6432 21.3514 45.649 21.363 45.649C21.3949 45.6491 21.4267 45.652 21.4581 45.6577C21.551 45.6772 21.573 45.7225 21.5789 45.8183C21.5847 45.9084 21.5847 45.9868 21.5847 46.428L21.5851 46.924ZM23.8142 46.4276C23.8142 45.9868 23.8142 45.908 23.8088 45.8179C23.8026 45.7225 23.7806 45.6768 23.6876 45.6573C23.6562 45.6514 23.6242 45.6485 23.5922 45.6486C23.581 45.6486 23.5698 45.6428 23.5698 45.6316C23.5698 45.6146 23.5839 45.6087 23.6146 45.6087C23.7412 45.6087 23.918 45.6175 23.9317 45.6175C23.9516 45.6175 24.5106 45.6175 24.575 45.6141C24.6285 45.6117 24.6733 45.6058 24.6958 45.6004C24.7094 45.598 24.7211 45.5868 24.7352 45.5868C24.7439 45.5868 24.7464 45.598 24.7464 45.6121C24.7464 45.6316 24.7323 45.6656 24.7236 45.7449C24.7211 45.7723 24.7148 45.8964 24.7094 45.9304C24.707 45.9441 24.7011 45.9611 24.6899 45.9611C24.6733 45.9611 24.6675 45.9474 24.6675 45.9246C24.6677 45.8901 24.662 45.8558 24.6505 45.8233C24.631 45.7781 24.6032 45.7449 24.4513 45.7279C24.3231 45.7222 24.1949 45.7193 24.0666 45.7191C24.0554 45.7191 24.05 45.7279 24.05 45.7474V46.5256C24.05 46.5451 24.0525 46.5538 24.0666 46.5538C24.1031 46.5538 24.4484 46.5538 24.5127 46.548C24.5804 46.5422 24.6198 46.5368 24.6447 46.509C24.6646 46.4861 24.6754 46.4716 24.687 46.4716C24.6958 46.4716 24.7011 46.4774 24.7011 46.4944C24.7011 46.5114 24.687 46.5592 24.6787 46.6526C24.6735 46.7125 24.6699 46.7726 24.6679 46.8327C24.6679 46.8555 24.6679 46.887 24.6484 46.887C24.6339 46.887 24.6289 46.8758 24.6289 46.8613C24.6289 46.8331 24.6289 46.8053 24.6177 46.7679C24.6069 46.7289 24.5812 46.6804 24.4716 46.67C24.3379 46.6613 24.2039 46.6564 24.0699 46.6555C24.0558 46.6555 24.0504 46.6642 24.0504 46.6758V46.924C24.0504 47.0194 24.0475 47.3473 24.0504 47.4063C24.0587 47.6009 24.101 47.6374 24.3758 47.6374C24.4488 47.6374 24.5729 47.6374 24.6451 47.6067C24.7182 47.576 24.7522 47.5191 24.7717 47.4034C24.7771 47.3726 24.7829 47.361 24.797 47.361C24.814 47.361 24.814 47.3838 24.814 47.4034C24.814 47.4262 24.7916 47.6183 24.7775 47.6773C24.758 47.7503 24.7356 47.7503 24.626 47.7503C24.2023 47.7503 24.0139 47.7333 23.9321 47.7333C23.9267 47.7333 23.879 47.7358 23.82 47.7358C23.7657 47.7394 23.7113 47.7416 23.6569 47.7424C23.6262 47.7424 23.6125 47.7358 23.6125 47.7196C23.6125 47.7109 23.6183 47.7026 23.6349 47.7026C23.6602 47.7026 23.6934 47.6968 23.7192 47.6914C23.7756 47.6802 23.7897 47.6183 23.8005 47.5366C23.8146 47.4183 23.8146 47.1954 23.8146 46.9244L23.8142 46.4276ZM27.7284 47.3776C27.74 47.4789 27.7595 47.637 27.8803 47.6769C27.9616 47.7022 28.0347 47.7022 28.0625 47.7022C28.0766 47.7022 28.0849 47.7047 28.0849 47.7159C28.0849 47.7329 28.0596 47.7416 28.026 47.7416C27.9645 47.7416 27.6612 47.7329 27.557 47.7246C27.4927 47.7188 27.4785 47.7101 27.4785 47.6964C27.4785 47.6852 27.4839 47.6793 27.4981 47.6769C27.5122 47.6735 27.5151 47.6258 27.5088 47.5756L27.3744 46.1197H27.3661L26.6775 47.586C26.6186 47.7101 26.6103 47.735 26.585 47.735C26.5655 47.735 26.5509 47.7076 26.4978 47.6059C26.4248 47.4673 26.1836 46.9792 26.1691 46.9518C26.1438 46.9007 25.8292 46.2238 25.7981 46.1475H25.7873L25.6748 47.4565C25.6715 47.5009 25.6715 47.5519 25.6715 47.6001C25.6719 47.6208 25.6794 47.6408 25.6927 47.6567C25.7059 47.6726 25.7242 47.6835 25.7445 47.6876C25.7927 47.6989 25.8346 47.7013 25.8516 47.7013C25.8628 47.7013 25.8736 47.7072 25.8736 47.715C25.8736 47.7345 25.857 47.7408 25.823 47.7408C25.7192 47.7408 25.5843 47.7321 25.5623 47.7321C25.5366 47.7321 25.4017 47.7408 25.3262 47.7408C25.298 47.7408 25.2785 47.7341 25.2785 47.715C25.2785 47.7067 25.2926 47.7013 25.3063 47.7013C25.3287 47.7013 25.3486 47.7013 25.3905 47.693C25.4835 47.676 25.4918 47.5656 25.503 47.459L25.7047 45.6195C25.7105 45.5888 25.7184 45.5693 25.7354 45.5693C25.7524 45.5693 25.7636 45.5805 25.7777 45.6117L26.6369 47.3851L27.4624 45.6137C27.4736 45.5884 27.4848 45.5693 27.5047 45.5693C27.5242 45.5693 27.5325 45.5921 27.5383 45.6449L27.7284 47.3776ZM28.6469 46.594C28.6469 45.9765 28.998 45.666 29.467 45.666C29.9106 45.666 30.3207 46.03 30.3207 46.7069C30.3207 47.5283 29.7986 47.6739 29.5458 47.6739C29.0399 47.6735 28.6469 47.2514 28.6469 46.594ZM28.38 46.6725C28.38 47.1801 28.7 47.7814 29.4695 47.7814C30.146 47.7814 30.59 47.2593 30.59 46.6281C30.59 45.9707 30.1182 45.5702 29.4865 45.5702C28.7116 45.5702 28.38 46.2155 28.38 46.6725ZM31.2022 47.7042C31.1628 47.6847 31.1595 47.6735 31.1595 47.598C31.1595 47.4569 31.1711 47.3436 31.174 47.2988C31.1765 47.2672 31.1823 47.2535 31.1964 47.2535C31.213 47.2535 31.2155 47.2618 31.2155 47.2842C31.2155 47.3096 31.2155 47.349 31.2242 47.3888C31.2665 47.598 31.4516 47.6764 31.6401 47.6764C31.9094 47.6764 32.0414 47.481 32.0414 47.3013C32.0414 47.1066 31.9601 46.9941 31.7185 46.7937L31.5919 46.6891C31.2944 46.4434 31.2271 46.2682 31.2271 46.0769C31.2271 45.7752 31.4516 45.5693 31.8082 45.5693C31.9177 45.5693 31.9991 45.5805 32.0692 45.5975C32.1223 45.6079 32.1452 45.6112 32.1676 45.6112C32.19 45.6112 32.1954 45.6171 32.1954 45.6307C32.1954 45.6444 32.1846 45.7387 32.1846 45.93C32.1846 45.9752 32.1788 45.9947 32.1647 45.9947C32.1481 45.9947 32.1452 45.981 32.1423 45.9582C32.1373 45.9096 32.1251 45.8621 32.1062 45.8171C32.0887 45.7864 32.0132 45.6673 31.7546 45.6673C31.5608 45.6673 31.4093 45.7889 31.4093 45.9947C31.4093 46.1553 31.4878 46.2516 31.7521 46.4691L31.831 46.5305C32.1622 46.7933 32.2406 46.9676 32.2406 47.1938C32.2406 47.3087 32.1954 47.5237 32.002 47.6615C31.8812 47.7466 31.7297 47.7806 31.5782 47.7806C31.4486 47.7849 31.3199 47.7588 31.2022 47.7042ZM34.3548 46.3824C34.3548 46.1653 34.3548 45.8773 34.3577 45.7818C34.3577 45.7503 34.3664 45.7366 34.3917 45.725C34.4142 45.7138 34.5179 45.7055 34.5739 45.7055C34.908 45.7055 35.2284 45.7453 35.492 46.0242C35.6074 46.1458 35.7618 46.377 35.7618 46.7343C35.7618 46.9945 35.6833 47.2651 35.5372 47.4087C35.3716 47.5756 35.1305 47.6715 34.869 47.6715C34.5374 47.6715 34.4283 47.6121 34.3917 47.559C34.3689 47.5283 34.3635 47.4146 34.361 47.344C34.3558 47.14 34.3537 46.9359 34.3548 46.7318V46.3824ZM34.1191 46.924C34.1191 47.1946 34.1191 47.4175 34.105 47.5362C34.0937 47.6179 34.0796 47.6798 34.0236 47.691C33.996 47.6975 33.9677 47.7013 33.9394 47.7022C33.9223 47.7022 33.9169 47.7105 33.9169 47.7192C33.9169 47.7354 33.9311 47.742 33.9622 47.742C34.046 47.742 34.2228 47.7333 34.2373 47.7333C34.2656 47.7333 34.6192 47.7673 34.8607 47.7673C35.3376 47.7673 35.5908 47.5694 35.7115 47.4432C35.8688 47.2772 36.0145 47.0028 36.0145 46.648C36.0145 46.3122 35.8825 46.0782 35.7418 45.9312C35.4077 45.5843 34.8943 45.6096 34.6159 45.6096C34.4478 45.6096 34.2705 45.6183 34.2369 45.6183C34.2224 45.6183 34.046 45.6096 33.9198 45.6096C33.8887 45.6096 33.8746 45.6154 33.8746 45.6324C33.8746 45.6436 33.8862 45.6494 33.8974 45.6494C33.9223 45.6494 33.9705 45.6527 33.9925 45.6581C34.0854 45.6776 34.1074 45.7229 34.1133 45.8188C34.1186 45.9088 34.1186 45.9873 34.1186 46.4284L34.1191 46.924ZM36.9388 46.8078C36.9305 46.8078 36.9251 46.802 36.9305 46.7883L37.1779 46.0263C37.1915 45.9839 37.2057 45.9839 37.2198 46.0263L37.4866 46.7883C37.4895 46.7986 37.4895 46.8078 37.4754 46.8078H36.9388ZM36.5458 47.4312C36.4951 47.5723 36.4391 47.6793 36.3096 47.6964C36.2826 47.6999 36.2555 47.7018 36.2283 47.7022C36.2146 47.7022 36.2029 47.708 36.2029 47.7192C36.2029 47.7354 36.22 47.742 36.2565 47.742C36.388 47.742 36.5424 47.7333 36.574 47.7333C36.6047 47.7333 36.7255 47.742 36.7927 47.742C36.818 47.742 36.835 47.7354 36.835 47.7192C36.835 47.708 36.8267 47.7022 36.8072 47.7022H36.7794C36.7317 47.7022 36.6723 47.6769 36.6723 47.6204C36.6723 47.5694 36.6865 47.5021 36.7118 47.4316L36.8803 46.9323C36.8861 46.9186 36.8944 46.9095 36.9081 46.9095H37.512C37.5261 46.9095 37.5315 46.9153 37.5377 46.9265L37.7987 47.6204C37.8153 47.6656 37.7987 47.691 37.7817 47.6968C37.7705 47.7001 37.7622 47.7051 37.7622 47.7163C37.7622 47.7333 37.7933 47.7333 37.8465 47.7358C38.0403 47.7424 38.2453 47.7424 38.2872 47.7424C38.3179 47.7424 38.3437 47.7358 38.3437 47.7196C38.3437 47.7051 38.3325 47.7026 38.3155 47.7026C38.2773 47.7031 38.2393 47.6973 38.203 47.6856C38.144 47.6686 38.0627 47.6241 37.9614 47.3726C37.7904 46.9439 37.3493 45.7789 37.3073 45.6718C37.2733 45.5843 37.2625 45.5706 37.2459 45.5706C37.2289 45.5706 37.2177 45.5876 37.1841 45.681L36.5458 47.4312ZM39.0816 45.7499C39.0812 45.7426 39.0832 45.7355 39.0872 45.7295C39.0913 45.7235 39.0972 45.719 39.104 45.7167C39.1318 45.7079 39.2078 45.6996 39.292 45.6996C39.5925 45.6996 39.7776 45.9113 39.7776 46.2637C39.7776 46.4778 39.7046 46.6301 39.6066 46.6982C39.5419 46.7426 39.4634 46.7518 39.3958 46.7518C39.2725 46.7518 39.1434 46.7314 39.1011 46.7065C39.0951 46.7032 39.09 46.6982 39.0866 46.6922C39.0832 46.6862 39.0814 46.6794 39.0816 46.6725V45.7499ZM38.8567 46.924C38.8567 47.1946 38.8567 47.4175 38.8425 47.5362C38.8318 47.6179 38.8172 47.6798 38.7612 47.691C38.7337 47.6975 38.7056 47.7013 38.6774 47.7022C38.6603 47.7022 38.6545 47.7105 38.6545 47.7192C38.6545 47.7354 38.6691 47.742 38.6998 47.742C38.784 47.742 38.9604 47.7333 38.9633 47.7333C38.9774 47.7333 39.1542 47.742 39.3086 47.742C39.3398 47.742 39.3539 47.7333 39.3539 47.7192C39.3539 47.7105 39.3481 47.7022 39.3315 47.7022C39.2891 47.7005 39.2469 47.6968 39.2049 47.691C39.1206 47.6798 39.104 47.6179 39.0953 47.5362C39.0816 47.4179 39.0816 47.195 39.0816 46.924V46.8559C39.0816 46.8422 39.0874 46.8331 39.1011 46.8331L39.4468 46.8389C39.4639 46.8389 39.4722 46.8447 39.4834 46.8559C39.539 46.9298 39.6714 47.1186 39.7892 47.2734C39.9494 47.4851 40.0474 47.6237 40.1682 47.6885C40.2412 47.7275 40.3113 47.742 40.4686 47.742H40.6679C40.7185 47.742 40.7351 47.7354 40.7351 47.7192C40.7351 47.7105 40.7243 47.7022 40.7098 47.7022C40.6932 47.7022 40.6537 47.7022 40.6002 47.6939C40.5301 47.6827 40.4097 47.6507 40.2574 47.4905C40.0947 47.3154 39.9034 47.0651 39.6734 46.7683C39.9262 46.5351 40.0134 46.3259 40.0134 46.1176C40.0134 45.9229 39.8897 45.7843 39.8195 45.7333C39.671 45.627 39.4829 45.6092 39.3057 45.6092C39.219 45.6092 39.0057 45.6179 38.9749 45.6179C38.9604 45.6179 38.784 45.6092 38.657 45.6092C38.6263 45.6092 38.6126 45.615 38.6126 45.632C38.6126 45.6432 38.6234 45.649 38.6346 45.649C38.6599 45.649 38.7077 45.6523 38.7301 45.6577C38.823 45.6772 38.8455 45.7225 38.8513 45.8183C38.8567 45.9084 38.8567 45.9868 38.8567 46.428V46.924ZM41.322 46.9294C41.322 47.3436 41.3332 47.5245 41.3834 47.5756C41.4286 47.62 41.5017 47.6403 41.7204 47.6403C41.8694 47.6403 41.9926 47.637 42.0599 47.5553C42.0976 47.5056 42.1226 47.4474 42.1329 47.3859C42.1362 47.3639 42.1412 47.3494 42.1582 47.3494C42.1728 47.3494 42.1753 47.3606 42.1753 47.3917C42.1753 47.4233 42.1558 47.5918 42.1329 47.6739C42.1134 47.7387 42.1055 47.7503 41.9561 47.7503C41.5515 47.7503 41.3668 47.7333 41.2041 47.7333C41.1929 47.7333 41.1447 47.7358 41.0891 47.7358C41.0358 47.7394 40.9824 47.7416 40.9289 47.7424C40.8982 47.7424 40.8841 47.7358 40.8841 47.7196C40.8841 47.7109 40.8899 47.7026 40.9069 47.7026C40.9318 47.7026 40.9654 47.6968 40.9908 47.6914C41.0476 47.6802 41.0613 47.6183 41.0725 47.5366C41.0862 47.4183 41.0862 47.1954 41.0862 46.9244V46.4284C41.0862 45.9877 41.0862 45.9088 41.0804 45.8188C41.0746 45.7233 41.0522 45.6776 40.9596 45.6581C40.9282 45.6522 40.8962 45.6493 40.8642 45.6494C40.8534 45.6494 40.8418 45.6436 40.8418 45.6324C40.8418 45.6154 40.8555 45.6096 40.8862 45.6096C41.0128 45.6096 41.1896 45.6183 41.2041 45.6183C41.2178 45.6183 41.4228 45.6096 41.5071 45.6096C41.5378 45.6096 41.5515 45.6154 41.5515 45.6324C41.5515 45.6436 41.5403 45.6494 41.5286 45.6494C41.5091 45.6494 41.4701 45.6527 41.4361 45.6581C41.3552 45.6718 41.3323 45.7196 41.3265 45.8188C41.3207 45.9088 41.3207 45.9873 41.3207 46.4284V46.9294H41.322ZM42.8605 46.4276C42.8605 45.9868 42.8605 45.908 42.8547 45.8179C42.8489 45.7225 42.8273 45.6768 42.7339 45.6573C42.7026 45.6514 42.6707 45.6485 42.6388 45.6486C42.6276 45.6486 42.616 45.6428 42.616 45.6316C42.616 45.6146 42.6297 45.6087 42.6604 45.6087C42.787 45.6087 42.9634 45.6175 42.9783 45.6175C42.9979 45.6175 43.5565 45.6175 43.6212 45.6141C43.6748 45.6117 43.7192 45.6058 43.742 45.6004C43.7557 45.598 43.7673 45.5868 43.7819 45.5868C43.7901 45.5868 43.7922 45.598 43.7922 45.6121C43.7922 45.6316 43.7785 45.6656 43.7702 45.7449C43.7669 45.7723 43.7615 45.8964 43.7557 45.9304C43.7532 45.9441 43.7474 45.9611 43.7362 45.9611C43.7192 45.9611 43.7134 45.9474 43.7134 45.9246C43.7138 45.8901 43.708 45.8558 43.6964 45.8233C43.6777 45.7781 43.6486 45.7449 43.4976 45.7279C43.3692 45.7222 43.2408 45.7193 43.1124 45.7191C43.1012 45.7191 43.0954 45.7279 43.0954 45.7474V46.5256C43.0954 46.5451 43.0979 46.5538 43.1124 46.5538C43.1489 46.5538 43.4942 46.5538 43.559 46.548C43.6262 46.5422 43.6652 46.5368 43.691 46.509C43.7105 46.4861 43.7217 46.4716 43.7333 46.4716C43.7416 46.4716 43.747 46.4774 43.747 46.4944C43.747 46.5114 43.7333 46.5592 43.7242 46.6526C43.7186 46.7125 43.7149 46.7725 43.713 46.8327C43.713 46.8555 43.713 46.887 43.6934 46.887C43.6798 46.887 43.6739 46.8758 43.6739 46.8613C43.6739 46.8331 43.6739 46.8053 43.6627 46.7679C43.6515 46.7289 43.6262 46.6804 43.5166 46.67C43.3828 46.6613 43.2486 46.6565 43.1145 46.6555C43.1008 46.6555 43.095 46.6642 43.095 46.6758V46.924C43.095 47.0194 43.0925 47.3473 43.095 47.4063C43.1037 47.6009 43.146 47.6374 43.4208 47.6374C43.4938 47.6374 43.6171 47.6374 43.6905 47.6067C43.7636 47.576 43.7968 47.5191 43.8171 47.4034C43.8221 47.3726 43.8275 47.361 43.8424 47.361C43.8586 47.361 43.8586 47.3838 43.8586 47.4034C43.8586 47.4262 43.8366 47.6183 43.8221 47.6773C43.8026 47.7503 43.7806 47.7503 43.6706 47.7503C43.2469 47.7503 43.0584 47.7333 42.9775 47.7333C42.9717 47.7333 42.924 47.7358 42.865 47.7358C42.8107 47.7394 42.7563 47.7416 42.7019 47.7424C42.6712 47.7424 42.6575 47.7358 42.6575 47.7196C42.6575 47.7109 42.6633 47.7026 42.6804 47.7026C42.7057 47.7026 42.7389 47.6968 42.7646 47.6914C42.8206 47.6802 42.8343 47.6183 42.8455 47.5366C42.8592 47.4183 42.8592 47.1954 42.8592 46.9244V46.4276H42.8605ZM47.7994 47.3776C47.8106 47.4789 47.8309 47.637 47.9517 47.6769C48.0326 47.7022 48.1057 47.7022 48.1339 47.7022C48.1476 47.7022 48.1559 47.7047 48.1559 47.7159C48.1559 47.7329 48.1306 47.7416 48.0974 47.7416C48.0359 47.7416 47.7317 47.7329 47.628 47.7246C47.564 47.7188 47.5495 47.7101 47.5495 47.6964C47.5495 47.6852 47.5553 47.6793 47.5699 47.6769C47.5835 47.6735 47.586 47.6258 47.5802 47.5756L47.4458 46.1197H47.4375L46.7493 47.586C46.6908 47.7101 46.6821 47.735 46.6568 47.735C46.6373 47.735 46.6227 47.7076 46.57 47.6059C46.497 47.4673 46.2546 46.9792 46.2409 46.9518C46.2156 46.9007 45.9006 46.2238 45.8695 46.1475H45.8591L45.7466 47.4565C45.7441 47.5009 45.7441 47.5519 45.7441 47.6001C45.7441 47.6424 45.774 47.6785 45.8163 47.6876C45.8641 47.6989 45.9072 47.7013 45.9234 47.7013C45.9346 47.7013 45.9462 47.7072 45.9462 47.715C45.9462 47.7345 45.9292 47.7408 45.8952 47.7408C45.7914 47.7408 45.657 47.7321 45.635 47.7321C45.6092 47.7321 45.4743 47.7408 45.3984 47.7408C45.371 47.7408 45.3507 47.7341 45.3507 47.715C45.3507 47.7067 45.3652 47.7013 45.3789 47.7013C45.4017 47.7013 45.4212 47.7013 45.4631 47.693C45.5565 47.676 45.5636 47.5656 45.5756 47.459L45.7773 45.6195C45.7831 45.5888 45.791 45.5693 45.808 45.5693C45.8251 45.5693 45.8363 45.5805 45.8504 45.6117L46.7103 47.3851L47.5354 45.6137C47.5466 45.5884 47.5582 45.5693 47.5777 45.5693C47.5972 45.5693 47.606 45.5921 47.6118 45.6449L47.7994 47.3776ZM48.6141 46.4276C48.6141 45.9868 48.6141 45.908 48.6083 45.8179C48.6025 45.7225 48.5809 45.6768 48.4875 45.6573C48.456 45.6514 48.4241 45.6484 48.392 45.6486C48.3808 45.6486 48.37 45.6428 48.37 45.6316C48.37 45.6146 48.3837 45.6087 48.4144 45.6087C48.541 45.6087 48.712 45.6175 48.7369 45.6175C48.7618 45.6175 48.9307 45.6087 49.0158 45.6087C49.0465 45.6087 49.0602 45.6146 49.0602 45.6316C49.0602 45.6428 49.049 45.6486 49.0374 45.6486C49.0179 45.6486 49.0009 45.6519 48.9669 45.6573C48.8913 45.6677 48.8689 45.7187 48.8631 45.8179C48.8581 45.908 48.8581 45.9864 48.8581 46.4276V46.8215C48.8581 47.2282 48.9473 47.4025 49.0681 47.5187C49.2059 47.6482 49.3317 47.6735 49.4919 47.6735C49.5755 47.673 49.6581 47.6546 49.7341 47.6197C49.81 47.5848 49.8777 47.5341 49.9326 47.471C50.0617 47.3096 50.0957 47.0705 50.0957 46.7796V46.4276C50.0957 45.9868 50.0957 45.908 50.0899 45.8179C50.0841 45.7225 50.0617 45.6768 49.9692 45.6573C49.9377 45.6514 49.9057 45.6485 49.8737 45.6486C49.8625 45.6486 49.8517 45.6428 49.8517 45.6316C49.8517 45.6146 49.8654 45.6087 49.8961 45.6087C50.0227 45.6087 50.1767 45.6175 50.1937 45.6175C50.214 45.6175 50.3452 45.6087 50.4294 45.6087C50.4601 45.6087 50.4747 45.6146 50.4747 45.6316C50.4747 45.6428 50.4635 45.6486 50.451 45.6486C50.4323 45.6486 50.4153 45.6486 50.3813 45.6573C50.3057 45.671 50.2833 45.7187 50.2775 45.8179C50.2717 45.908 50.2717 45.9864 50.2717 46.4276V46.7293C50.2717 47.0331 50.2377 47.3722 50.0131 47.5723C49.8114 47.7532 49.6014 47.7814 49.435 47.7814C49.3395 47.7814 49.0557 47.7702 48.8569 47.5806C48.7182 47.4486 48.612 47.2514 48.612 46.8389V46.4276H48.6141ZM51.24 47.4768C50.9677 47.2311 50.8997 46.9095 50.8997 46.6418C50.8997 46.4529 50.9644 46.123 51.2142 45.8719C51.3836 45.7025 51.6388 45.5702 52.0709 45.5702C52.1834 45.5702 52.3406 45.5785 52.4776 45.6042C52.5847 45.6237 52.6748 45.6407 52.7636 45.6457C52.7943 45.649 52.8001 45.6602 52.8001 45.6772C52.8001 45.7001 52.7918 45.7333 52.7864 45.8354C52.7806 45.9287 52.7806 46.0835 52.7781 46.1255C52.7756 46.1674 52.7694 46.1856 52.7528 46.1856C52.7324 46.1856 52.7299 46.1653 52.7299 46.1255C52.7299 46.0159 52.6847 45.9001 52.6125 45.8378C52.5145 45.7536 52.2979 45.6772 52.0505 45.6772C51.677 45.6772 51.5027 45.7876 51.4043 45.8831C51.1993 46.0802 51.1516 46.3313 51.1516 46.6189C51.1516 47.1572 51.5641 47.6507 52.1655 47.6507C52.3763 47.6507 52.5415 47.6254 52.6536 47.5104C52.7129 47.4482 52.749 47.3241 52.7582 47.273C52.7632 47.2423 52.7685 47.2307 52.7856 47.2307C52.7993 47.2307 52.8059 47.251 52.8059 47.273C52.8059 47.2925 52.7719 47.5382 52.7436 47.6337C52.7275 47.6881 52.7216 47.6939 52.6706 47.7155C52.5581 47.7607 52.3448 47.781 52.1655 47.781C51.7447 47.7814 51.462 47.6769 51.24 47.4768ZM55.2878 46.924C55.2878 47.1946 55.2878 47.4175 55.3023 47.5362C55.3106 47.6179 55.3276 47.6798 55.4119 47.691C55.4517 47.6968 55.5132 47.7022 55.5385 47.7022C55.5555 47.7022 55.5605 47.7105 55.5605 47.7192C55.5605 47.7329 55.5468 47.742 55.5161 47.742C55.3621 47.742 55.1853 47.7333 55.1708 47.7333C55.1571 47.7333 54.9803 47.742 54.896 47.742C54.8653 47.742 54.8508 47.7354 54.8508 47.7192C54.8508 47.7105 54.8566 47.7022 54.8736 47.7022C54.8989 47.7022 54.9329 47.6964 54.9578 47.691C55.0139 47.6798 55.0284 47.6179 55.0396 47.5362C55.0533 47.4179 55.0533 47.195 55.0533 46.924V46.6281C55.0534 46.6258 55.053 46.6236 55.0521 46.6215C55.0513 46.6194 55.05 46.6175 55.0484 46.6159C55.0469 46.6143 55.045 46.6131 55.0429 46.6122C55.0408 46.6114 55.0385 46.611 55.0363 46.6111H53.8456C53.8368 46.6111 53.8285 46.6135 53.8285 46.6281V46.924C53.8285 47.1946 53.8285 47.4175 53.8431 47.5362C53.8514 47.6179 53.8684 47.6798 53.9526 47.691C53.9916 47.6968 54.0539 47.7022 54.0784 47.7022C54.0954 47.7022 54.102 47.7105 54.102 47.7192C54.102 47.7329 54.0875 47.742 54.0568 47.742C53.902 47.742 53.7252 47.7333 53.7115 47.7333C53.6978 47.7333 53.521 47.742 53.4359 47.742C53.4052 47.742 53.3915 47.7354 53.3915 47.7192C53.3915 47.7105 53.3973 47.7022 53.4143 47.7022C53.4397 47.7022 53.4729 47.6964 53.4986 47.691C53.5546 47.6798 53.5683 47.6179 53.5795 47.5362C53.5932 47.4179 53.5932 47.195 53.5932 46.924V46.428C53.5932 45.9873 53.5932 45.9084 53.5882 45.8183C53.5824 45.7229 53.56 45.6772 53.4666 45.6577C53.4353 45.6518 53.4035 45.6489 53.3716 45.649C53.3604 45.649 53.3488 45.6432 53.3488 45.632C53.3488 45.615 53.3625 45.6092 53.394 45.6092C53.5206 45.6092 53.697 45.6179 53.7111 45.6179C53.7252 45.6179 53.9016 45.6092 53.9867 45.6092C54.0165 45.6092 54.0311 45.615 54.0311 45.632C54.0311 45.6432 54.0199 45.649 54.0083 45.649C53.9887 45.649 53.9717 45.6523 53.9377 45.6577C53.8622 45.6714 53.8397 45.7191 53.8339 45.8183C53.8281 45.9084 53.8281 45.9868 53.8281 46.428V46.4874C53.8281 46.5011 53.8364 46.5036 53.8451 46.5036H55.0359C55.0442 46.5036 55.0529 46.5011 55.0529 46.4874V46.428C55.0529 45.9873 55.0529 45.9084 55.0462 45.8183C55.0413 45.7229 55.0188 45.6772 54.9263 45.6577C54.8948 45.6519 54.8629 45.6489 54.8308 45.649C54.8196 45.649 54.808 45.6432 54.808 45.632C54.808 45.615 54.8217 45.6092 54.8533 45.6092C54.9798 45.6092 55.1562 45.6179 55.1703 45.6179C55.1849 45.6179 55.3617 45.6092 55.4459 45.6092C55.4766 45.6092 55.4903 45.615 55.4903 45.632C55.4903 45.6432 55.4791 45.649 55.4675 45.649C55.448 45.649 55.431 45.6523 55.3978 45.6577C55.3214 45.6714 55.2998 45.7191 55.294 45.8183C55.2874 45.9084 55.2874 45.9868 55.2874 46.428L55.2878 46.924ZM56.2768 46.594C56.2768 45.9765 56.6279 45.666 57.0965 45.666C57.5398 45.666 57.9511 46.03 57.9511 46.7069C57.9511 47.5283 57.4281 47.6739 57.1754 47.6739C56.6703 47.6735 56.2768 47.2514 56.2768 46.594ZM56.0104 46.6725C56.0104 47.1801 56.3299 47.7814 57.0998 47.7814C57.7767 47.7814 58.22 47.2593 58.22 46.6281C58.22 45.9707 57.7481 45.5702 57.1168 45.5702C56.342 45.5702 56.0104 46.2155 56.0104 46.6725ZM62.1255 47.3776C62.1367 47.4789 62.1562 47.637 62.2769 47.6769C62.3587 47.7022 62.4317 47.7022 62.4591 47.7022C62.4737 47.7022 62.482 47.7047 62.482 47.7159C62.482 47.7329 62.4566 47.7416 62.4235 47.7416C62.3612 47.7416 62.0578 47.7329 61.954 47.7246C61.8893 47.7188 61.8756 47.7101 61.8756 47.6964C61.8756 47.6852 61.8814 47.6793 61.8951 47.6769C61.9088 47.6735 61.9121 47.6258 61.9063 47.5756L61.7718 46.1197H61.7635L61.0754 47.586C61.0161 47.7101 61.0074 47.735 60.982 47.735C60.9625 47.735 60.9488 47.7076 60.8953 47.6059C60.8223 47.4673 60.5807 46.9792 60.567 46.9518C60.5417 46.9007 60.2275 46.2238 60.1956 46.1475H60.1852L60.0727 47.4565C60.0694 47.5009 60.0694 47.5519 60.0694 47.6001C60.0694 47.6424 60.1001 47.6785 60.1433 47.6876C60.191 47.6989 60.2333 47.7013 60.2503 47.7013C60.2607 47.7013 60.2732 47.7072 60.2732 47.715C60.2732 47.7345 60.2553 47.7408 60.2221 47.7408C60.1184 47.7408 59.9831 47.7321 59.9611 47.7321C59.9353 47.7321 59.8004 47.7408 59.7245 47.7408C59.6971 47.7408 59.6776 47.7341 59.6776 47.715C59.6776 47.7067 59.6913 47.7013 59.7058 47.7013C59.7278 47.7013 59.7481 47.7013 59.7892 47.693C59.8826 47.676 59.8905 47.5656 59.9013 47.459L60.1038 45.6195C60.1105 45.5888 60.1184 45.5693 60.1345 45.5693C60.1516 45.5693 60.1628 45.5805 60.1769 45.6117L61.036 47.3851L61.8611 45.6137C61.8723 45.5884 61.8839 45.5693 61.9034 45.5693C61.9237 45.5693 61.9316 45.5921 61.9374 45.6449L62.1255 47.3776ZM63.2573 46.8078C63.249 46.8078 63.2436 46.802 63.2489 46.7883L63.4955 46.0263C63.51 45.9839 63.5237 45.9839 63.5386 46.0263L63.8047 46.7883C63.808 46.7986 63.808 46.8078 63.7935 46.8078H63.2573ZM63.9387 45.1016C63.9259 45.0821 63.9201 45.0763 63.9122 45.0763C63.8976 45.0763 63.8806 45.0846 63.8329 45.1128C63.8134 45.124 63.5523 45.2821 63.4511 45.3527C63.4374 45.361 63.4316 45.3664 63.4316 45.3755C63.4316 45.3867 63.4403 45.3925 63.4453 45.3925C63.46 45.3896 63.4742 45.3847 63.4876 45.378C63.581 45.339 63.7769 45.2734 63.9147 45.2597C63.9624 45.2539 63.9902 45.2597 63.9981 45.2597C64.0101 45.2597 64.0238 45.2514 64.0101 45.2257C63.9786 45.1696 63.9591 45.1298 63.9387 45.1016ZM62.8646 47.4312C62.8136 47.5723 62.7567 47.6793 62.6281 47.6964C62.6012 47.6999 62.5742 47.7018 62.5471 47.7022C62.5334 47.7022 62.5214 47.708 62.5214 47.7192C62.5214 47.7354 62.5384 47.742 62.5749 47.742C62.7069 47.742 62.8617 47.7333 62.8928 47.7333C62.924 47.7333 63.0443 47.742 63.1116 47.742C63.1373 47.742 63.1539 47.7354 63.1539 47.7192C63.1539 47.708 63.1456 47.7022 63.1257 47.7022H63.0975C63.0506 47.7022 62.9912 47.6769 62.9912 47.6204C62.9912 47.5694 63.0057 47.5021 63.0302 47.4316L63.1987 46.9323C63.2045 46.9186 63.2132 46.9095 63.2269 46.9095H63.8308C63.8445 46.9095 63.8503 46.9153 63.8561 46.9265L64.1172 47.6204C64.1342 47.6656 64.1172 47.691 64.1002 47.6968C64.0898 47.7001 64.0807 47.7051 64.0807 47.7163C64.0807 47.7333 64.1114 47.7333 64.1649 47.7358C64.3587 47.7424 64.5638 47.7424 64.6057 47.7424C64.6364 47.7424 64.6617 47.7358 64.6617 47.7196C64.6617 47.7051 64.6513 47.7026 64.6335 47.7026C64.5955 47.703 64.5576 47.6973 64.5214 47.6856C64.4621 47.6686 64.3812 47.6241 64.2799 47.3726C64.1089 46.9439 63.6677 45.7789 63.6258 45.6718C63.5918 45.5843 63.5814 45.5706 63.5635 45.5706C63.5474 45.5706 63.5362 45.5876 63.5021 45.681L62.8646 47.4312ZM64.995 47.7042C64.956 47.6847 64.9535 47.6735 64.9535 47.598C64.9535 47.4569 64.9639 47.3436 64.9672 47.2988C64.9697 47.2672 64.9755 47.2535 64.9892 47.2535C65.0062 47.2535 65.0095 47.2618 65.0095 47.2842C65.0095 47.3096 65.0095 47.349 65.0178 47.3888C65.0601 47.598 65.2448 47.6764 65.4337 47.6764C65.7026 47.6764 65.835 47.481 65.835 47.3013C65.835 47.1066 65.7541 46.9941 65.5125 46.7937L65.386 46.6891C65.0884 46.4434 65.0203 46.2682 65.0203 46.0769C65.0203 45.7752 65.2448 45.5693 65.6022 45.5693C65.7109 45.5693 65.7927 45.5805 65.8632 45.5975C65.9168 45.6079 65.9388 45.6112 65.9612 45.6112C65.9836 45.6112 65.9886 45.6171 65.9886 45.6307C65.9886 45.6444 65.9782 45.7387 65.9782 45.93C65.9782 45.9752 65.9724 45.9947 65.9579 45.9947C65.9417 45.9947 65.9384 45.981 65.9359 45.9582C65.9325 45.9242 65.9164 45.8478 65.8993 45.8171C65.8823 45.7864 65.806 45.6673 65.5482 45.6673C65.3544 45.6673 65.2029 45.7889 65.2029 45.9947C65.2029 46.1553 65.2809 46.2516 65.5449 46.4691L65.6233 46.5305C65.955 46.7933 66.0334 46.9676 66.0334 47.1938C66.0334 47.3087 65.9882 47.5237 65.7943 47.6615C65.6744 47.7466 65.5221 47.7806 65.3706 47.7806C65.2412 47.7847 65.1125 47.7586 64.995 47.7042ZM66.5846 47.5781C66.5846 47.5133 66.629 47.4233 66.7394 47.4233C66.8261 47.4233 66.8933 47.4793 66.8933 47.5694C66.8933 47.6603 66.8311 47.7333 66.736 47.7333C66.6294 47.7329 66.5846 47.6486 66.5846 47.5781ZM67.4325 45.6681C67.4325 45.8295 67.3823 45.9819 67.3399 46.0719C67.3337 46.0832 67.3298 46.0956 67.3287 46.1084C67.3287 46.1172 67.337 46.123 67.3424 46.123C67.3561 46.123 67.3677 46.1172 67.3789 46.1001C67.4769 45.9819 67.6205 45.7453 67.6205 45.544C67.6205 45.5017 67.6068 45.488 67.5728 45.471C67.5283 45.4539 67.4213 45.4207 67.3764 45.4207C67.3652 45.4207 67.3507 45.429 67.3507 45.4378C67.3507 45.4515 67.354 45.4598 67.3764 45.4847C67.4134 45.5387 67.4329 45.6027 67.4325 45.6681ZM67.7973 45.6681C67.7973 45.8295 67.7471 45.9819 67.7047 46.0719C67.6987 46.0833 67.6949 46.0957 67.6935 46.1084C67.6935 46.1172 67.7022 46.123 67.7072 46.123C67.7218 46.123 67.7325 46.1172 67.7438 46.1001C67.8425 45.9819 67.9853 45.7453 67.9853 45.544C67.9853 45.5017 67.9716 45.488 67.9376 45.471C67.8932 45.4539 67.7861 45.4207 67.7413 45.4207C67.7301 45.4207 67.7159 45.429 67.7159 45.4378C67.7159 45.4515 67.7184 45.4598 67.7413 45.4847C67.7782 45.5387 67.7978 45.6027 67.7973 45.6681Z" fill="black"/>
<path fill-rule="evenodd" clip-rule="evenodd" d="M35.2678 31.8421H35.4886L35.3152 32.4991H35.8132L35.77 32.6622H35.0508L35.2678 31.8421ZM37.2824 31.8421H37.504L37.2874 32.6622H37.0658L37.2824 31.8421ZM39.5369 31.8421H39.7523L39.5356 32.6622H39.2949L39.0006 32.0903H38.9982L38.8475 32.6622H38.6321L38.8487 31.8421H39.1065L39.3837 32.414H39.3866L39.5369 31.8421ZM41.097 31.8421H41.8598L41.8183 31.9986H41.2783L41.2331 32.1683H41.7461L41.7075 32.3173H41.1933L41.1439 32.5062H41.6888L41.6481 32.6622H40.8812L41.097 31.8421ZM43.571 32.3443H43.3157L43.5291 32.0194L43.571 32.3443ZM43.6133 32.6622H43.8524L43.7096 31.8421H43.4419L42.8654 32.6622H43.1045L43.2157 32.4933H43.5909L43.6133 32.6622ZM46.9278 32.2198H47.1652C47.2341 32.2198 47.315 32.2173 47.3436 32.1069C47.3719 32.0007 47.3088 31.9911 47.2465 31.9911H46.9871L46.9278 32.2198ZM46.8045 31.8421H47.354C47.586 31.8421 47.6059 31.9808 47.5769 32.0912C47.5308 32.2655 47.4117 32.3688 47.2324 32.3688H46.8879L46.8099 32.6622H46.5887L46.8045 31.8421ZM49.1279 31.9986H49.4101C49.4636 31.9986 49.5225 32.0194 49.5018 32.1007C49.4944 32.1307 49.4771 32.1573 49.4527 32.1762C49.4283 32.1951 49.3982 32.2052 49.3673 32.2049H49.0739L49.1279 31.9986ZM48.7315 32.6622H48.9527L49.032 32.3609H49.3076C49.3765 32.3609 49.4188 32.3896 49.3877 32.5049C49.3648 32.5909 49.357 32.6241 49.3673 32.6622H49.6097C49.5823 32.6207 49.6039 32.524 49.6147 32.4842C49.6359 32.4037 49.6545 32.2792 49.5611 32.2655L49.562 32.2626C49.6078 32.2495 49.6491 32.2241 49.6815 32.1892C49.7139 32.1543 49.7362 32.1112 49.7458 32.0646C49.7678 31.9812 49.767 31.8425 49.5408 31.8425H48.9473L48.7315 32.6622ZM51.1113 31.8421H51.3325L51.1163 32.6622H50.8946L51.1113 31.8421ZM52.5527 31.8421H52.7955L52.8677 32.4668L53.269 31.8421H53.5131L52.9337 32.6622H52.6984L52.5527 31.8421ZM55.1496 32.3443H54.8935L55.1076 32.0194L55.1496 32.3443ZM55.1911 32.6622H55.4301L55.2873 31.8421H55.0197L54.444 32.6622H54.6831L54.7943 32.4933H55.1695L55.1911 32.6622ZM57.0101 31.9986H57.2355C57.4057 31.9986 57.4447 32.0924 57.4048 32.2443C57.3588 32.4178 57.2695 32.5062 57.1235 32.5062H56.8761L57.0101 31.9986ZM56.613 32.6622H57.1413C57.3974 32.6622 57.5659 32.4991 57.6319 32.2522C57.6966 32.0061 57.619 31.8425 57.3376 31.8425H56.8292L56.613 32.6622ZM59.3592 32.3443H59.1032L59.3165 32.0194L59.3592 32.3443ZM59.4016 32.6622H59.6398L59.497 31.8421H59.2293L58.6537 32.6622H58.8927L59.0031 32.4933H59.3783L59.4016 32.6622ZM75.9734 39.9145L74.7777 34.7511C74.6108 34.1858 74.0506 34.0949 73.809 34.0837H71.186L66.4405 40.2901L68.6477 32.3269H66.558L65.3494 36.8283C65.1614 37.4567 65.1332 38.3967 65.1332 38.3967C65.1203 38.1527 65.0037 37.8323 64.8439 37.609L62.8733 34.4697C62.7704 34.3294 62.5346 34.0758 61.9565 34.0758H60.5267L58.579 41.2945L60.5691 41.2903L61.656 37.2782L64.1487 41.2816C64.1861 41.2858 64.2209 41.292 64.2583 41.2945L67.6952 41.2962L69.8297 38.4677H72.9706L73.6264 41.2949H76.3208L75.9734 39.9145ZM70.407 37.6982L72.2331 35.3064L72.7909 37.6982H70.407Z" fill="#929496"/>
<path fill-rule="evenodd" clip-rule="evenodd" d="M28.6549 37.5662L28.4677 38.3403H30.1465L29.8755 39.3679C29.7477 39.8522 29.2501 40.0946 28.8429 40.0946C27.6231 40.0946 26.8997 39.0442 27.2496 37.7169C27.2641 37.6663 27.2791 37.6152 27.2957 37.5658H24.5191C24.5071 37.6082 24.4905 37.653 24.4818 37.6941C23.9202 39.8178 25.4094 41.5257 27.7904 41.5257C28.9122 41.5257 30.1744 41.0849 31.126 41.0849C31.4419 41.0994 31.727 41.1434 31.9499 41.2829L32.9376 37.5662H28.6549Z" fill="black"/>
<path fill-rule="evenodd" clip-rule="evenodd" d="M33.6952 33.5072C28.2633 32.0081 25.6312 35.3869 25.0244 36.2987C24.9542 36.395 24.9036 36.5063 25.1281 36.3996C30.1708 33.8347 33.2113 36.3456 33.2113 36.3456L33.9007 33.8467C33.9439 33.6405 33.7778 33.5429 33.6952 33.5072Z" fill="#6D6E70"/>
<path fill-rule="evenodd" clip-rule="evenodd" d="M40.5195 35.3288L40.8573 34.0754H34.5069L32.7804 40.4818C32.7347 40.7454 32.7509 41.2463 33.5017 41.2941H38.91L39.2648 39.9776H35.498L36.0213 38.0228H38.6269L38.91 36.9308H36.3048L36.7514 35.3288H40.5195ZM56.9494 34.0758L54.9958 41.2941H57.5761L59.567 34.0758H56.9494ZM46.9342 34.0679L46.0199 37.3807C45.9406 37.7563 45.9265 38.4154 45.9265 38.4154C45.9112 38.1303 45.7659 37.7671 45.6314 37.5472L43.7044 34.4755C43.611 34.3452 43.4118 34.0754 42.8428 34.0754H41.3537L39.4068 41.2899H41.3674L42.468 37.2778L44.9719 41.2941H46.9126L48.5047 35.3911H51.1028L49.5091 41.2941H52.0935L53.6847 35.3911H55.9222L56.2845 34.0679H46.9342Z" fill="#929496"/>
<path fill-rule="evenodd" clip-rule="evenodd" d="M10.2641 37.6982L12.0998 35.252L12.6198 37.6982H10.2641ZM22.0535 36.4834C21.8979 37.0703 21.0778 37.5663 20.2631 37.5663H19.201L19.7808 35.3375H20.8445C21.6584 35.3375 22.2083 35.8949 22.0535 36.4834ZM24.6213 36.4834C24.9687 35.1566 23.7585 34.0821 21.9232 34.0821H17.5421L16.0285 39.9145C16.0285 39.9145 15.9297 40.3889 15.9297 40.8508C15.9297 40.6001 15.9023 40.2387 15.8758 40.1013L15.833 39.9249V39.9145L14.6386 34.7511C14.47 34.1858 13.9093 34.0949 13.6699 34.0837H11.0448L5.52734 41.2957H7.55187L9.68597 38.4673H12.8244L13.4773 41.2945H18.2182L18.9765 38.4096L21.5501 41.578C21.7647 41.8357 22.3411 42.3893 23.4235 42.3806H25.3617L22.3333 38.5374C23.5335 38.1203 24.391 37.36 24.6213 36.4834Z" fill="black"/>
</g>
<defs>
<clipPath id="clip0_951_298">
<rect width="80" height="80" fill="white" transform="translate(0.683594)"/>
</clipPath>
</defs>
</svg>
