<svg width="105" height="56" viewBox="0 0 105 56" fill="none" xmlns="http://www.w3.org/2000/svg">
<g style="mix-blend-mode:luminosity" opacity="0.5" clip-path="url(#clip0_951_972)">
<path d="M56.3455 2.53298C56.0056 2.58553 55.6788 3.84013 55.0219 4.4937C54.5415 4.9654 53.9419 4.93589 53.6233 5.51904C53.5024 5.7369 53.5416 6.10878 53.4043 6.46584C53.1364 7.17996 52.192 7.2438 52.192 8.02189C52.1887 8.86217 52.9795 9.02265 53.6641 9.61885C54.1985 10.0988 54.2508 10.4296 54.8977 10.6622C55.4501 10.8506 56.2719 10.2347 57.0121 10.4558C57.62 10.6377 58.2016 10.7687 58.3389 11.3944C58.4597 11.971 58.3307 12.8652 57.5938 12.7621C57.3454 12.7342 56.2686 12.3706 54.9452 12.5114C53.3488 12.6933 51.5269 13.2157 51.3488 14.9996C51.2508 15.9971 52.4811 17.1731 53.6691 16.934C54.4909 16.7717 54.1021 15.8006 54.5497 15.3288C55.1363 14.7245 58.4597 17.4385 61.5496 17.4385C62.8502 17.4385 63.8175 17.1093 64.7784 16.1003C64.8681 16.0233 64.9776 15.8579 65.1165 15.848C65.2473 15.8579 65.476 15.9872 65.5512 16.0429C68.0397 18.0477 69.9203 22.069 79.0656 22.1165C80.3515 22.123 81.8171 22.7389 83.0131 23.833C84.0802 24.8224 84.7044 26.3604 85.3105 27.9213C86.2255 30.2637 87.8661 32.5421 90.3528 35.0776C90.4885 35.2136 92.5358 36.809 92.6992 36.9286C92.7254 36.9449 92.8757 37.3053 92.8235 37.5067C92.763 39.0267 92.5424 43.4475 95.8299 43.6474C96.6338 43.6883 96.423 43.1216 96.423 42.7317C96.4214 41.9619 96.2808 41.197 96.6861 40.4091C97.24 39.3249 95.5113 38.8252 95.562 36.4813C95.5979 34.7336 94.1338 35.0317 93.3904 33.7001C92.9623 32.9286 92.5816 32.5192 92.6094 31.5756C92.776 26.2655 91.4819 22.7766 90.8365 21.9199C90.3334 21.2729 89.9167 21.0158 90.3773 20.716C93.1208 18.8995 93.7434 17.2091 93.7434 17.2091C95.2024 13.7711 96.5146 10.631 98.3233 9.24874C98.6877 8.96363 99.6223 8.26432 100.196 7.98909C101.884 7.19137 102.773 6.70827 103.263 6.22987C104.039 5.47154 104.652 3.89092 103.908 2.93272C102.983 1.75007 101.384 2.68864 100.678 3.1079C95.6339 6.10878 94.8904 11.4025 93.1436 14.4427C91.7499 16.8717 89.4837 18.6555 87.4576 18.8013C85.9379 18.9142 84.3008 18.6063 82.6701 17.8889C78.7045 16.1462 76.5345 13.8956 76.0232 13.4976C74.9577 12.6737 66.6867 4.53462 59.9858 4.20213C59.9858 4.20213 59.1543 2.53309 58.945 2.50523C58.4548 2.44292 57.9533 3.5027 57.5938 3.62568C57.2556 3.73855 56.687 2.47725 56.3455 2.53298ZM26.8461 51.11C26.2154 51.0951 25.6795 50.576 25.6795 49.9339L25.6811 28.9811H18.7924V52.0779C18.7924 53.2098 19.7073 54.1336 20.8298 54.1336H32.8705C34.0011 54.1336 34.9048 53.2098 34.9048 52.0779V28.9811H28.0226L28.016 49.9339C28.016 50.576 27.48 51.0951 26.8461 51.11ZM49.9109 28.9811H39.4847C38.2511 28.9811 37.2462 29.9868 37.2462 31.2366V54.1335H44.1413V33.1302C44.1462 32.4865 44.6658 31.9771 45.3064 31.9771C45.9502 31.9771 46.4665 32.475 46.4811 33.1122V54.1336H53.3486V33.112C53.3568 32.4749 53.8731 31.9769 54.5153 31.9769C55.1526 31.9769 55.6787 32.4864 55.6836 33.1301V54.1336H62.5788V31.2366C62.5788 29.9868 61.5723 28.9811 60.3387 28.9811H49.9109ZM9.57355 33.1743C9.57848 32.4749 9.00989 31.9769 8.40694 31.9769H7.23704V44.6989H8.40694C9.01482 44.6989 9.5786 44.2141 9.57355 43.5181V33.1743ZM14.196 47.8127H7.23704V54.1336H0.351562V28.9811H14.2403C15.4836 28.9811 16.4541 29.9934 16.4541 31.2465V45.5474C16.4541 46.8022 15.4461 47.8127 14.196 47.8127ZM86.2076 48.5088C84.8236 48.5088 83.6618 49.7078 83.6618 51.1607C83.6618 52.6185 84.8236 53.8076 86.2517 53.8076C87.6683 53.8076 88.8154 52.6185 88.8154 51.1607C88.8154 49.7045 87.6683 48.5088 86.2516 48.5088H86.2076ZM89.3088 51.1525C89.3088 52.8608 87.9428 54.2499 86.2517 54.2499C84.5425 54.2499 83.1701 52.8708 83.1701 51.1525C83.1701 49.467 84.5425 48.0584 86.201 48.0584C87.9428 48.0584 89.3088 49.4246 89.3088 51.1525Z" fill="black"/>
<path d="M85.9298 50.9559C86.4086 50.9559 86.6603 50.7856 86.6603 50.445C86.6603 50.1419 86.4168 49.9863 85.9511 49.9863H85.8138V50.9559H85.9298ZM87.693 52.9444H86.871L85.8138 51.5342V52.9444H85.1423V49.3786H85.8482C86.8074 49.3786 87.3171 49.7423 87.3171 50.4367C87.3171 50.9002 87.0165 51.3115 86.5965 51.4342L86.5475 51.4523L87.693 52.9444ZM74.1361 44.7039V33.122C74.1196 32.4814 73.605 31.9901 72.9629 31.9901C72.3272 31.9901 71.8011 32.5011 71.7963 33.14V44.7039H74.1361ZM74.1361 54.1336V47.8193H71.7963V54.1336H64.9141V31.2366C64.9141 29.9868 65.9188 28.9811 67.1525 28.9811H78.7797C80.0166 28.9811 81.0215 29.9868 81.0215 31.2366V54.1335L74.1361 54.1336Z" fill="black"/>
</g>
<defs>
<clipPath id="clip0_951_972">
<rect width="104.3" height="56" fill="white" transform="translate(0.351562)"/>
</clipPath>
</defs>
</svg>
