<svg width="81" height="80" viewBox="0 0 81 80" fill="none" xmlns="http://www.w3.org/2000/svg">
<g style="mix-blend-mode:luminosity" opacity="0.5" clip-path="url(#clip0_951_735)">
<path fill-rule="evenodd" clip-rule="evenodd" d="M4.51953 37.6899H76.8103V49.3266H4.51953V37.6899Z" fill="#00AABC" stroke="#00AABC" stroke-width="14.565" stroke-miterlimit="2.613"/>
<path fill-rule="evenodd" clip-rule="evenodd" d="M38.8334 22.2785L41.2991 18.2249L36.5391 16.163L41.8814 16.7569L42.8741 12.1791L43.8673 16.7569L49.21 16.163L44.45 18.2249L46.9153 22.2785L42.8741 19.1687L38.8334 22.2785Z" fill="#AC853E" stroke="white" stroke-width="14.565" stroke-miterlimit="2.613"/>
<path d="M4.21484 51.3536H77.1219" stroke="#00AABC" stroke-width="30.9459" stroke-miterlimit="2.613"/>
<path fill-rule="evenodd" clip-rule="evenodd" d="M6.33796 60.9986C6.61188 60.9986 6.91983 60.9637 7.05721 60.894C7.16014 60.8591 7.16014 60.8591 7.16014 60.7886C7.22862 60.6491 7.26265 60.2648 7.26265 60.2648C7.26265 60.2299 7.26265 60.1951 7.22862 60.1951C7.22862 60.1951 7.19417 60.1951 7.19417 60.2648C7.19417 60.3345 7.12569 60.5097 7.05721 60.6143C6.8858 60.7537 6.64633 60.7886 6.33796 60.7886C5.48216 60.7886 4.89987 60.0897 4.89987 59.2866C4.89987 58.8666 4.96835 58.5171 5.24227 58.2029C5.37965 58.0635 5.65316 57.9232 6.16738 57.9232C6.54382 57.9232 6.85218 58.0286 6.98873 58.1681C7.09166 58.2378 7.16014 58.4129 7.16014 58.5872C7.16014 58.6229 7.16014 58.6578 7.19459 58.6578C7.22903 58.6578 7.22903 58.6229 7.22903 58.5872V58.1332C7.22903 57.9937 7.26307 57.9589 7.26307 57.9232C7.26307 57.8883 7.26307 57.8883 7.19459 57.8535C7.09166 57.8535 6.9547 57.8535 6.7837 57.8186C6.57826 57.7837 6.37282 57.7489 6.20141 57.7489C5.58509 57.7489 5.20824 57.9589 4.96877 58.2029C4.62637 58.5524 4.52344 59.0417 4.52344 59.3214C4.52344 59.7058 4.62637 60.1951 5.0028 60.5445C5.34479 60.8243 5.72164 60.9986 6.33796 60.9986ZM10.4472 60.474C10.3787 60.684 10.3102 60.8591 10.1048 60.8591C10.0708 60.8591 10.0363 60.894 10.0019 60.894H9.96742C9.96742 60.9289 9.96742 60.9288 10.0359 60.9288H10.8232C10.8577 60.9288 10.8577 60.9289 10.8577 60.894H10.7892C10.7207 60.894 10.6178 60.8243 10.6178 60.7537C10.6178 60.684 10.6522 60.5794 10.6863 60.474L10.9261 59.7402L10.9606 59.7053H11.8508L11.8853 59.7402L12.2621 60.7533C12.2621 60.8239 12.2621 60.8587 12.2277 60.8587L12.1932 60.8936C12.1932 60.9284 12.2617 60.9284 12.3302 60.9284H12.9465C13.015 60.9284 13.0494 60.9284 13.0494 60.8936H13.015C12.9465 60.8936 12.9121 60.8587 12.8436 60.8587C12.7411 60.8239 12.6382 60.7533 12.5012 60.4038C12.2273 59.7746 11.6105 58.0626 11.5421 57.9224C11.5076 57.7829 11.4736 57.748 11.4736 57.748C11.4391 57.748 11.4051 57.7829 11.3706 57.9224L10.4472 60.474ZM11.0295 59.5659C10.995 59.5659 10.995 59.5659 10.995 59.5302L11.3719 58.4125C11.3719 58.3777 11.4063 58.3777 11.4063 58.4125L11.8172 59.5302C11.8172 59.5659 11.8172 59.5659 11.7828 59.5659H11.0295ZM16.6113 60.2299V60.6491C16.6113 60.7537 16.5768 60.8591 16.4743 60.8591C16.4398 60.8591 16.4054 60.894 16.3714 60.894H16.3369C16.3369 60.9289 16.3369 60.9288 16.4054 60.9288H17.2961C17.3305 60.9288 17.3645 60.9289 17.3645 60.894H17.3305C17.2961 60.894 17.1931 60.8591 17.1251 60.8591C17.0221 60.8591 16.9881 60.7537 16.9537 60.6491V59.8805C16.9537 59.7402 16.9537 59.6007 17.0221 59.4605C17.0906 59.2862 17.6729 58.3079 17.7754 58.1328C17.8784 58.0282 17.9124 57.9933 18.0153 57.9228C18.0838 57.8879 18.1523 57.8879 18.1867 57.8879C18.2212 57.8879 18.2552 57.853 18.2552 57.853C18.2552 57.8182 18.2208 57.8182 18.1867 57.8182H17.5359C17.5015 57.8182 17.4675 57.8182 17.4675 57.853C17.4675 57.853 17.5019 57.853 17.5359 57.8879C17.5704 57.8879 17.6044 57.9585 17.6044 57.9933C17.6044 58.0631 17.57 58.1328 17.5359 58.2025C17.433 58.3428 16.9196 59.2513 16.8511 59.4256C16.7827 59.2862 16.1663 58.2374 16.0979 58.1328C16.0634 58.0631 16.0634 57.9933 16.0634 57.9585C16.0634 57.9228 16.0634 57.8879 16.0979 57.8879C16.1323 57.853 16.1663 57.853 16.1663 57.853C16.1663 57.8182 16.1663 57.8182 16.1319 57.8182H15.3786C15.3442 57.8182 15.3101 57.8182 15.3101 57.853C15.3101 57.853 15.3442 57.8879 15.3786 57.8879C15.4131 57.8879 15.4815 57.8879 15.55 57.9585C15.6185 57.9933 15.7214 58.0979 15.8239 58.2374C15.9609 58.4474 16.5087 59.3559 16.5087 59.4256C16.5772 59.5659 16.6117 59.6356 16.6117 59.8805L16.6113 60.2299ZM24.1109 57.8535C24.1109 57.7837 24.0764 57.7489 24.0424 57.7489C24.0424 57.7489 24.008 57.7837 24.008 57.8186L22.8094 60.4043L21.5767 57.8186C21.5423 57.7837 21.5423 57.7489 21.5082 57.7489C21.4742 57.7489 21.4738 57.7837 21.4738 57.8186L21.1658 60.5097C21.1658 60.684 21.1314 60.8243 20.9944 60.8591C20.9604 60.894 20.9259 60.894 20.8919 60.894H20.8575C20.8575 60.9289 20.8919 60.9288 20.9259 60.9288H21.6452C21.6796 60.9288 21.7137 60.9289 21.7137 60.894H21.6792C21.6448 60.894 21.5763 60.8591 21.5078 60.8591C21.4734 60.8591 21.4049 60.7886 21.4049 60.7188V60.5097L21.5763 58.6225H21.6107C21.6452 58.7271 22.0901 59.7053 22.1245 59.7751C22.159 59.8099 22.5014 60.5445 22.6039 60.7533C22.6724 60.8936 22.7068 60.9284 22.7409 60.9284C22.7753 60.9284 22.7753 60.8936 22.8778 60.7184L23.837 58.5515H23.8714L24.0428 60.6836C24.0773 60.7533 24.0773 60.8239 24.0428 60.8239L24.0084 60.8587C24.0084 60.8936 24.0428 60.8936 24.1113 60.8936C24.2827 60.9284 24.7276 60.9284 24.7961 60.9284C24.8646 60.9284 24.8986 60.9284 24.8986 60.8936H24.8646C24.8301 60.8936 24.6932 60.8936 24.5903 60.8239C24.4188 60.7882 24.3848 60.5441 24.3848 60.4038L24.1109 57.8535ZM27.8437 60.474C27.7408 60.684 27.6723 60.8591 27.5013 60.8591C27.4668 60.8591 27.3984 60.894 27.3643 60.894H27.3299C27.3299 60.9289 27.3643 60.9288 27.3984 60.9288H28.1861C28.2205 60.9288 28.2546 60.9289 28.2546 60.894H28.1516C28.0832 60.894 28.0147 60.8243 28.0147 60.7537C28.0147 60.684 28.0147 60.5794 28.0491 60.474L28.3231 59.7402C28.3231 59.7402 28.3231 59.7053 28.3575 59.7053H29.2133C29.2477 59.7053 29.2477 59.7402 29.2477 59.7402L29.6246 60.7533C29.659 60.8239 29.6246 60.8587 29.5902 60.8587V60.8936C29.5902 60.9284 29.6246 60.9284 29.6931 60.9284H30.3438C30.3783 60.9284 30.4123 60.9284 30.4123 60.8936H30.3783C30.3438 60.8936 30.2754 60.8587 30.2069 60.8587C30.138 60.8239 30.001 60.7533 29.8645 60.4038C29.6246 59.7746 28.9742 58.0626 28.9398 57.9224C28.8713 57.7829 28.8713 57.748 28.8369 57.748C28.8024 57.748 28.8024 57.7829 28.7339 57.9224L27.8437 60.474ZM28.3911 59.5659C28.3911 59.5659 28.3571 59.5659 28.3911 59.5302L28.7335 58.4125C28.768 58.3777 28.768 58.3777 28.802 58.4125L29.1789 59.5302V59.5659H28.3911ZM33.5965 58.4125C33.7334 58.552 34.1783 59.0766 34.6581 59.5659C35.069 60.0548 35.6513 60.6487 35.7198 60.6836C35.9256 60.9284 35.9597 60.9633 35.9937 60.9633C36.0281 60.9633 36.0281 60.9284 36.0281 60.6836L36.0622 58.237C36.0622 57.9929 36.0622 57.9224 36.1995 57.8875H36.3025C36.3365 57.8875 36.3365 57.8526 36.3365 57.8526C36.3365 57.8178 36.3025 57.8178 36.268 57.8178H35.5147C35.4463 57.8178 35.4118 57.8178 35.4118 57.8526C35.4118 57.8526 35.4118 57.8875 35.4463 57.8875H35.6517C35.7887 57.9224 35.8231 58.0278 35.8231 58.2726L35.8576 60.369C35.7202 60.2295 35.2753 59.7398 34.8984 59.321C34.2476 58.6221 33.6658 57.9585 33.5973 57.8879C33.5628 57.853 33.4944 57.7485 33.4603 57.7485C33.4263 57.7485 33.4259 57.8182 33.4259 57.9585V60.3345C33.4259 60.7188 33.3914 60.8243 33.2889 60.8591C33.2204 60.8591 33.152 60.894 33.1175 60.894H33.0831C33.0831 60.9289 33.1175 60.9288 33.1515 60.9288H33.9733C34.0078 60.9288 34.0422 60.9289 34.0422 60.894H34.0078C33.9733 60.894 33.9048 60.8591 33.8023 60.8591C33.6994 60.8243 33.6654 60.7188 33.6654 60.3694L33.5965 58.4125ZM44.1096 59.0068V58.1332C44.1096 57.9937 44.1437 57.9232 44.2466 57.8883H44.3495C44.3836 57.8883 44.3836 57.8535 44.3836 57.8535C44.3836 57.8186 44.3836 57.8186 44.3155 57.8186H43.5278C43.4589 57.8186 43.4589 57.8186 43.4589 57.8535C43.4589 57.8535 43.4589 57.8883 43.4937 57.8883H43.5958C43.6988 57.9232 43.7328 57.9937 43.7328 58.1332C43.7677 58.2378 43.7677 58.3781 43.7677 59.0068V59.7406C43.7677 60.1249 43.7677 60.4744 43.7328 60.6491C43.7328 60.7537 43.6988 60.8591 43.6307 60.8591C43.5958 60.8591 43.5278 60.894 43.4937 60.894H43.4589C43.4589 60.9289 43.4937 60.9288 43.5278 60.9288H44.418C44.4869 60.9288 44.4869 60.9289 44.4869 60.894H44.4529C44.418 60.894 44.3499 60.8591 44.2811 60.8591C44.1441 60.8591 44.1441 60.7537 44.1101 60.6491L44.1096 59.0068ZM48.3563 60.9986C48.5738 60.9991 48.7871 60.9387 48.9722 60.8243C49.2461 60.6143 49.3142 60.2997 49.3142 60.1245C49.3142 59.8099 49.2121 59.5659 48.7323 59.1811L48.6293 59.0766C48.2533 58.762 48.1164 58.6225 48.1164 58.3777C48.1164 58.0979 48.3563 57.8879 48.6293 57.8879C49.0062 57.8879 49.1091 58.0631 49.1432 58.1328C49.1432 58.1676 49.178 58.2731 49.178 58.3428C49.178 58.3777 49.178 58.3777 49.2121 58.3777C49.2461 58.3777 49.2461 58.3428 49.2461 58.2731V57.853C49.2461 57.8182 49.2461 57.8182 49.2121 57.8182C49.178 57.8182 49.1432 57.8182 49.0751 57.7833C48.9722 57.7833 48.8692 57.7485 48.6982 57.7485C48.1844 57.7485 47.8765 58.0631 47.8765 58.5171C47.8765 58.7968 47.9794 59.0417 48.3903 59.3907L48.5613 59.5659C48.9381 59.8456 49.0402 60.0199 49.0402 60.2997C49.0402 60.5445 48.8352 60.8243 48.4584 60.8243C48.1844 60.8243 47.9105 60.7188 47.8765 60.4043C47.8424 60.3694 47.8424 60.2997 47.8424 60.2648C47.8424 60.2299 47.8424 60.2299 47.8084 60.2299L47.7736 60.2997V60.7188C47.7736 60.8243 47.7736 60.8591 47.8424 60.894C47.9794 60.9637 48.1844 60.9986 48.3563 60.9986ZM53.2873 59.0068V58.1332C53.2873 57.9937 53.3213 57.9232 53.4583 57.8883H53.5952L53.6292 57.8535C53.6292 57.8186 53.5952 57.8186 53.5612 57.8186H52.6709C52.602 57.8186 52.602 57.8186 52.602 57.8535C52.602 57.8535 52.602 57.8883 52.6361 57.8883H52.773C52.91 57.9232 52.9449 57.9937 52.9449 58.1332V59.7406C52.9449 60.1249 52.9449 60.4744 52.91 60.6491C52.91 60.7537 52.876 60.8591 52.8071 60.8591C52.773 60.8591 52.739 60.894 52.6709 60.894C52.6709 60.9289 52.6709 60.9288 52.705 60.9288H53.1159C53.3557 60.9288 53.6288 60.9637 54.212 60.9637C54.417 60.9637 54.417 60.9289 54.451 60.8243C54.4859 60.7188 54.5199 60.474 54.5199 60.4391C54.5199 60.3694 54.5199 60.3694 54.4859 60.3694C54.451 60.3694 54.451 60.3694 54.451 60.4043C54.451 60.5097 54.417 60.6143 54.3489 60.6491C54.246 60.7886 54.075 60.7886 53.8691 60.7886C53.5271 60.7886 53.4242 60.7537 53.3902 60.684C53.2873 60.6143 53.2873 60.3694 53.2873 59.7406V59.0068ZM57.5683 60.474C57.4654 60.684 57.3965 60.8591 57.2255 60.8591C57.1915 60.8591 57.1226 60.894 57.0885 60.894H57.0545C57.0545 60.9289 57.0885 60.9288 57.1226 60.9288H57.9103C57.9443 60.9288 57.9792 60.9289 57.9792 60.894H57.8763C57.8074 60.894 57.7393 60.8243 57.7393 60.7537C57.7393 60.684 57.7733 60.5794 57.8074 60.474L58.0473 59.7402C58.0473 59.7402 58.0473 59.7053 58.0813 59.7053H58.9379C58.972 59.7053 58.972 59.7402 58.972 59.7402L59.348 60.7533C59.3828 60.8239 59.348 60.8587 59.348 60.8587C59.3139 60.8587 59.3139 60.8936 59.3139 60.8936C59.3139 60.9284 59.348 60.9284 59.4169 60.9284H60.0676C60.1017 60.9284 60.1357 60.9284 60.1357 60.8936H60.1017C60.0676 60.8936 59.9987 60.8587 59.9307 60.8587C59.8618 60.8239 59.7248 60.7533 59.5879 60.4038C59.348 59.7746 58.6976 58.0626 58.6636 57.9224C58.5947 57.7829 58.5947 57.748 58.5607 57.748C58.5266 57.748 58.5266 57.7829 58.4577 57.9224L57.5683 60.474ZM58.1162 59.5659V59.5302L58.4581 58.4125C58.4922 58.3777 58.4922 58.3777 58.527 58.4125L58.9031 59.5302V59.5659H58.1162ZM63.3211 58.4125C63.458 58.552 63.903 59.0766 64.3823 59.5659C64.8281 60.0548 65.4104 60.6487 65.4444 60.6836C65.6502 60.9284 65.7183 60.9633 65.7183 60.9633C65.7523 60.9633 65.7864 60.9284 65.7864 60.6836V58.237C65.7864 57.9929 65.7864 57.9224 65.9242 57.8875H66.0263C66.0603 57.8875 66.0603 57.8526 66.0603 57.8526C66.0603 57.8178 66.0263 57.8178 65.9922 57.8178H65.2394C65.1705 57.8178 65.1364 57.8178 65.1364 57.8526L65.1705 57.8875H65.3763C65.5133 57.9224 65.5473 58.0278 65.5473 58.2726L65.5813 60.369C65.4444 60.2295 64.9995 59.7398 64.6222 59.321C64.1955 58.837 63.7617 58.3593 63.3211 57.8879C63.2871 57.853 63.2182 57.7485 63.1841 57.7485C63.1501 57.7485 63.1501 57.8182 63.1501 57.9585V60.3345C63.1501 60.7188 63.1152 60.8243 63.0131 60.8591C62.9442 60.8591 62.8762 60.894 62.8421 60.894H62.8073C62.8073 60.9289 62.8421 60.9288 62.8762 60.9288H63.6979C63.766 60.9288 63.766 60.9289 63.766 60.894H63.732C63.6979 60.894 63.629 60.8591 63.5261 60.8591C63.424 60.8243 63.3891 60.7188 63.3891 60.3694L63.3211 58.4125ZM69.6561 59.7402C69.6561 60.1245 69.6561 60.474 69.6221 60.6487C69.6221 60.7533 69.5881 60.8587 69.5192 60.8587C69.4851 60.8587 69.4171 60.8936 69.3822 60.8936H69.3482C69.3482 60.9284 69.3822 60.9284 69.4171 60.9284H69.828C69.862 60.9284 70.375 60.9633 70.7182 60.9633C71.403 60.9633 71.7794 60.6836 71.9513 60.5093C72.1563 60.2644 72.3962 59.8452 72.3962 59.321C72.3962 58.8313 72.1903 58.5167 71.9853 58.2731C71.5064 57.7833 70.7522 57.8182 70.3754 57.8182H69.3822C69.3142 57.8182 69.3142 57.8182 69.3142 57.853C69.3142 57.853 69.3142 57.8879 69.3482 57.8879H69.4851C69.5881 57.9228 69.6221 57.9933 69.6561 58.1328V59.7402ZM69.999 58.9371V58.0635C69.999 58.0286 69.999 57.9937 70.033 57.9937C70.067 57.9589 70.238 57.9589 70.3069 57.9589C70.7859 57.9589 71.266 58.0286 71.6429 58.4129C71.779 58.5872 72.0189 58.9375 72.0189 59.4609C72.0189 59.846 71.9168 60.2304 71.711 60.4391C71.4711 60.684 71.0951 60.8243 70.7178 60.8243C70.238 60.8243 70.1019 60.7537 70.033 60.684C69.999 60.6143 69.999 60.474 69.999 60.3694V58.9371ZM76.1966 60.9986C76.4025 60.9986 76.6415 60.9289 76.8134 60.8243C77.0873 60.6143 77.1554 60.2997 77.1554 60.1245C77.1554 59.8099 77.0524 59.5659 76.5735 59.1811L76.4365 59.0766C76.0597 58.762 75.9567 58.6225 75.9567 58.3777C75.9567 58.0979 76.1626 57.8879 76.4365 57.8879C76.8134 57.8879 76.9155 58.0631 76.9503 58.1328C76.9844 58.1676 77.0184 58.2731 77.0184 58.3428C77.0184 58.3777 77.0184 58.3777 77.0524 58.3777V58.2731C77.0524 57.9933 77.0873 57.853 77.0873 57.853C77.0873 57.8182 77.0873 57.8182 77.0524 57.8182C77.0184 57.8182 76.9844 57.8182 76.9155 57.7833C76.8134 57.7833 76.6764 57.7485 76.5395 57.7485C76.0256 57.7485 75.6837 58.0631 75.6837 58.5171C75.6837 58.7968 75.7858 59.0417 76.2307 59.3907L76.4025 59.5659C76.7445 59.8456 76.8474 60.0199 76.8474 60.2997C76.8474 60.5445 76.6764 60.8243 76.2996 60.8243C76.0256 60.8243 75.7517 60.7188 75.6837 60.4043V60.2648C75.6837 60.2299 75.6837 60.2299 75.6488 60.2299C75.6148 60.2299 75.6148 60.2299 75.6148 60.2997C75.6148 60.3694 75.5807 60.5097 75.5807 60.7188C75.5807 60.8243 75.5807 60.8591 75.6488 60.894C75.8206 60.9637 75.9916 60.9986 76.1966 60.9986Z" fill="#00AABC"/>
<path fill-rule="evenodd" clip-rule="evenodd" d="M55.0312 24.6899L58.9699 22.2785L56.4361 18.7142L60.2021 21.265L63.285 17.9452L61.6751 22.0341L66.0931 23.5718L61.3331 23.4668L61.0592 27.73L59.6892 23.6415L55.0312 24.6899Z" fill="#AC853E" stroke="white" stroke-width="12.451" stroke-miterlimit="2.613"/>
<path fill-rule="evenodd" clip-rule="evenodd" d="M23.8675 27.0311L24.1415 22.8027L19.4844 22.4184L24.0045 21.37L22.9428 17.1765L25.5455 20.7761L29.5867 18.6794L26.6412 21.8942L30.203 24.6899L25.7509 23.1522L23.8675 27.0311Z" fill="#AC853E" stroke="white" stroke-width="13.6831" stroke-miterlimit="2.613"/>
<path fill-rule="evenodd" clip-rule="evenodd" d="M9.72718 40.4503C9.72718 43.9449 9.45285 44.0503 7.91225 44.2595L7.39843 44.33C7.19299 44.5741 7.22744 45.1684 7.46733 45.3083C8.85872 45.2361 10.2518 45.201 11.645 45.2028C13.0491 45.2028 14.5216 45.2377 16.4395 45.3083C16.6449 45.168 16.6794 44.5736 16.508 44.33L15.3094 44.2246C13.7684 44.0503 13.4944 43.9449 13.4944 40.4503V26.0175C13.4944 24.7247 13.5285 24.6546 15.138 24.6546C18.083 24.6546 19.761 26.9962 19.761 29.652C19.761 32.3779 18.6994 34.5448 15.7543 35.1383C15.5829 35.3483 15.6173 35.7675 15.8572 35.9422C16.0971 35.9771 16.371 35.9771 16.6449 35.9771C19.2132 35.9771 23.9047 34.6141 23.9047 29.5818C23.9047 27.4154 22.843 25.6681 21.1651 24.6546C19.6925 23.7814 17.4663 23.3265 14.3847 23.3265C11.4396 23.3265 9.52174 23.3613 7.22744 23.6062C6.98755 23.7461 6.98755 24.3051 7.19299 24.5496L8.35716 24.6542C9.69273 24.8638 9.72718 25.3531 9.72718 28.3583V40.4503ZM31.1981 37.3753C32.4652 37.3753 33.2184 37.2359 33.4239 36.9561C33.5268 36.6764 33.5608 36.5017 33.5608 36.1871C33.5608 33.3217 31.1296 31.7491 28.7323 31.7491C24.3832 31.7491 21.8835 35.3487 21.8835 39.0529C21.8835 42.8272 24.3832 45.6581 28.1505 45.6581C30.1024 45.6581 32.4996 44.6799 33.5953 42.0233C33.5608 41.7435 33.2184 41.3941 32.9105 41.4987C32.1572 42.7218 31.0955 43.1418 29.7944 43.1418C26.9178 43.1418 24.8974 40.7649 24.8974 37.7949C24.8974 37.4106 24.9659 37.3757 25.5823 37.3757L31.1981 37.3753ZM25.6163 36.0472C25.2394 36.0472 25.171 35.9775 25.171 35.8376C25.171 35.1383 26.1641 33.0071 28.3215 33.0071C29.7255 33.0071 30.4788 33.9505 30.4788 35.1387C30.4788 35.4185 30.3418 35.6982 30.1364 35.838C29.931 35.9775 29.486 36.0476 28.5614 36.0476H25.6163V36.0472ZM47.3623 26.6472C47.3623 25.2493 47.3964 23.1874 47.4644 21.8593C47.3964 21.7199 47.1905 21.5796 46.9855 21.6149C45.7184 22.1391 44.0404 22.838 42.7737 23.1874C42.5338 23.292 42.5679 23.8166 42.7737 23.9565L43.2186 24.2358C43.9375 24.6903 43.9715 24.8999 43.9715 27.1016V31.4346C43.9715 31.8189 43.9034 31.9239 43.7665 31.9587C43.3556 31.8193 42.7384 31.7491 41.8827 31.7491C37.8419 31.7491 34.1095 34.5797 34.1095 39.3322C34.1095 42.6172 36.4378 45.6577 40.1022 45.6577C41.6776 45.6577 42.8758 44.8882 43.835 44.1897L44.006 44.2246C44.0749 44.3649 44.0749 44.6438 44.0408 45.1331L43.9719 45.6229C44.0408 45.832 44.1778 45.9723 44.3488 46.0072C45.5129 45.4826 47.8077 44.8887 49.4508 44.7492C49.8276 44.5392 49.7596 43.7361 49.4856 43.561C49.0059 43.7361 48.4925 43.8407 48.1496 43.8407C47.5678 43.8407 47.3627 42.8276 47.3627 39.8219L47.3623 26.6472ZM43.9715 42.0229C43.9715 42.5126 43.9034 42.7923 43.7316 42.9662C43.4577 43.246 42.6015 43.7008 41.8146 43.7008C39.5199 43.7008 37.7734 41.4285 37.7734 38.0394C37.7734 35.2786 39.1775 33.042 41.3697 33.042C42.3628 33.042 43.0817 33.5662 43.5266 34.1949C43.8686 34.6494 43.9715 35.1034 43.9715 35.7675V42.0229Z" fill="#AC853E"/>
<path fill-rule="evenodd" clip-rule="evenodd" d="M51.6743 41.2891C51.6743 43.7008 51.5722 44.0847 50.4761 44.2591L49.8943 44.3296C49.6544 44.5737 49.6884 45.168 49.9283 45.3078C51.057 45.2401 52.1875 45.2049 53.3183 45.2024C54.5173 45.2024 55.613 45.2373 57.53 45.3078C57.804 45.1676 57.8388 44.5732 57.5989 44.3296L56.3318 44.2242C55.2017 44.0847 55.0988 43.7004 55.0988 41.2891V36.7461C55.0988 35.1383 55.2698 34.3697 56.0239 34.3697C56.2289 34.3697 56.7768 34.4394 57.5649 34.9989C57.8388 35.1736 58.1127 35.2786 58.4551 35.2786C59.3109 35.2786 60.2701 34.6494 60.2701 33.3566C60.2701 32.4829 59.6193 31.7492 58.4892 31.7492C57.3931 31.7492 56.3323 32.7274 55.3042 33.4616C55.1332 33.4616 54.9963 33.2868 54.9963 33.042C54.9963 32.7627 55.0303 32.2032 55.0652 31.5744C54.9963 31.3648 54.7912 31.2598 54.5854 31.2598C53.6262 31.8542 51.9142 32.5879 50.5106 33.042C50.4077 33.2167 50.4077 33.6712 50.4766 33.811L50.8874 34.0555C51.6743 34.5448 51.6743 34.9291 51.6743 36.432V41.2891ZM68.01 31.7492C64.2432 31.7492 60.9553 34.5099 60.9553 38.9479C60.9553 43.246 64.0373 45.6577 67.7701 45.6577C71.605 45.6577 74.8589 43.2111 74.8589 38.5287C74.8589 34.2302 71.6739 31.7492 68.01 31.7492ZM64.7562 38.4237C64.7562 34.7893 66.0573 33.042 67.7012 33.042C70.0989 33.042 71.0232 36.327 71.0232 39.0878C71.0232 41.6385 70.3724 44.33 68.1462 44.33C65.8178 44.33 64.7562 41.4285 64.7562 38.4237Z" fill="#AC853E"/>
<path fill-rule="evenodd" clip-rule="evenodd" d="M31.5057 46.9505C33.4576 46.9505 34.5877 45.832 34.5877 44.2943C34.5877 42.8969 33.629 42.0577 32.7728 41.6041L31.951 41.1492C31.0608 40.6952 30.684 40.0664 30.684 39.5069C30.684 38.7727 31.1293 38.0742 32.1909 38.0742C33.3211 38.0742 33.8004 38.9828 33.9714 39.6817C34.1088 39.7867 34.3483 39.7867 34.4168 39.6468C34.4168 39.0176 34.2798 38.1091 34.1428 37.8294C33.4921 37.6899 33.0127 37.5152 32.2934 37.5152C30.376 37.5152 29.3828 38.6682 29.3828 40.0311C29.3828 41.2542 30.2735 42.0577 31.2662 42.6516L31.8141 42.9662C32.8417 43.5257 33.1841 44.1545 33.1841 44.9231C33.1841 45.7619 32.6018 46.3911 31.6091 46.3911C30.3079 46.3911 29.5887 44.9231 29.3488 44.2591C29.2459 44.1545 29.0064 44.1545 28.9379 44.2939C28.9039 45.1327 29.0749 46.0765 29.3148 46.3562C29.5883 46.5305 30.2731 46.9505 31.5057 46.9505ZM38.8339 41.9531C38.9369 41.8834 39.0054 41.778 39.0054 41.6037C39.0054 41.4634 38.9709 41.3588 38.9024 41.324H37.6013C37.3274 41.324 37.3274 41.2891 37.3274 41.0791V40.2407C37.2589 40.1353 37.0875 40.1004 36.9505 40.1702C36.7791 40.5553 36.4712 40.835 36.2317 41.0089C35.9233 41.2538 35.6154 41.4281 35.17 41.6033C35.0671 41.673 35.0671 41.883 35.2045 41.9527H35.6838C35.8893 41.9527 35.9237 41.9876 35.9237 42.4416V45.2024C35.9237 46.1458 36.1292 46.9153 37.3963 46.9153C38.218 46.9153 38.8344 46.5301 39.1083 46.1458C39.1427 46.0063 39.0398 45.9009 38.9369 45.9009C38.7314 46.0412 38.56 46.1458 38.2861 46.1458C37.4303 46.1458 37.3274 45.3772 37.3274 44.5035V42.4064C37.3274 41.9872 37.3274 41.9523 37.5673 41.9523H38.8339V41.9531ZM40.7174 46.9157C41.2308 46.9157 41.6076 46.4957 41.6076 46.0072C41.6076 45.5174 41.2308 45.0987 40.7174 45.0987C40.238 45.0987 39.8616 45.5179 39.8616 46.0072C39.8616 46.4957 40.238 46.9157 40.7174 46.9157ZM45.4089 39.7165C45.4089 38.2838 45.5459 38.249 46.1286 38.144L46.3336 38.1091C46.4025 38.0394 46.4025 37.7597 46.2995 37.7248C45.8198 37.7248 45.2375 37.7597 44.6556 37.7597C44.0397 37.7597 43.4566 37.7248 42.7377 37.7248C42.6356 37.7597 42.6356 38.0394 42.7377 38.1091L43.1146 38.144C43.7654 38.2486 43.8675 38.2834 43.8675 39.7165V44.958C43.8675 46.3911 43.7654 47.3697 43.7654 47.6142C43.7305 47.8939 43.5935 48.697 43.2856 48.697C43.1486 48.697 43.0457 48.6621 42.7037 48.4521C42.4987 48.3127 42.2928 48.1732 42.1218 48.1732C41.711 48.1732 41.5051 48.7319 41.5051 49.0116C41.5051 49.3611 41.8819 49.4316 42.1899 49.4316C43.7309 49.4316 44.6896 48.558 45.135 47.4739C45.3749 46.8796 45.4089 45.937 45.4089 44.8534V39.7165ZM51.1276 42.8616C51.1965 41.6734 50.5457 41.1845 49.4845 41.1845C48.7997 41.1845 47.8406 41.6385 47.4297 42.0229C46.9848 42.442 46.9159 42.7218 46.9159 42.8965C46.9159 43.036 46.9848 43.1065 47.1558 43.1065C47.4637 43.1065 47.8406 43.0011 48.0116 42.8616C48.1485 42.7919 48.2514 42.6516 48.2514 42.3719C48.3195 41.9876 48.5934 41.7776 48.9703 41.7776C49.6211 41.7776 49.8261 42.3719 49.792 43.0704L49.758 43.4207C49.758 43.5601 49.7232 43.7004 49.4492 43.7702C48.9703 43.9793 48.4561 44.1545 48.0111 44.3296C47.0869 44.6434 46.881 45.0983 46.881 45.5867C46.881 46.2516 47.3608 46.9153 48.251 46.9153C48.73 46.9153 49.1413 46.7053 49.3812 46.5658C49.5862 46.4255 49.6891 46.3558 49.758 46.3558C49.8261 46.3558 49.8601 46.4255 49.963 46.5301C50.2029 46.8099 50.5798 46.9153 50.9222 46.9153C51.3331 46.9153 51.9842 46.7053 52.2582 46.3209C52.2922 46.1807 52.1893 46.0412 52.1212 46.0412C52.0863 46.0412 51.9154 46.1807 51.6755 46.1807C51.1965 46.1807 50.9907 45.7963 51.0255 44.9933L51.1276 42.8616ZM49.6895 45.5174C49.6895 45.832 49.5526 46.1466 49.0736 46.1466C48.5598 46.1466 48.3199 45.7274 48.3199 45.378C48.3199 44.7837 48.6627 44.6085 49.0388 44.4695C49.2787 44.3649 49.5185 44.2943 49.6215 44.2943C49.6895 44.2943 49.7236 44.3649 49.7236 44.5392L49.6895 45.5174ZM53.2513 45.0983C53.2513 46.1114 53.1824 46.2516 52.7375 46.3214L52.4976 46.3562C52.3955 46.4608 52.3955 46.7057 52.5325 46.7754C53.0115 46.7405 53.4568 46.7057 53.9017 46.7057C54.3815 46.7057 54.8608 46.7405 55.3058 46.7754C55.4087 46.7057 55.4427 46.4608 55.3406 46.3562L55.1348 46.3214C54.6898 46.2516 54.621 46.1114 54.621 45.0983V43.2808C54.621 42.7571 54.6558 42.6168 54.7928 42.4072C54.9638 42.198 55.3058 41.988 55.7519 41.988C56.5388 41.988 56.7791 42.5475 56.7791 43.246V45.0983C56.7791 46.1114 56.7102 46.2516 56.2653 46.3214L56.0943 46.3562C55.9914 46.4608 55.9914 46.7057 56.1283 46.7754C56.5392 46.7405 57.019 46.7057 57.4303 46.7057C57.9433 46.7057 58.3886 46.7405 58.8344 46.7754C58.9373 46.7057 58.9713 46.4608 58.8684 46.3562L58.6634 46.3214C58.2176 46.2516 58.1496 46.1114 58.1496 45.0983V43.1065C58.1496 42.7214 58.1836 42.5471 58.3205 42.4068C58.4915 42.1976 58.8344 41.9876 59.2108 41.9876C60.0674 41.9876 60.3069 42.5471 60.3069 43.2456V45.0978C60.3069 46.1109 60.2388 46.2512 59.7939 46.3209L59.5881 46.3558C59.4851 46.4604 59.4851 46.7053 59.6221 46.775C60.1019 46.7401 60.5472 46.7053 60.9921 46.7053C61.4719 46.7053 61.9172 46.7401 62.4991 46.775C62.5331 46.7053 62.602 46.4604 62.4991 46.3558L62.1911 46.3209C61.7462 46.2512 61.7114 46.1109 61.7114 45.0978V43.0007C61.7114 41.9179 61.1984 41.1841 60.0683 41.1841C59.4515 41.1841 59.0062 41.4281 58.3554 41.8133C58.2185 41.9179 58.1164 41.9527 58.0815 41.9527C58.0134 41.9527 57.9445 41.883 57.8765 41.7427C57.6706 41.4979 57.2257 41.1841 56.6774 41.1841C55.7532 41.1841 55.4103 41.4979 54.7604 41.8481C54.6915 41.8481 54.6226 41.8133 54.6226 41.7079C54.6226 41.6033 54.6226 41.3584 54.6575 41.0787C54.6226 41.0438 54.5886 40.9741 54.4865 40.9741C54.0756 41.2189 53.3563 41.5684 52.7736 41.7079C52.7056 41.7776 52.7056 41.9876 52.7396 42.0225L52.9106 42.1279C53.2534 42.337 53.2534 42.4773 53.2534 43.1061V45.0983H53.2513ZM66.2302 43.4908C66.7781 43.4908 67.086 43.456 67.1545 43.3157C67.2234 43.2111 67.2234 43.1414 67.2234 43.0011C67.2234 41.8137 66.1954 41.1845 65.2375 41.1845C63.4566 41.1845 62.4294 42.6516 62.4294 44.1893C62.4294 45.727 63.4566 46.9153 64.9976 46.9153C65.7845 46.9153 66.7785 46.4953 67.2234 45.4124C67.2234 45.3078 67.0864 45.1676 66.9495 45.2024C66.6415 45.6922 66.1958 45.8665 65.6484 45.8665C64.4834 45.8665 63.6616 44.8883 63.6616 43.6647C63.6616 43.5253 63.6965 43.4904 63.9355 43.4904L66.2302 43.4908ZM63.9351 42.9662C63.7981 42.9662 63.7641 42.8965 63.7641 42.8616C63.7641 42.5819 64.175 41.6734 65.0652 41.6734C65.6479 41.6734 65.9559 42.0926 65.9559 42.5819C65.9559 42.6865 65.887 42.7919 65.8189 42.8616C65.716 42.8965 65.545 42.9662 65.1682 42.9662H63.9351ZM69.3799 46.9157C70.408 46.9157 71.4347 46.3911 71.4347 45.2028C71.4347 44.12 70.6819 43.6651 69.9618 43.3157C69.4488 43.0708 69.0716 42.7919 69.0716 42.4072C69.0716 41.988 69.3795 41.7083 69.8252 41.7083C70.3382 41.6734 70.7495 42.198 70.9554 42.8268C71.0575 42.8965 71.2974 42.8616 71.3314 42.7571C71.3314 42.1627 71.2633 41.7431 71.1264 41.4634C70.9554 41.324 70.4416 41.1845 69.8933 41.1845C68.7972 41.1845 67.8725 41.8137 67.9074 42.8616C67.9074 43.7353 68.6262 44.2242 69.3114 44.5737C69.7904 44.8185 70.2357 45.1331 70.2357 45.6224C70.2357 46.1114 69.8937 46.3911 69.4828 46.3911C68.764 46.3911 68.2838 45.6573 68.0448 44.9231C67.9418 44.8185 67.7368 44.8185 67.6679 44.9231C67.6339 45.5174 67.7019 46.2168 67.8389 46.4608C68.2842 46.8103 68.8321 46.9157 69.3799 46.9157Z" fill="white"/>
</g>
<defs>
<clipPath id="clip0_951_735">
<rect width="80" height="80" fill="white" transform="translate(0.683594)"/>
</clipPath>
</defs>
</svg>
