<svg width="81" height="80" viewBox="0 0 81 80" fill="none" xmlns="http://www.w3.org/2000/svg">
<g style="mix-blend-mode:luminosity" opacity="0.5" clip-path="url(#clip0_951_87)">
<path fill-rule="evenodd" clip-rule="evenodd" d="M67.5665 46.3894V41.6311L67.6404 41.5817L67.7151 41.5323L67.7889 41.4709L67.8504 41.4094L67.9126 41.3472L67.974 41.2733L68.0355 41.2119L68.0849 41.1372L68.1342 41.0633L68.1716 40.9886L68.221 40.9027L68.2583 40.828L68.2949 40.7412L68.3322 40.6553L68.3575 40.5806L68.3941 40.4939L68.4194 40.408L68.4439 40.3212L68.4692 40.2345L68.4937 40.1486L68.519 40.0618L68.5435 39.9631L68.5688 39.8514L68.5808 39.7402L68.6053 39.629L68.6182 39.5302L68.6302 39.4314V39.1845L68.6182 39.1102L68.6053 39.0359L68.5933 38.9744L68.5688 38.9251L68.5435 38.8632L68.519 38.8138L68.4816 38.7769L68.4443 38.7275L68.3949 38.6906L68.3455 38.6536L68.2961 38.6287L68.2467 38.6038L68.1853 38.5789L68.1114 38.554L68.0492 38.5416L67.9753 38.5167L67.8885 38.5042H67.8018L67.7159 38.4918L67.6291 38.4793H67.5677V35.8841H72.424L72.5361 35.8962H72.6473L72.7585 35.9086L72.8826 35.9206L72.9939 35.9331L73.1171 35.958L73.2284 35.9825L73.3404 36.0194L73.4637 36.0564L73.5749 36.1062L73.687 36.1555L73.7857 36.2174L73.897 36.2792L73.9958 36.3535L74.0945 36.4278L74.1804 36.5141L74.2672 36.6129L74.3539 36.7241L74.4278 36.8354L74.4901 36.9591L74.5515 37.0952L74.6129 37.2434L74.6503 37.3915L74.6876 37.5521L74.7241 37.7377L74.7362 37.9232L74.749 38.1211V38.5536L74.7237 38.7885L74.6872 39.0355L74.6498 39.2949L74.6005 39.5049L74.5631 39.6904L74.5137 39.8884L74.4643 40.0614L74.4149 40.2469L74.3655 40.4196L74.3041 40.5802L74.2547 40.7408L74.1933 40.9023L74.131 41.0504L74.0696 41.1857L73.9958 41.3219L73.9343 41.458L73.8596 41.5813L73.7857 41.6925L73.711 41.8046L73.6372 41.9158L73.5504 42.0146L73.4637 42.1133L73.3898 42.1993L73.291 42.286L73.2043 42.3607L73.1175 42.4221L73.0188 42.4835L72.92 42.545L72.8212 42.5944L72.7224 42.6438L72.6236 42.6811L72.5124 42.7064L72.4136 42.7309L72.3024 42.7562H72.1912L74.0078 47.4893H67.989L67.5665 46.3894ZM67.5665 35.8845V38.4797H67.3191L67.2079 38.4673L66.5036 41.9033H66.6268L66.7509 41.8905L66.8742 41.8784L66.9854 41.8539L67.0967 41.8286L67.1954 41.8041L67.2942 41.7668L67.393 41.7294L67.4797 41.68L67.5665 41.6311V46.3894L66.2687 43.0152L65.5884 46.401H60.0403V44.0403L61.7336 35.8837H67.5665V35.8845ZM60.0403 38.8383L60.5346 36.5274H60.0403V38.8383ZM60.0403 36.5274V38.8383L59.9909 39.1098H54.8491L54.5531 40.6055H58.5565L58.0257 43.1883H54.009L53.7496 44.474H58.8782L58.3586 47.0568H48.1255V42.5338L49.3739 36.527L60.0403 36.5274ZM60.0403 44.0412L59.558 46.4019H60.0403V44.0412ZM48.1259 36.7993L49.0656 35.8849H48.1259V36.7993ZM20.418 47.6997H30.7373L31.2814 45.1161H26.35L28.0803 36.7374H22.0739L20.418 44.7339V47.6997ZM48.1259 35.8849V36.7993L44.394 40.5188L45.8773 47.6993H39.8954L38.9807 43.2132L38.1772 47.0564H32.1584L34.3336 36.5266H40.3399L39.3883 41.1737L44.6779 35.8841H48.1259V35.8849ZM48.1259 42.5334L47.1996 47.0564H48.1259V42.5334ZM20.418 39.4808V36.527H21.0355L20.418 39.4808ZM20.418 34.5747V32.4244L20.5043 32.4738L20.5906 32.5232L20.6769 32.585L20.7512 32.6344L20.8255 32.6963L20.8874 32.7577L20.9492 32.8195L20.9986 32.8938L21.048 32.9556L21.0849 33.0299L21.1223 33.1042L21.1472 33.1906L21.1721 33.2644L21.197 33.3387V33.4989L21.1845 33.5853L21.1725 33.6595L21.1476 33.7459L21.1227 33.8202L21.0853 33.8945L21.0359 33.9687L20.999 34.0426L20.9372 34.1169L20.8753 34.1908L20.8135 34.2651L20.7396 34.3269L20.6653 34.4012L20.591 34.4626L20.5047 34.5245L20.418 34.5747ZM19.8124 47.6997H20.418V44.7339L19.8124 47.6997ZM20.418 32.4244V34.5871L20.3188 34.649L20.22 34.7108L20.1212 34.7727L20.01 34.8221L19.8988 34.8719L19.7875 34.9212L19.6638 34.9706L19.5402 35.008L19.4169 35.0449L19.2932 35.0819L19.1695 35.1188L19.0334 35.1562L18.8973 35.1811L18.7612 35.206L18.6254 35.218L18.4773 35.2429L18.3287 35.2553H17.785L17.6493 35.2429L17.5132 35.2304L17.3895 35.218L17.2658 35.1931L17.1421 35.1682L17.0184 35.1433L16.9072 35.1184L16.7956 35.0814L16.6843 35.0445L16.5856 35.0076L16.4868 34.9702L16.388 34.9208L16.3017 34.8714L16.2153 34.8216L16.129 34.7722L16.0547 34.7104L15.9804 34.6486L15.9186 34.5867L15.8568 34.5249L15.8074 34.463L15.758 34.3888L15.721 34.3269L15.6841 34.2526L15.6592 34.1787L15.6343 34.1045L15.6223 34.0177L15.6098 33.9438V33.8575L15.6223 33.7832L15.6343 33.6969L15.6592 33.623L15.6841 33.5363L15.721 33.462L15.7704 33.3877L15.8074 33.3014L15.8692 33.2271L15.9186 33.1528L15.9925 33.091L16.0543 33.0167L16.1406 32.9424L16.2145 32.8805L16.3008 32.8062L16.3872 32.7444L16.4859 32.6826L16.5847 32.6332L16.6835 32.5717L16.7947 32.5224L16.9064 32.473L17.0296 32.4236L17.1409 32.3742L17.2645 32.3248L17.3882 32.2879L17.5244 32.2509L17.6605 32.226L17.7838 32.1891L17.9323 32.1642L18.0681 32.1393L18.2162 32.1144L18.3523 32.1019H18.4885L18.6366 32.0895H19.0446L19.1683 32.1019L19.304 32.1144L19.4277 32.1268L19.5514 32.1517L19.6751 32.1766L19.7863 32.2015L19.8975 32.2264L20.0087 32.2634L20.12 32.3003L20.2187 32.3373L20.3175 32.3866L20.418 32.4244ZM20.418 36.527V39.4808L19.3053 44.9061L19.2438 45.129L19.182 45.3269L19.0957 45.5116L18.9969 45.6971L18.8732 45.8827L18.7495 46.0433L18.6014 46.2039L18.4532 46.3521L18.2801 46.4882L18.0946 46.6243L17.9095 46.7596L17.6991 46.8709L17.4891 46.9829L17.2666 47.0941L17.0317 47.1809L16.7848 47.2797L16.5374 47.3656L16.278 47.4403L16.0186 47.5017L15.7468 47.5764L15.4749 47.625L15.1906 47.6872L14.9063 47.7246L14.6096 47.7731L14.3128 47.8105L14.0165 47.8358L13.7202 47.8603L13.411 47.8856L13.1146 47.8976L12.8054 47.9097H11.1739L11.0249 47.8972H10.8643L10.7162 47.8852H10.5555L10.4074 47.8723L10.2463 47.8603L10.0982 47.8483L9.93756 47.8362L9.7894 47.8234L9.64123 47.7989L9.49306 47.7868L9.3449 47.7615L9.19673 47.737L9.0606 47.7117L8.91243 47.6744L8.77672 47.6378L8.64059 47.6125L8.51691 47.576L8.39323 47.5266L8.26955 47.4893L8.14628 47.4399L8.03464 47.3905L7.93586 47.3291L7.82463 47.2797L7.73831 47.205L7.61463 47.1311L7.5034 47.0443L7.39217 46.9576L7.29298 46.8588L7.20665 46.7729L7.10787 46.6741L7.03358 46.5754L6.94726 46.4766L6.87296 46.3778L6.81113 46.279L6.74929 46.1802L6.68745 46.0682L6.63806 45.9702L6.58867 45.8582L6.53886 45.7594L6.50193 45.6482L6.46499 45.5494L6.42805 45.4382L6.40315 45.3269L6.37825 45.2282L6.36621 45.1161L6.34131 45.0182L6.32886 44.9061V44.8073L6.31641 44.7085V44.4985L6.32886 44.3998V44.3138L6.34131 44.2151L6.35376 44.1283L6.37825 44.0295L7.71299 37.6028H13.7314L12.2609 44.6965L12.2485 44.7339V44.7712L12.236 44.7957V44.8575L12.2236 44.8829V44.9447L12.236 44.97V45.0318L12.2485 45.0563V45.0817L12.2609 45.1061V45.1315L12.2734 45.1559L12.2858 45.1688L12.2983 45.1933L12.3107 45.2186L12.3356 45.2307L12.3477 45.2551L12.3726 45.268L12.385 45.28L12.4099 45.2921L12.4348 45.3041L12.4597 45.3161L12.4846 45.329H12.5216L12.5465 45.341H12.8054L12.8303 45.329L12.8677 45.3161H12.9046L12.9295 45.3041L12.9669 45.2921L12.9914 45.28L13.0163 45.268L13.0412 45.2427L13.0661 45.2307L13.091 45.2053L13.1159 45.1933L13.1279 45.1688L13.1528 45.1435L13.1777 45.1315L13.1902 45.1061L13.2026 45.0817L13.2275 45.0443L13.24 45.0198L13.2524 44.9945L13.2649 44.97L13.2773 44.9327L13.2898 44.9073L13.3022 44.8708L13.3147 44.8455L13.3271 44.8081V44.7716L13.3396 44.7343L13.352 44.6969L15.0329 36.5278H20.418V36.527ZM12.2613 33.1163L12.1132 33.1038L11.977 33.0789L11.8289 33.0665L11.6927 33.0544H11.1611L11.0374 33.0665L10.9013 33.0789L10.7776 33.1038L10.6664 33.1163L10.5427 33.1412L10.4315 33.1781L10.3331 33.2026L10.2219 33.2395L10.1231 33.2769L10.0243 33.3138L9.93798 33.3636L9.8392 33.413L9.76491 33.4624L9.67858 33.5118L9.61674 33.5736L9.54245 33.6234L9.48103 33.6849L9.43122 33.7587L9.38184 33.8206L9.33245 33.8949L9.29551 33.9692L9.27061 34.043L9.24571 34.1173L9.23325 34.1912L9.2208 34.2775V34.4381L9.23325 34.5124L9.24571 34.5867L9.27061 34.6731L9.30754 34.7473L9.34448 34.8212L9.38142 34.908L9.43081 34.9823L9.49223 35.0561L9.55407 35.1304L9.61591 35.2047L9.68979 35.2786L9.76408 35.3529L9.85082 35.4143L9.93715 35.4761L10.0235 35.538L10.1223 35.5998L10.221 35.6617L10.3198 35.7231L10.4315 35.7849L10.5427 35.8343L10.6664 35.8962L10.7776 35.9455L10.9013 35.9825L11.0374 36.0319L11.1611 36.0688L11.2968 36.1062L11.4329 36.1431L11.5691 36.168L11.7172 36.1929L11.8534 36.2178L11.9895 36.2427L12.1377 36.2552L12.2734 36.2676H12.805L12.9287 36.2552L13.0524 36.2427L13.1761 36.2178L13.2997 36.2054L13.411 36.1805L13.5222 36.1435L13.6334 36.1186L13.7447 36.0817L13.8434 36.0447L13.9422 36.0078L14.0285 35.9584L14.1149 35.909L14.2012 35.8596L14.2755 35.8102L14.3498 35.7484L14.4116 35.699L14.4735 35.6372L14.5349 35.5629L14.5843 35.501L14.6337 35.4392L14.671 35.3649L14.6955 35.2906L14.7204 35.2163L14.7453 35.13V34.8959L14.7328 34.8216L14.7204 34.7353L14.6835 34.661L14.6586 34.5747L14.6216 34.5004L14.5718 34.4261L14.5224 34.3522L14.473 34.2655L14.4112 34.1912L14.3494 34.1173L14.2751 34.0555L14.1887 33.9812L14.1145 33.9069L14.0281 33.8451L13.9298 33.7836L13.8434 33.7218L13.7447 33.66L13.6334 33.5985L13.5222 33.5367L13.411 33.4873L13.2997 33.4379L13.1761 33.3885L13.0524 33.3391L12.9287 33.2893L12.805 33.2524L12.6693 33.2155L12.5332 33.1785L12.397 33.1536L12.2613 33.1163Z" fill="#CC262D"/>
<path fill-rule="evenodd" clip-rule="evenodd" d="M47.1362 39.9257L46.5801 42.5707V40.4698L47.1362 39.9257ZM46.5801 49.85H48.5199L48.3967 49.2071H60.1126L60.2487 48.5522H66.0941L66.5149 49.64H77.1186L74.8691 43.7693L74.9679 43.6706L75.0546 43.5718L75.1534 43.4605L75.2401 43.3485L75.3389 43.2373L75.4128 43.114L75.4995 43.0019L75.5734 42.8787L75.6601 42.7554L75.734 42.6313L75.7963 42.508L75.8701 42.3719L75.9316 42.2478L75.9938 42.1125L76.0553 41.9764L76.1167 41.8403L76.1661 41.717L76.2155 41.5809L76.2648 41.4447L76.3142 41.3094L76.3636 41.1733L76.413 41.0372L76.4504 40.9019L76.4869 40.7657L76.5242 40.6296L76.5616 40.4935L76.5989 40.3582L76.6355 40.222L76.6608 40.0859L76.6853 39.9627L76.7106 39.8265L76.7479 39.6904V39.6535L76.76 39.6041L76.772 39.5547V39.5053L76.784 39.4559L76.7969 39.419V39.3696L76.809 39.3202V39.2708L76.821 39.2214L76.833 39.1845V39.1351L76.8459 39.0853V39.0359L76.8579 38.9989V38.9002L76.87 38.8508V38.764L76.882 38.7146V38.6283L76.8949 38.5789V38.2701L76.9069 38.2208L76.8949 37.9983L76.882 37.7758L76.8575 37.5534L76.8322 37.3434L76.7957 37.1454L76.7583 36.9474L76.6969 36.7495L76.6475 36.5644L76.5861 36.3913L76.5114 36.2182L76.4246 36.0452L76.3508 35.8845L76.252 35.7235L76.1652 35.5753L76.054 35.4521L75.9552 35.3159L75.844 35.1802L75.7319 35.0566L75.6087 34.9333L75.4854 34.8216L75.3493 34.7229L75.2252 34.6116L75.0899 34.5253L74.9417 34.439L74.8056 34.3527L74.6574 34.2659L74.5093 34.2045L74.3611 34.1302L74.2005 34.0684L74.0523 34.019L73.8917 33.9696L73.7435 33.9202H73.6941L73.6447 33.9077L73.6074 33.8953L73.558 33.8828H73.5207L73.4713 33.8704L73.4347 33.8579H73.3853L73.348 33.8455L73.2986 33.833H73.2613L73.2119 33.8206H73.1753L73.138 33.8081H73.0512L73.0019 33.7957H72.928L72.8786 33.7832H72.8039L72.7665 33.7708H72.4573L72.42 33.7583H59.9889L59.8528 34.4012H53.636L54.291 33.7583H46.5796V34.4012H52.7097L52.0668 35.0312H60.3716L60.5077 34.4012H72.4212L72.4465 34.4133H72.7682L72.7935 34.4257H72.9047L72.9421 34.4382H73.016L73.0533 34.4506H73.0907L73.128 34.4631H73.1646L73.2019 34.4755H73.2393L73.2766 34.488H73.3131L73.3625 34.5004L73.3999 34.5129H73.4372L73.4737 34.5253L73.5111 34.5378L73.5485 34.5502H73.5978L73.7211 34.5872L73.8572 34.6365L73.9805 34.6735L74.1166 34.7229L74.2407 34.7723L74.364 34.8341L74.4881 34.8959L74.6114 34.9698L74.7226 35.0441L74.8346 35.1184L74.9459 35.2051L75.0571 35.2915L75.1683 35.3902L75.2671 35.4766L75.3659 35.5878L75.4526 35.699L75.5394 35.8102L75.6253 35.9339L75.712 36.0572L75.7867 36.1933L75.8606 36.329L75.922 36.4776L75.9835 36.6258L76.0328 36.774L76.0822 36.9346L76.1316 37.1076L76.169 37.2807L76.1943 37.4538L76.2188 37.6393L76.2308 37.8244L76.2437 38.0224L76.2557 38.2203L76.2437 38.2697V38.6399L76.2308 38.6769V38.801L76.2188 38.8504V38.9242L76.2067 38.9736V39.0106L76.1947 39.06V39.1467L76.1818 39.1836V39.233L76.1698 39.27L76.1578 39.3194V39.3563L76.1457 39.4057V39.4551L76.1329 39.492L76.1208 39.5414V39.5783L76.0835 39.7265L76.059 39.8626L76.0216 40.0108L75.9971 40.1469L75.9598 40.2951L75.9224 40.4304L75.8851 40.5786L75.8357 40.7147L75.7992 40.8629L75.7498 40.999L75.7004 41.1343L75.651 41.2704L75.6016 41.4065L75.5402 41.5419L75.4908 41.678L75.4286 41.8141L75.3671 41.9374L75.3057 42.0735L75.231 42.1968L75.1571 42.3209L75.0957 42.4441L75.009 42.5562L74.9342 42.6795L74.8604 42.7907L74.7736 42.9027L74.6877 43.0007L74.5889 43.1127L74.5022 43.2115L74.4034 43.3103L74.3046 43.3962L74.2059 43.495L74.1071 43.5697L76.1831 48.995H66.9511L66.5311 47.9072H59.7212L59.598 48.5501H47.5977L47.7339 49.205H46.5842V49.85H46.5801ZM46.5801 42.5707L46.4688 43.1389L46.036 41.0135L46.5801 40.4698V42.5707ZM46.5801 33.7587H43.7989L42.922 34.6361L42.9714 34.4016H32.5897L30.8101 42.9662H28.981L30.7233 34.6116H23.0735L23.0859 34.5867L23.1108 34.5373L23.1233 34.5004L23.1482 34.4635L23.1606 34.4265L23.1731 34.3771L23.198 34.3398L23.2104 34.2904L23.2229 34.241L23.2353 34.1916L23.2478 34.1547L23.2602 34.1053L23.2723 34.0559L23.2847 34.0065L23.2967 33.9571L23.3092 33.8953V33.8459L23.3212 33.7965V33.7471L23.3337 33.6977V33.5865L23.3457 33.5371V33.3271L23.3337 33.2777V33.1781L23.3212 33.1287V33.0669L23.2843 32.8818L23.2474 32.7087L23.2104 32.5356L23.1486 32.375L23.0867 32.2144L23.0124 32.0662L22.9382 31.9181L22.8639 31.7819L22.7651 31.6462L22.6788 31.5226L22.58 31.3989L22.4688 31.2876L22.3575 31.1889L22.2463 31.0776L22.1351 30.9913L22.0238 30.8925L21.9006 30.8058L21.7769 30.7319L21.6532 30.6576L21.5295 30.5833L21.4059 30.5215L21.2822 30.4597L21.1465 30.3978L21.0228 30.3484L20.9116 30.299L20.7879 30.2621L20.6646 30.2127L20.5534 30.1754L20.4422 30.1505L20.3309 30.1135L20.2321 30.0886L20.1334 30.0637L20.0097 30.0513L19.8985 30.0264L19.7872 30.0143L19.676 29.9894L19.5523 29.977L19.4411 29.9649L19.3294 29.9525H19.2062L19.095 29.94H18.9837L18.8605 29.9276H18.6256L18.5143 29.94H18.4031L18.2794 29.9525H18.1682L18.057 29.9649L17.9337 29.977L17.822 30.0019L17.7108 30.0143L17.5996 30.0392L17.4759 30.0513L17.3647 30.0762L17.2535 30.1011L17.1422 30.1256L17.031 30.1629L16.9077 30.1878L16.7961 30.2247L16.6849 30.2496L16.5736 30.2866L16.4749 30.3235L16.413 30.3484L16.3516 30.3733L16.3018 30.3982L16.2399 30.4231L16.1785 30.448L16.1167 30.4729L16.0548 30.4978L15.993 30.5227L15.9316 30.5597L15.8697 30.5846L15.7954 30.6215L15.7336 30.6585L15.6718 30.6834L15.5979 30.7203L15.5361 30.7572L15.4742 30.7946L15.4003 30.844L15.3385 30.8809L15.2642 30.9303L15.2028 30.9677L15.1285 31.017L15.0666 31.0668L15.0052 31.1038L14.9309 31.1532L14.8691 31.215L14.8073 31.2644L14.733 31.3138L14.6715 31.3756L14.6097 31.425L14.5479 31.4869L14.486 31.5487L14.4366 31.5981L14.3379 31.5607L14.2515 31.5113L14.1652 31.4744L14.0664 31.4375L13.9801 31.4005L13.8813 31.3636L13.795 31.3267L13.7087 31.2897L13.6099 31.2648L13.5236 31.2279L13.4248 31.203L13.3385 31.166L13.2397 31.1415L13.1533 31.1166L13.0546 31.0917L12.9558 31.0668L12.8695 31.0544L12.7707 31.0295L12.6719 31.017L12.5856 30.9926L12.4868 30.9801L12.388 30.9681L12.2893 30.9556L12.2029 30.9436L12.1041 30.9311L12.005 30.9191H11.9062L11.807 30.9066H11.5057L11.4069 30.8946L11.2832 30.9066H11.1599L11.0234 30.9166L10.8877 30.9286L10.7395 30.9411L10.5914 30.9531L10.4307 30.978L10.2697 31.015L10.1091 31.0399L9.94847 31.0772L9.7754 31.1266L9.61478 31.176L9.44171 31.2378L9.2811 31.2997L9.10803 31.3615L8.94741 31.4478L8.78679 31.5221L8.62617 31.6209L8.46556 31.7197L8.31739 31.8309L8.16922 31.9421L8.03309 32.0658L7.89738 32.202L7.7737 32.3381L7.65002 32.4987L7.55124 32.6593L7.45246 32.8324L7.35369 33.0179L7.27898 33.2026L7.20469 33.4126L7.1553 33.623L7.11836 33.8455L7.10591 33.8704V33.8953L7.09346 33.9077V33.97L7.08101 33.9824V34.0688L7.06856 34.0812V34.6008L7.08101 34.6378V34.7117L7.09346 34.7486V34.8104L7.10591 34.8474V34.8843L7.11836 34.9213V34.9582L7.13081 34.9951L7.14326 35.0321V35.057L7.1553 35.0943L7.16775 35.1313V35.1682L7.17979 35.2055L7.19224 35.23L7.20427 35.267L7.21672 35.3039L7.22876 35.3408L7.24121 35.3658V35.4027L7.25366 35.4396L7.27856 35.4645H5.96872L4.27539 43.5963L4.26294 43.6336V43.6589L4.25049 43.6955V43.7208L4.23804 43.7573V43.82L4.22559 43.8444V43.8818L4.21313 43.9063V43.969L4.20068 44.0055V44.0926L4.18823 44.13V44.2537L4.17578 44.291V44.8974L4.18823 45.0335L4.20068 45.1817L4.21313 45.317L4.23804 45.4651L4.26294 45.6133L4.29988 45.7494L4.32478 45.8976L4.37417 46.0458L4.4111 46.1939L4.46049 46.3421L4.50988 46.4782L4.57172 46.6264L4.63356 46.7746L4.70785 46.9099L4.76928 47.058L4.85602 47.2062L4.9299 47.3423L5.02867 47.4785L5.115 47.6138L5.21378 47.7619L5.32501 47.886L5.43623 48.0213L5.54746 48.1575L5.67114 48.2816L5.79482 48.4048L5.93095 48.5281L6.06708 48.6522L6.21525 48.7634L6.37587 48.8875L6.53649 48.9863L6.6971 49.0975L6.85772 49.1834L7.03079 49.283L7.20386 49.3569L7.38938 49.4437L7.57448 49.5051L7.75959 49.579L7.95756 49.6283L8.15553 49.6906L8.3535 49.74L8.55147 49.7894L8.74944 49.8259L8.94699 49.8632L9.14497 49.9006L9.34294 49.9251L9.55294 49.9504L9.73846 49.9749L9.93643 50.0002L10.1344 50.0122L10.3195 50.0243L10.505 50.0371L10.6905 50.0492H10.8761L11.0491 50.0612H11.6796L11.8157 50.0733H12.0751L12.1988 50.0612H12.8545L13.0027 50.0492H13.287L13.4352 50.0371L13.5958 50.0243L13.7439 50.0122H13.9046L14.0652 50.0002L14.2258 49.9749L14.3864 49.9629L14.547 49.9508L14.7201 49.9255L14.8807 49.9135L15.0538 49.889L15.2144 49.8637L15.3875 49.8392L15.5605 49.8018L15.7212 49.7765L15.8942 49.74L16.0673 49.7147L16.2404 49.6773L16.4134 49.6279L16.5865 49.5914L16.7471 49.542L16.9202 49.5047L17.0933 49.4553L17.2663 49.3938L17.1675 49.8512H32.4802L32.6163 49.2083H38.0047L38.1408 49.8512H46.5821V49.2083H38.6704L38.5342 48.5534H32.083L31.9593 49.2083H17.9569L18.1425 48.3434L17.9569 48.4293L17.7839 48.504L17.5988 48.5779L17.4257 48.6526L17.2402 48.714L17.0547 48.7755L16.8571 48.8377L16.6716 48.8871L16.4736 48.9485L16.2881 48.9979L16.0905 49.0353L15.8926 49.0846L15.6946 49.1212L15.5091 49.1585L15.3111 49.1959L15.1135 49.2204L14.9156 49.2457L14.7176 49.2702L14.5321 49.2955L14.3345 49.32L14.149 49.332L13.951 49.3573L13.7655 49.3694L13.58 49.3814L13.3949 49.3943L13.2094 49.4063H13.0363L12.8632 49.4183H12.1979L12.0743 49.4304H11.9385L11.8024 49.4183H11.0363L10.8756 49.4063H10.7026L10.5295 49.3943L10.3444 49.3814L10.1713 49.3694L9.98582 49.3557L9.8003 49.3303L9.6152 49.3059L9.42968 49.2938L9.24416 49.2565L9.07109 49.232L8.88557 49.1946L8.70047 49.1573L8.51495 49.1199L8.34188 49.0705L8.15636 49.0211L7.98329 48.9718L7.82267 48.9103L7.6496 48.8489L7.48899 48.7875L7.32837 48.7128L7.1802 48.6389L7.03203 48.5522L6.89632 48.4534L6.74815 48.3666L6.61244 48.2679L6.48876 48.1566L6.36549 48.0579L6.24181 47.9466L6.13058 47.8354L6.03181 47.7242L5.92058 47.6121L5.8218 47.5009L5.73547 47.3776L5.64915 47.2535L5.56282 47.1303L5.48853 47.0182L5.41424 46.8949L5.3524 46.7588L5.27811 46.6355L5.22872 46.5114L5.16688 46.3882L5.11749 46.2521L5.0681 46.1288L5.03116 46.0047L4.99422 45.8694L4.95729 45.7453L4.92035 45.6092L4.89545 45.4859L4.87055 45.3618L4.85851 45.2385L4.84606 45.1024L4.83402 44.9791L4.82157 44.8551V44.2973L4.83402 44.2728V44.1856L4.84606 44.1611V44.074L4.85851 44.0486V43.9623L4.87055 43.937V43.8872L4.883 43.8498V43.8L4.89503 43.7756V43.7502L4.90748 43.7137L6.48917 36.0879H8.41741L8.36802 36.051L8.33109 36.0016L8.29415 35.9522L8.26925 35.9028L8.23231 35.8655L8.19537 35.8161L8.15843 35.7667L8.13353 35.7173L8.09659 35.6559L8.07169 35.6065L8.03434 35.5571L8.00944 35.5077L7.98453 35.4708L7.95963 35.4089L7.93473 35.3595L7.91024 35.2977L7.88534 35.2483L7.86044 35.1865L7.83554 35.1371L7.82309 35.0752L7.79818 35.0134L7.78573 34.952L7.7737 34.8901L7.76125 34.8407L7.74921 34.7789L7.73676 34.7171L7.72431 34.6552V34.5809L7.71186 34.5191V34.1169L7.72431 34.1045V34.0306L7.73676 34.0181V33.9688L7.74921 33.9439L7.77411 33.7708L7.8235 33.5977L7.87289 33.4367L7.93431 33.2885L8.00861 33.1403L8.09535 33.0042L8.18167 32.8805L8.268 32.7569L8.37923 32.6332L8.47801 32.5344L8.60169 32.4232L8.71292 32.3368L8.8366 32.2505L8.97231 32.1642L9.10844 32.0899L9.24457 32.0156L9.3807 31.9538L9.51642 31.8923L9.65255 31.843L9.80072 31.7932L9.94888 31.7438L10.085 31.7064L10.2332 31.6695L10.3693 31.6446L10.505 31.6197L10.6536 31.5948L10.7893 31.5823L10.913 31.5574H11.0487L11.1724 31.5454H11.2836L11.4073 31.5329L11.4812 31.5454H11.7904L11.8767 31.5574H11.9506L12.0249 31.5699H12.0992L12.1855 31.584L12.2594 31.5964L12.3337 31.6089L12.4075 31.6213L12.4818 31.6338L12.5682 31.6462L12.6424 31.6587L12.7167 31.6711L12.791 31.6836L12.8653 31.7081L12.9396 31.7205L13.0135 31.7454L13.0878 31.7575L13.1616 31.7824L13.2359 31.8073L13.3102 31.8322L13.3845 31.8567L13.4588 31.8816L13.5327 31.9065L13.607 31.9314L13.6809 31.9683L13.7551 31.9932L13.8294 32.0181L13.8419 32.0306L13.8668 32.043L13.8917 32.0555L13.9162 32.0679H13.9411L13.9535 32.0804L13.9784 32.0928L14.0033 32.1053L14.0282 32.1177L14.0531 32.1302L14.078 32.1426H14.1029L14.1278 32.1551L14.1527 32.1675L14.1776 32.18L14.2026 32.1924L14.2275 32.2049L14.2524 32.2173L14.2773 32.2298L14.3022 32.2422L14.3271 32.2547L14.352 32.2671L14.3769 32.292L14.4018 32.3045L14.4267 32.3165L14.4516 32.329L14.4765 32.3414L14.5014 32.3539L14.5259 32.3788L14.5508 32.3912L14.5757 32.4037L14.6006 32.4161L14.65 32.3543L14.6993 32.28L14.7487 32.2181L14.8106 32.1563L14.86 32.0945L14.9218 32.0202L14.9836 31.9708L15.0455 31.9089L15.1073 31.8475L15.1692 31.7977L15.243 31.7359L15.3049 31.6865L15.3792 31.6371L15.4406 31.5877L15.5149 31.5379L15.5767 31.4885L15.651 31.4391L15.7129 31.4022L15.7871 31.3528L15.8614 31.3159L15.9233 31.2789L15.9972 31.242L16.0714 31.205L16.1457 31.1681L16.2076 31.1312L16.2814 31.1063L16.3433 31.0693L16.4176 31.0444L16.4794 31.0195L16.5537 30.9826L16.6155 30.9577L16.6898 30.9328L16.7886 30.9079L16.8874 30.871L16.9862 30.834L17.085 30.8091L17.1962 30.7842L17.295 30.7593L17.3937 30.7348L17.4925 30.7099L17.6037 30.685L17.7025 30.6726L17.8013 30.6477L17.9129 30.6352L18.0117 30.6228L18.1229 30.6103L18.2217 30.5979H18.333L18.4321 30.5854H18.6426L18.7413 30.573H18.8526L18.9514 30.5854H19.0626L19.1614 30.5979H19.2726L19.3714 30.6103L19.4826 30.6228L19.5814 30.6352L19.6926 30.6477L19.7914 30.6601L19.9026 30.685L20.0138 30.6975L20.1002 30.7224L20.1989 30.7473L20.2853 30.7722L20.3969 30.8091L20.4957 30.834L20.5945 30.871L20.6932 30.9079L20.8045 30.9573L20.9032 30.9946L21.0145 31.044L21.1137 31.1059L21.2249 31.1552L21.3237 31.2171L21.4349 31.2789L21.5337 31.3532L21.6325 31.4151L21.7312 31.4893L21.8176 31.5757L21.9163 31.662L22.0027 31.7483L22.089 31.8347L22.1633 31.9334L22.2496 32.0322L22.3115 32.1434L22.3857 32.2547L22.4476 32.3659L22.497 32.4892L22.5464 32.6128L22.5958 32.7361L22.6331 32.8722L22.67 33.0204L22.6949 33.1565V33.2429L22.7074 33.3292V33.5641L22.6949 33.6504V33.7247L22.6829 33.811L22.6705 33.8853L22.6584 33.9596L22.6335 34.0339L22.6211 34.1082L22.5962 34.1825L22.5713 34.2564L22.5464 34.3307L22.5215 34.3925L22.497 34.4668L22.46 34.5286L22.4351 34.5905L22.3982 34.6648L22.3613 34.7266L22.3243 34.776L22.2874 34.8378L22.2504 34.8872L22.2011 34.9486L22.1641 34.998L22.1147 35.0474L22.0653 35.0972L22.016 35.1342L21.979 35.1711L21.9296 35.2205L21.8802 35.2454H29.9256L28.1958 43.612H31.3471L33.1143 35.0354H42.1737L41.8649 36.5926L44.0641 34.4054H46.5859V33.7587H46.5801Z" fill="#433C92"/>
</g>
<defs>
<clipPath id="clip0_951_87">
<rect width="80" height="80" fill="white" transform="translate(0.648438)"/>
</clipPath>
</defs>
</svg>
