<svg width="81" height="80" viewBox="0 0 81 80" fill="none" xmlns="http://www.w3.org/2000/svg">
<g style="mix-blend-mode:luminosity" opacity="0.5">
<path fill-rule="evenodd" clip-rule="evenodd" d="M63.6659 54.9806C63.2857 54.7901 62.1435 54.695 62.1435 54.695L63.2849 53.3632C64.427 52.0314 63.1898 50.509 61.9538 50.6049C60.7171 50.6999 55.8645 50.8904 51.583 52.5074C47.3024 54.1244 39.9766 56.2174 29.2256 59.9286C24.6184 61.5182 20.6228 63.4929 17.5612 65.2298C17.1499 65.4631 14.6659 66.4595 14.2894 66.6824C13.9749 66.8696 15.762 66.2844 15.4723 66.462C12.6654 68.1823 11.0547 69.442 11.0547 69.442C11.0547 69.442 13.9089 68.1101 15.8118 66.9688C17.7147 65.8266 19.5222 65.1613 19.5222 65.1613C19.5222 65.1613 18.0953 66.3977 16.8585 67.0638C15.6217 67.73 13.6237 69.2515 13.6237 69.2515C13.6237 69.2515 18.0949 66.8733 19.8077 65.9225C21.5201 64.9708 24.7549 63.4485 24.7549 63.4485C24.7549 63.4485 23.4231 64.5898 21.9958 65.8266C20.5689 67.0634 22.3764 66.7783 22.3764 66.7783C22.3764 66.7783 23.3276 66.2068 24.5644 65.5415C25.8008 64.8758 29.4531 63.0683 30.8804 62.2117C32.3077 61.3559 32.709 61.1077 33.2801 61.0127C33.8508 60.9172 37.313 59.6435 39.5014 58.8815C41.6891 58.1203 48.5396 55.5525 48.5396 55.5525C48.5396 55.5525 52.9161 54.1252 54.7236 53.745C56.531 53.364 60.3369 53.364 60.3369 53.364L59.3852 54.1252H57.6724C56.8162 54.1252 54.6277 54.6008 52.5347 54.8864C50.4425 55.1719 48.7297 55.838 47.3024 56.4087C45.8755 56.9794 47.1119 57.1699 47.1119 57.1699C47.1119 57.1699 48.0635 57.2649 49.6805 57.1699C51.2983 57.0744 54.057 56.5992 55.2938 56.2182C56.5306 55.838 55.2938 56.6938 55.2938 56.6938C55.2938 56.6938 52.8198 58.3108 51.7735 59.2625C50.7272 60.2141 52.345 60.3088 52.345 60.3088L51.583 60.8794C50.8219 61.4501 52.1545 61.8311 53.2959 61.3551C54.438 60.8794 57.0058 59.2621 59.2893 57.4546C61.5728 55.6471 61.858 54.9806 61.858 54.9806L63.0948 55.2665C64.332 55.5521 64.0469 55.1711 63.6659 54.9806ZM25.8008 64.3047C24.1834 65.3506 22.7565 65.8262 22.7565 65.8262L25.5152 63.353C25.5152 63.353 26.276 63.1625 27.2277 62.8774C28.1793 62.5923 29.1302 62.0216 29.1302 62.0216C29.1302 62.0216 27.4178 63.2584 25.8008 64.3047ZM27.8938 61.6406C26.3719 62.4018 22.1854 63.8291 22.1854 63.8291L20.6635 64.3997C20.6635 64.3997 22.9466 62.9724 24.5644 62.3059C26.1814 61.6402 28.0839 60.6894 29.4161 60.3088L30.748 59.9286C30.748 59.9286 29.4157 60.8794 27.8938 61.6406ZM36.3609 58.5959C33.7922 59.5476 31.1286 60.4034 31.1286 60.4034C31.1286 60.4034 33.9263 59.0384 35.8288 58.3718C37.7317 57.7061 39.8812 56.9785 39.8812 56.9785L40.5473 56.8835C40.5473 56.8839 38.9299 57.6451 36.3609 58.5959ZM59.4798 52.3169L56.15 52.5074C56.15 52.5074 59.1947 51.3661 60.7171 51.2706C62.2394 51.1756 63.9514 51.5561 62.9997 51.9367C62.0485 52.3169 59.4798 52.3169 59.4798 52.3169ZM61.9538 52.602L61.0981 53.0777L61.0026 52.602H61.9538ZM53.5818 56.1228C52.0586 56.4083 48.6338 56.5029 48.6338 56.5029C48.6338 56.5029 50.5363 56.0273 52.6301 55.6471C54.7232 55.267 57.7678 54.886 57.7678 54.886C57.7678 54.886 55.1042 55.8372 53.5818 56.1228ZM57.9575 55.7426L57.0058 56.1228L56.2455 56.5984L56.8162 55.8372L57.9575 55.7426ZM51.869 59.6431L52.4396 59.1666C53.0103 58.691 54.8178 57.6451 54.8178 57.6451L52.4396 59.7381L51.869 59.6431ZM57.0058 58.5009C55.9595 59.2621 55.3889 59.6431 53.3913 60.6894C51.3933 61.7356 52.9157 60.3084 53.5818 59.5472C54.2475 58.786 55.7695 57.6447 55.7695 57.6447L58.053 57.7397L57.0058 58.5009ZM59.0038 56.8839L57.0058 56.7885C57.0058 56.7885 58.148 56.4083 59.0988 55.9327C60.0505 55.457 61.1927 54.981 61.1927 54.981L59.0038 56.8839ZM60.0505 54.3149L60.7166 53.7442L61.3824 53.8392L60.0505 54.3149ZM61.5728 54.5054C61.5728 54.5054 62.239 53.3632 62.239 52.983L63.0948 52.7925L61.5728 54.5054Z" fill="#C22C2E"/>
<path fill-rule="evenodd" clip-rule="evenodd" d="M46.2528 59.4492L46.2544 59.4534C46.2544 59.4534 46.2544 59.4517 46.2528 59.4492ZM66.8039 14.8332C66.8039 14.8332 70.6098 12.9307 72.7982 11.5039C74.9859 10.0766 73.9396 10.7427 72.9879 10.9332C72.0362 11.1233 70.0391 11.789 67.9461 12.6452C65.8523 13.5014 62.5233 15.4043 62.5233 15.4043C62.5233 15.4043 61.8572 15.1188 61.3811 15.1188C60.9059 15.1188 59.9542 15.6895 59.9542 15.6895C59.9542 15.6895 57.3856 15.3089 55.7682 15.594C54.1504 15.8795 53.1037 16.7358 53.1037 16.7358C53.1037 16.7358 53.1992 15.6895 52.914 15.4039C52.6285 15.1184 51.7719 15.594 51.7719 15.594C51.7719 15.594 51.9624 14.3572 51.9624 13.6915C51.9624 13.0258 51.6768 13.596 51.6768 13.596L51.1062 16.2601C51.1062 16.2601 48.8226 18.1631 47.871 18.9238C46.9201 19.6846 47.1098 21.2069 47.1098 21.2069C47.1098 21.2069 46.4441 21.3019 45.9685 21.3019C45.4928 21.3019 44.6528 21.2069 44.6528 21.2069C44.6528 21.2069 46.3495 22.2536 47.3003 22.5387C48.252 22.8243 49.8689 22.7292 49.8689 22.7292V23.395L48.9173 23.2999C48.9173 23.2999 48.0615 23.49 47.9664 23.0144C47.871 22.5387 47.4908 23.1094 47.4908 23.1094L46.7296 25.7731C46.5391 26.4388 45.6833 27.7711 44.8271 30.1496C43.9705 32.5277 42.8292 36.7138 42.8292 36.7138C42.8292 36.7138 42.5436 36.3332 41.4019 34.5257C40.2605 32.7178 38.9287 31.3864 38.6431 30.7199C38.3576 30.0541 37.7869 28.6269 37.0258 27.295C36.2646 25.9632 35.6939 23.204 35.6939 23.204L36.5501 20.5404L35.3137 22.1573C35.3137 22.1573 35.7894 20.4449 36.265 18.8279C36.7406 17.211 36.0745 18.1622 35.7894 18.7329C35.5038 19.3036 35.1237 19.4941 34.8381 19.4941C34.5526 19.4941 34.0774 21.3015 34.0774 21.3015L33.7918 21.3966L33.3162 20.7304C33.3162 20.7304 32.555 19.8746 31.8889 18.7329C31.2232 17.5916 31.5083 18.7329 31.5083 18.7329L32.3649 20.2552L33.6013 22.1577L33.5063 23.7751H33.0307C32.555 23.7751 32.2699 24.4412 32.2699 24.4412C32.2699 24.4412 32.0798 25.3925 31.7943 26.6297C31.5087 27.8661 30.1769 30.1496 29.1302 32.2426C28.0835 34.3356 27.7983 34.8113 27.4178 35.858C27.0372 36.9047 26.9421 36.1435 26.9421 36.1435C26.9421 36.1435 26.0859 34.241 25.4198 33.0038C24.7541 31.767 23.5173 28.8178 22.09 25.6785C20.6631 22.5392 21.0437 25.7735 21.0437 25.7735L21.1387 28.4376C21.1387 28.4376 20.6631 27.1058 19.9019 25.0127C19.1412 22.9197 19.3313 24.4421 19.4263 25.5834C19.5213 26.7248 19.997 28.4376 20.7581 31.0062C21.5193 33.5749 20.4726 31.4819 20.4726 31.4819L19.7118 29.7694C19.7118 29.7694 18.1899 26.2495 17.1428 24.2516C16.0965 22.2536 16.7622 24.5371 16.7622 24.5371C16.7622 24.5371 18.2841 28.2471 19.0453 30.1504C19.8065 32.0529 20.9482 34.146 21.8044 36.81C22.6607 39.4741 24.1826 42.9936 24.9437 44.2308C25.7045 45.4676 25.4194 44.5164 25.4194 44.5164L25.1338 42.8994C25.1338 42.8994 25.7045 41.5676 25.99 40.8064C26.2752 40.0452 27.512 38.1423 27.512 38.1423L26.7508 40.7114L28.0826 38.4274C28.0826 38.4274 27.9876 39.6642 27.7021 40.901C27.4165 42.1378 27.7021 42.6139 28.2727 41.1866C28.5886 40.3963 30.6509 35.4624 30.6509 35.4624C32.3641 31.0859 33.5059 27.3917 33.5059 27.3917L34.6472 30.0554C34.6472 30.0554 35.789 31.8629 36.3596 33.0046C36.9303 34.1464 36.9303 32.9096 36.5501 32.1488C36.1695 31.3876 35.9795 30.4364 35.9795 30.4364C35.9795 30.4364 36.36 30.7215 36.9307 31.5777C37.5014 32.4339 38.4526 34.3369 38.8332 35.2881C39.2138 36.2394 40.4506 38.1419 40.4506 38.1419L37.9774 36.1439L36.5505 34.9071L36.8195 35.6525C36.8195 35.6525 37.9774 36.9055 39.4043 38.2373C40.8316 39.5692 42.4494 41.282 42.4494 41.282C42.4494 41.282 42.5444 41.5676 42.4494 42.7089C42.3539 43.8511 42.9246 43.1845 42.9246 43.1845C42.9246 43.1845 43.0201 42.5184 43.5907 38.8084C44.1614 35.098 44.7321 34.7175 44.7321 34.7175C44.7321 34.7175 43.8763 37.191 44.2565 38.9985C44.6375 40.8064 45.5891 39.189 45.5891 39.189L46.2548 37.7621L46.921 36.4303L47.016 36.9059C47.016 36.9059 46.5404 38.9985 46.3503 39.6646C46.1598 40.3308 45.7788 41.3771 46.1598 41.1866C46.54 40.9961 46.3503 41.7572 46.3503 41.7572C46.3503 41.7572 45.3986 44.3267 45.1135 45.1829C44.8284 46.0391 45.1135 46.9904 45.399 46.7999C45.6846 46.6094 45.3036 47.9412 45.1135 48.5127C44.923 49.0834 44.923 50.6057 44.923 50.6057H45.3032C45.3032 50.6057 45.3986 51.9376 45.3032 52.5082C45.2081 53.0789 44.828 52.7938 44.828 52.7938L44.0668 51.557C44.0668 51.557 42.6395 49.1788 42.2593 48.6082C41.8783 48.0375 40.1659 45.6594 39.5952 45.373C39.0246 45.0875 38.9291 44.5172 38.739 44.0412C38.5489 43.5659 37.6927 42.7093 36.8365 41.568C35.9803 40.4258 35.7902 40.6163 35.7902 40.6163L35.2195 39.57L34.2683 37.6671L32.9364 35.6691C32.5559 35.0985 32.1753 35.7642 32.1753 35.7642L31.3191 38.4278L30.2728 41.5676C30.2728 41.5676 30.2728 41.9477 29.9872 42.5184C29.7017 43.0899 29.4161 44.8974 29.4161 44.8974L28.0843 49.559L27.8942 50.2247C27.7037 50.8909 27.4186 51.4615 27.4186 51.4615L26.2768 53.364C26.2768 53.364 26.0868 53.269 25.3256 51.7471C24.5644 50.2251 24.1838 50.1301 23.8032 48.7983C23.4227 47.4656 18.2854 36.4299 16.573 32.4344C14.8605 28.4384 11.0547 19.4953 11.0547 19.4953C11.0547 19.4953 11.5303 22.3495 12.1014 24.0619C12.6725 25.7743 13.6237 28.4384 13.6237 28.4384C13.6237 28.4384 15.6213 32.1488 14.0994 29.7703C12.577 27.3921 13.6237 30.3409 13.6237 30.3409C13.6237 30.3409 15.4312 34.622 15.9068 36.1443C16.3825 37.6667 16.0019 37.3811 15.5262 36.5249C15.0506 35.6687 14.7651 35.098 14.2895 34.1468C13.8138 33.1955 12.482 30.7215 11.5303 29.2946C10.5791 27.8678 11.4353 29.9608 12.101 31.1971C12.7671 32.4335 13.4328 34.0513 14.099 35.6687C14.7647 37.2861 16.382 40.9969 17.1432 42.5184C17.9044 44.0407 19.5218 47.18 20.5685 49.3689C21.6152 51.5566 22.6615 53.555 23.7078 55.3624C24.7541 57.1699 25.8958 59.9286 25.8958 59.9286V64.0196H26.2764L26.562 64.7807L26.657 64.2101L27.2277 63.6394L27.7033 64.5911C27.7033 64.5911 27.7033 63.6394 27.5132 62.5931C27.3231 61.5468 27.8938 60.215 28.0839 58.5968C28.2744 56.9798 28.274 55.8385 28.4645 54.6963C28.6546 53.5549 29.9864 49.5594 30.6521 47.9416C31.3178 46.3247 32.3649 43.9461 32.8406 42.3291C33.3162 40.7114 33.8873 38.7138 33.8873 38.7138L34.553 40.0456C34.8385 40.6163 35.5993 41.8531 35.5993 41.8531L35.7894 42.6143C35.8844 42.9944 37.0262 45.1829 37.4063 45.9433C37.7869 46.7044 40.0704 50.2247 40.6411 50.9859C41.2122 51.7471 42.6387 53.4599 42.6387 53.4599L42.8292 54.9814C42.8292 54.9814 43.9705 56.6943 44.3515 57.3604C44.5997 57.7949 44.5607 59.3903 44.8271 59.7385C44.9682 59.924 44.9716 58.332 45.3023 58.5963C46.1577 59.2803 46.2449 59.4264 46.2528 59.4492L45.778 57.931L45.6829 55.9331L46.7292 57.2649L46.4437 54.9814C46.4437 54.9814 46.6342 53.0789 47.1094 50.9859C47.585 48.8929 48.3462 48.0371 49.2032 44.3267C50.059 40.6159 50.3446 38.9985 50.3446 38.9985C50.3446 38.9985 52.5322 37.096 53.1987 36.6204C53.8645 36.1448 56.1475 34.7175 56.1475 34.7175L58.7162 34.6224C61.2848 34.5274 59.6679 34.3369 58.9067 34.1468C58.1455 33.9567 57.955 33.6712 57.955 33.6712C57.955 33.6712 59.7625 33.6712 61.2848 33.1005C62.8072 32.5298 63.282 32.0542 63.282 32.0542L61.6654 32.2443L62.6162 31.4835L60.9993 31.7691C60.9993 31.7691 62.9018 31.1029 65.0903 29.2955C67.2779 27.488 64.8998 28.9149 64.8998 28.9149C64.8998 28.9149 63.282 29.7711 61.57 30.6273C59.8579 31.4835 59.1918 31.293 59.1918 31.293C59.1918 31.293 58.7162 30.3418 56.5281 29.0099C54.3397 27.6781 56.0525 29.3905 57.1938 30.0562C58.336 30.7219 58.6211 31.6736 58.6211 31.6736L57.7654 32.0542C56.9087 32.4348 55.2913 32.3397 53.864 32.4348C52.4372 32.5294 51.2954 32.7199 51.2954 32.7199C51.2954 32.7199 51.771 30.6269 52.152 28.6289C52.5322 26.6314 52.6277 24.9185 52.6277 24.9185C52.6277 24.9185 52.9132 24.633 54.2446 24.0623C55.5765 23.4917 59.572 22.0648 62.3311 21.0181C65.0903 19.9713 69.5618 19.8767 72.2255 19.5912C74.89 19.3056 72.321 19.3056 70.6085 19.3056H67.8494C67.8494 19.3056 68.5155 18.4498 69.0862 18.0688C69.6569 17.6883 71.1792 17.1176 71.1792 17.1176H70.2275C70.2275 17.1176 70.6085 16.642 70.6085 16.0713C70.6085 15.5006 70.323 15.12 69.5622 15.12C68.8015 15.12 67.6589 15.2151 66.9936 15.2151C66.3283 15.2151 66.8039 14.8332 66.8039 14.8332ZM26.5607 37.8563L25.1338 41.1861L24.8483 41.0911C24.8483 41.0911 24.7533 40.9006 24.4677 40.2353C24.1822 39.5692 23.897 38.808 23.897 38.808L24.9433 39.2836L24.7528 38.3324L24.0871 37.0956C23.4214 35.8588 22.8503 33.3852 22.4697 31.5777C22.0892 29.7703 21.6139 26.631 21.6139 26.631C21.6139 26.631 23.4214 30.1509 24.2776 31.8633C25.1338 33.5757 26.5611 37.001 26.5611 37.001L26.5607 37.8563ZM34.0765 27.0111L34.2666 25.2032C34.2666 25.2032 35.0278 24.0619 34.9323 24.5375C34.8373 25.0132 35.3133 26.44 35.6935 27.2963C36.0741 28.1521 36.2642 29.4843 36.2642 29.4843C36.2642 29.4843 34.6472 27.7723 34.0765 27.0111ZM42.544 40.5209L41.8779 39.189L41.7829 37.7621L42.0684 37.3815L41.9734 36.7158L41.8779 36.1452L42.8296 37.1919L42.544 40.5209ZM16.0957 34.527L15.7151 33.0997L16.4758 34.3365L16.7614 35.4778L16.0957 34.527ZM25.419 56.4087L25.0384 56.2182L24.8483 54.6959L23.5165 51.8417L23.897 51.3661L24.4677 51.5566L25.7041 54.1252L25.419 56.4087ZM27.3215 60.0241L26.8458 58.4071L26.4653 58.2166L26.7508 56.7893L27.512 56.6943L27.3215 60.0241ZM27.607 55.9331L26.9413 56.0285L27.3219 54.9814L27.7975 54.6959L27.607 55.9331ZM45.2077 56.3141L44.1614 55.3624L44.447 54.7917L45.2081 55.7426L45.2077 56.3141ZM51.2016 17.2118L52.1533 16.5457V17.2118L51.3921 17.4973L51.1066 17.7829L51.2016 17.2118ZM51.2962 19.6854H50.821V19.0193H51.2012L51.2962 19.6854ZM49.2991 19.6854L49.2041 20.5412L47.8714 21.1119L47.9668 20.1606L50.345 17.7825H50.8206V18.2581L49.2991 19.6854ZM49.6793 20.5416V20.066L50.4404 19.8759V20.3515L49.6793 20.5416ZM45.3982 37.3807C44.8275 38.4274 44.8275 37.5708 44.9226 37.0001L45.2081 35.2877C45.3032 35.9534 45.9693 36.334 45.9693 36.334L45.3982 37.3807ZM48.7284 28.7236C48.7284 28.7236 48.3474 30.7211 47.9673 31.7682C47.5863 32.8145 47.2061 34.2414 47.2061 34.2414C47.2061 34.2414 46.4449 34.717 45.9693 35.1927C45.4937 35.6683 45.3032 34.717 45.3032 34.717C45.3032 34.717 45.4937 34.4315 45.4937 33.7658C45.4937 33.0997 45.8747 31.7682 46.1598 30.6261C46.4449 29.4839 47.1106 27.1062 47.1106 27.1062L49.1086 26.1549L48.7284 28.7236ZM49.5842 24.8227C49.2041 25.2983 48.6326 25.7739 48.3474 25.869C48.0623 25.964 47.3011 26.1545 47.3011 26.1545C47.3011 26.1545 47.3962 25.0132 47.6821 24.7276L48.2528 24.157L49.5846 23.9665C49.5842 23.9665 49.9644 24.347 49.5842 24.8227ZM52.6289 35.0976L55.1971 34.527C55.1971 34.527 53.7702 35.4782 53.0095 36.0489C52.2483 36.6195 50.4409 37.9514 50.4409 37.9514C50.4409 37.9514 50.4409 37.8563 50.6314 36.9051C50.8219 35.9538 50.9169 35.5732 50.9169 35.5732C50.9169 35.5732 51.7723 35.2881 52.6289 35.0976ZM51.4867 29.1041C51.1066 30.531 50.6309 33.1951 50.6309 33.1951L49.8698 33.5757C49.8698 33.5757 50.0594 32.2439 50.4404 29.9608C50.8214 27.6773 51.3921 25.2037 51.3921 25.2037L52.0578 24.9181C52.0574 24.9177 51.8677 27.6768 51.4867 29.1041ZM52.0574 24.157H51.4867L51.5818 23.4912H52.1533L52.0574 24.157ZM52.0574 22.9197H51.6772V22.4441L52.1529 22.254L52.0574 22.9197ZM52.2479 18.5436L51.8677 18.7337V19.3994H51.5818L51.7723 17.9726L52.2479 17.8775V18.5436ZM53.1996 22.6346H52.5334L52.7239 21.9685L55.8633 21.4929L53.1996 22.6346ZM55.3872 17.3068C54.0554 18.1631 52.8186 18.6383 52.8186 18.6383L53.1041 17.4969C53.1041 17.4969 54.2463 16.6407 55.3876 16.4502C56.5298 16.2601 59.2881 16.2601 59.2881 16.2601C59.2881 16.2601 56.7199 16.4506 55.3872 17.3068ZM67.9461 16.3556C69.0874 16.07 70.9899 16.5457 67.8506 17.4969C64.7113 18.4486 63.4741 18.6383 63.4741 18.6383C63.4741 18.6383 66.8039 16.6407 67.9461 16.3556Z" fill="#293056"/>
</g>
</svg>
