<svg width="81" height="80" viewBox="0 0 81 80" fill="none" xmlns="http://www.w3.org/2000/svg">
<g style="mix-blend-mode:luminosity" opacity="0.5" clip-path="url(#clip0_951_2)">
<path d="M40.3163 80C51.0006 80 61.0453 75.8391 68.6005 68.2841C76.1555 60.729 80.3164 50.6842 80.3164 39.9999C80.3164 29.3158 76.1555 19.271 68.6005 11.7159C61.0454 4.16078 51.0006 0 40.3163 0C18.2602 0 0.316406 17.9438 0.316406 39.9999C0.316406 50.6842 4.47718 60.729 12.0323 68.2841C19.5874 75.8391 29.6322 80 40.3163 80Z" fill="black"/>
<path d="M1.69922 39.9999C1.69922 29.6855 5.71604 19.9882 13.0097 12.6945C20.3034 5.40064 30.0006 1.38397 40.3152 1.38397C50.6297 1.38397 60.3271 5.40064 67.6206 12.6945C74.9143 19.9882 78.9311 29.6854 78.9311 39.9999C78.9311 61.2929 61.608 78.616 40.3152 78.616C30.0006 78.616 20.3034 74.5992 13.0097 67.3055C5.71604 60.0117 1.69922 50.3145 1.69922 39.9999Z" fill="white"/>
<path d="M40.3174 2.97546C19.8696 2.97546 3.29297 19.5521 3.29297 39.9999C3.29297 60.4477 19.8696 77.0245 40.3174 77.0245C60.7652 77.0245 77.3419 60.4477 77.3419 39.9999C77.3419 19.5521 60.7652 2.97546 40.3174 2.97546Z" fill="black"/>
<path d="M40.318 63.6499C27.2566 63.6499 16.668 53.0614 16.668 39.9999C16.668 26.9386 27.2566 16.3499 40.318 16.3499C53.3793 16.3499 63.968 26.9386 63.968 39.9999C63.968 53.0614 53.3795 63.6499 40.318 63.6499Z" fill="white"/>
<path d="M18.1875 39.9999H40.316V17.8714C28.0949 17.8714 18.1875 27.779 18.1875 39.9999ZM40.316 39.9999V62.1286C52.5371 62.1286 62.4445 52.2212 62.4445 39.9999H40.316Z" fill="black"/>
<path d="M22.9368 17.4351C22.1528 16.6731 20.941 16.4435 19.8034 17.1488C20.0207 16.5857 19.9319 16.011 19.8165 15.6939C19.3264 14.8002 19.1554 14.6883 18.7514 14.3494C17.4438 13.2522 16.0677 14.1889 15.0835 15.3618L10.3281 21.0289L17.8035 27.3016L22.8183 21.3253C23.9642 19.9598 24.1413 18.606 22.9368 17.4351ZM41.5554 14.7422L44.1226 7.93769V14.7422H46.0737V4.99689H43.1422L40.4758 11.9744H40.5034L37.837 4.99689H34.9057V14.7422H36.8567V7.93769L39.424 14.7422H41.5554ZM67.7875 18.7966L64.1141 23.9973L69.8089 21.2937L71.3168 23.1557L62.3533 27.5007L60.5837 25.2978L64.1093 20.1427L64.0884 20.1169L58.3129 22.4936L56.526 20.3046L62.6398 12.4405L64.1477 14.3025L60.3191 19.3108L66.1699 16.7989L67.7875 18.7966Z" fill="white"/>
<path d="M16.1219 16.7644C16.4528 16.37 17.2006 16.3862 17.6816 16.7896C18.2103 17.2333 18.2116 17.8624 17.8565 18.2855L15.0325 21.6509L13.2656 20.1682L16.1219 16.7644ZM21.1463 20.7345L18.1689 24.2828L16.3019 22.7162L19.3034 19.139C19.6423 18.7351 20.398 18.6175 20.9077 19.0453C21.4846 19.5292 21.5418 20.2634 21.1463 20.7345Z" fill="black"/>
</g>
<defs>
<clipPath id="clip0_951_2">
<rect width="80" height="80" fill="white" transform="translate(0.316406)"/>
</clipPath>
</defs>
</svg>
