<svg width="38" height="56" viewBox="0 0 38 56" fill="none" xmlns="http://www.w3.org/2000/svg">
<g style="mix-blend-mode:luminosity" opacity="0.5" clip-path="url(#clip0_951_362)">
<path d="M13.0482 45.7842C12.6956 45.7842 12.4017 45.9629 12.2841 46.2592L10.8144 50.1189L10.6968 50.5346L10.5795 50.1189L9.40375 46.378V46.3187C9.28612 46.0218 8.99219 45.7842 8.63959 45.7842H6.75838C6.34682 45.8434 6.05289 46.1404 6.05289 46.6156C6.05289 46.7342 6.11156 46.853 6.11156 46.9712L6.34652 47.8026L5.46474 50.118L5.28844 50.534L5.17081 50.118L4.05376 46.3774V46.3181H3.99509C3.93642 46.0212 3.64249 45.7836 3.2896 45.7836H1.40869C0.997128 45.8428 0.644531 46.1395 0.644531 46.615C0.644531 46.7336 0.703495 46.8524 0.761866 46.9706L3.52457 55.403C3.6422 55.7585 3.93613 55.9962 4.28902 55.9962C4.64162 55.9962 4.93555 55.7585 5.05318 55.4619L6.99305 50.4742L7.16935 49.9992L7.28698 50.4742L8.93293 55.403C8.99159 55.7585 9.34449 55.9962 9.69708 55.9962C10.05 55.9962 10.3439 55.7585 10.4615 55.4619L13.7534 46.9116C13.8121 46.7931 13.8121 46.6743 13.8121 46.5555C13.8124 46.1404 13.4595 45.7842 13.0482 45.7842ZM26.9802 45.7842C26.6277 45.7842 26.3331 45.9629 26.2161 46.2592L24.7464 50.1189L24.6291 50.5346L24.5118 50.1189L23.3358 46.378V46.3187C23.2184 46.0218 22.9242 45.7842 22.5719 45.7842H20.6904C20.2788 45.8434 19.9849 46.1404 19.9849 46.6156C19.9849 46.7342 19.9849 46.853 20.0436 46.9712L20.2788 47.8026L19.3968 50.118L19.2202 50.534L19.1028 50.118L17.9858 46.3774L17.9271 46.3181C17.8684 46.0212 17.5745 45.7836 17.2219 45.7836H15.3407C14.9291 45.8428 14.5765 46.1395 14.5765 46.615C14.5765 46.7336 14.6355 46.8524 14.6942 46.9706L17.4572 55.403C17.5745 55.7585 17.8687 55.9962 18.2216 55.9962C18.5739 55.9962 18.8682 55.7585 18.9855 55.4619L20.926 50.4742L21.1023 49.9992L21.2196 50.4742L22.8661 55.403C22.9245 55.7585 23.2777 55.9962 23.63 55.9962C23.9826 55.9962 24.2771 55.7585 24.3944 55.4619L27.686 46.9116C27.7447 46.7931 27.7447 46.6743 27.7447 46.5555C27.7444 46.1404 27.3915 45.7842 26.9802 45.7842ZM36.0328 45.7842H29.5074C29.0958 45.7842 28.8025 46.0811 28.8025 46.4968V55.2255C28.8609 55.6415 29.1548 55.9381 29.5664 55.9381H31.3883C31.7999 55.9381 32.0938 55.6415 32.0938 55.2255V51.1287H34.7981C35.1501 51.1287 35.5033 50.7726 35.5033 50.4161C35.5033 50.0004 35.151 49.6439 34.7981 49.6439H32.0938V47.3286H36.0325C36.4444 47.3286 36.7967 46.9727 36.7967 46.5567C36.797 46.1406 36.4447 45.7842 36.0328 45.7842ZM25.9219 17.8763C27.0979 19.1827 27.2149 23.2205 30.2129 21.6172C31.9762 20.6672 31.9762 16.6294 29.5664 15.1449C27.6259 14.0166 26.5681 15.5606 25.8626 17.4606C25.8042 17.6387 25.8042 17.7575 25.9219 17.8763ZM21.278 17.2232C19.9849 18.2328 19.1618 21.1422 16.8693 20.1327C14.9884 19.1827 14.8121 15.5011 18.045 13.7792C20.2788 12.7104 21.3959 14.7888 21.3959 16.9856C21.3956 17.0449 21.3369 17.1637 21.278 17.2232ZM24.3349 24.5267C25.5693 24.4081 25.2753 23.2205 24.3349 22.9829C23.5118 22.686 22.2774 22.5079 21.3369 22.5672C19.7496 22.5672 19.8086 23.814 20.6311 24.0517C21.278 24.2298 21.6889 24.289 22.2181 25.0016C22.6886 25.9519 22.4537 24.7047 24.3349 24.5267ZM30.1545 3.86294C31.6828 1.25038 34.3869 1.72537 35.7392 3.03179C37.2091 4.45674 37.5027 6.11934 36.9152 7.24768C36.1507 8.79145 34.1525 10.6324 32.8591 8.85101C32.2719 8.01987 31.0956 7.0696 30.3904 6.83196C29.3901 6.35698 29.2141 5.46597 30.1545 3.86294Z" fill="#272728"/>
<path d="M36.3259 15.323C36.2086 14.848 35.973 14.9073 35.973 15.2637C36.0907 20.0139 33.2693 25.1208 27.2734 25.18C25.7451 25.18 26.2156 27.6148 23.3936 26.3676C21.3948 25.0019 20.2191 27.7333 18.8081 24.8239C18.4555 23.9924 17.985 23.6363 17.3971 23.4582C11.4599 21.9737 9.57865 13.72 14.8107 7.06961C15.8101 7.72297 16.2214 7.84149 17.3384 6.77271C17.8676 6.23816 18.8668 5.64436 19.3957 5.46628C20.63 4.99129 21.3358 4.45675 20.2185 2.02227C19.7041 0.875369 19.0034 0.264505 18.2567 0.0032196H16.2599C15.689 0.174847 15.1567 0.457264 14.6928 0.834665C13.1645 2.08153 12.1651 4.04103 14.0457 6.35698C8.75583 9.97907 7.81537 14.4323 7.93271 18.3513C8.05004 22.4484 7.05092 22.0922 8.34427 26.2485C8.4616 26.605 8.16797 26.605 7.99167 26.4865C2.46597 22.9236 -0.531987 11.9978 8.1093 6.00052C8.2856 5.82244 8.22693 5.5848 7.52144 6.00052C0.0555754 9.97907 -0.649618 17.6982 0.584767 22.9236C1.17263 25.4174 0.290838 25.8927 1.23159 29.2178C3.46539 36.1058 5.3463 36.6991 8.05034 36.8777C12.9295 36.8777 9.57865 34.1464 9.81391 30.7616C9.81391 30.5237 10.0492 30.4647 10.1665 30.8801C12.8705 36.9364 14.7517 42.459 21.8058 41.9245C25.8615 41.3902 23.6277 39.3712 23.3338 38.1833C20.3361 28.1488 27.6248 25.7735 25.5676 35.5707C24.2159 41.2118 28.5069 40.6177 31.5635 38.599C34.6794 36.5805 38.5597 22.8641 36.3259 15.323ZM24.4511 27.258C23.7456 29.0398 20.2774 28.446 20.1598 26.6645C20.1598 26.6053 20.2774 26.6053 20.2774 26.6645C21.8644 27.0207 23.3338 27.1988 24.3332 27.1988C24.3925 27.1988 24.4511 27.1395 24.4511 27.258Z" fill="#272728"/>
<path d="M9.22704 39.9653C9.22664 40.4218 9.04693 40.8596 8.72735 41.1825C8.40777 41.5053 7.97442 41.6869 7.52242 41.6874C6.523 41.6874 5.75885 40.9152 5.75885 39.9653C5.75885 39.015 6.523 38.1841 7.52242 38.1841C8.46288 38.1838 9.22704 39.015 9.22704 39.9653ZM7.52242 37.8869C6.34671 37.8869 5.40625 38.7779 5.40625 39.965C5.40625 41.0936 6.34671 42.043 7.52242 42.043C8.63947 42.043 9.57963 41.093 9.57963 39.965C9.57963 38.7777 8.63918 37.8869 7.52242 37.8869Z" fill="#272728"/>
<path d="M8.10681 40.2622C8.04785 40.5591 7.81288 40.7375 7.57762 40.7375C7.16606 40.7375 6.87213 40.3813 6.87213 39.9653C6.87213 39.5495 7.10739 39.1937 7.51895 39.1937C7.81288 39.1937 8.04785 39.3718 8.10681 39.6094H8.40074C8.34178 39.1344 7.98918 38.8968 7.51895 38.8968C6.93109 38.8968 6.51953 39.3718 6.51953 39.9653C6.51953 40.5591 6.93109 41.0341 7.57762 41.0341C7.98918 41.0341 8.28311 40.7375 8.40074 40.2622H8.10681ZM36.4411 42.6966C36.4408 43.1533 36.261 43.5911 35.9414 43.914C35.6217 44.2369 35.1882 44.4185 34.7362 44.4188C33.7367 44.4188 32.9729 43.6469 32.9729 42.6966C32.9729 41.7461 33.7367 40.9149 34.7362 40.9149C35.6763 40.9149 36.4411 41.7464 36.4411 42.6966ZM34.7362 40.6183C33.5602 40.6183 32.6197 41.5093 32.6197 42.6966C32.6197 43.825 33.5602 44.7747 34.7362 44.7747C35.8532 44.7747 36.7934 43.8244 36.7934 42.6966C36.7934 41.509 35.8529 40.6183 34.7362 40.6183Z" fill="#272728"/>
<path d="M34.388 42.8155H34.6816L35.2111 43.7065H35.5631L34.9755 42.8155C35.2695 42.7559 35.5044 42.6371 35.5044 42.2809C35.5044 41.8652 35.2695 41.6874 34.7992 41.6874H34.0938V43.7065H34.3874L34.388 42.8155ZM34.388 42.5781V41.9843H34.7406C34.9755 41.9843 35.2111 41.9843 35.2111 42.2223C35.2111 42.5781 34.9755 42.5781 34.7406 42.5781H34.388Z" fill="#272728"/>
</g>
<defs>
<clipPath id="clip0_951_362">
<rect width="37.1" height="56" fill="white" transform="translate(0.0976562)"/>
</clipPath>
</defs>
</svg>
