<svg width="149" height="80" viewBox="0 0 149 80" fill="none" xmlns="http://www.w3.org/2000/svg">
<g style="mix-blend-mode:luminosity" opacity="0.5" clip-path="url(#clip0_951_538)">
<path d="M81.0577 10.5946C80.6719 9.43943 78.9379 8.18662 78.9379 8.18662C78.9379 8.18662 78.9379 7.89842 78.8879 7.75313C78.8403 7.60785 77.9733 7.07909 77.9733 7.07909C78.3115 6.7909 78.7927 7.03146 79.369 7.51257C79.9478 7.99369 80.3813 8.09135 81.0553 8.18662C83.0846 8.47719 86.7835 9.72763 87.3123 9.96818C87.841 10.2087 89.5749 11.7974 89.5749 13.386C89.5749 15.5534 87.5528 17.2374 87.5528 17.2374C87.5528 17.2374 85.6736 13.9648 81.9676 14.1101C78.2591 14.2554 76.7205 15.9393 76.7205 17.5756C76.7205 19.2119 77.2969 20.8505 77.2969 20.8505C72.581 18.6831 68.1985 21.4769 68.2962 27.9744C68.3914 34.4743 72.1951 36.9775 73.6885 38.1327C75.1795 39.2878 75.8059 39.2878 77.2993 39.2878C81.2483 39.2878 83.1251 37.0728 83.5086 36.6393C83.8944 36.2058 83.8468 35.5318 82.9798 35.5318C82.1128 35.5318 79.2237 35.87 76.3847 34.329C73.5456 32.7904 71.9069 30.43 71.5211 27.3004C71.2924 25.4331 72.581 22.9679 74.796 22.8226C77.0111 22.6773 79.9478 25.1806 80.7648 25.807C81.5841 26.4334 82.0652 25.7594 81.727 25.2782C78.6164 20.8338 77.3469 16.5157 82.0652 16.3728C86.7811 16.2275 86.6382 21.6675 86.6382 21.6675C90.0561 19.4524 91.6447 17.1445 91.9829 14.2554C92.3187 11.3663 90.9254 9.53708 88.3245 8.42956C85.7236 7.32203 81.153 6.5027 81.153 6.5027C80.1907 4.72113 76.6752 4.04709 72.5357 4.14474C68.3962 4.2424 65.1713 4.86642 62.8133 5.77864C60.453 6.69324 55.7085 9.02977 53.4124 10.9447C51.1164 12.8573 51.4213 14.4078 52.7241 16.1513C53.6554 17.3946 54.1675 17.5851 55.4894 17.5446C56.8089 17.5065 57.4496 16.3013 57.864 15.3963C58.2784 14.4912 60.0505 11.4377 62.5394 10.2326C65.0284 9.025 69.9301 6.83853 73.3598 6.80042C76.792 6.76231 77.0921 7.81982 77.0921 7.81982C74.8675 7.66977 74.3768 8.31047 74.3387 9.32749C74.3006 10.3445 75.1319 10.797 75.6963 10.8733C76.2632 10.9495 77.4684 10.5732 78.5259 10.4969C79.581 10.4207 80.8243 10.8352 80.8243 10.8352L81.0577 10.5946Z" fill="black"/>
<path d="M86.7817 29.2725C85.8099 30.2419 88.1012 31.9877 88.7038 32.5522C89.3063 33.1191 92.436 35.9462 92.7004 36.1725C92.9647 36.3988 93.5292 36.8894 93.453 37.0776C93.3768 37.2657 93.0767 37.2657 92.2478 37.1538C91.4166 37.0395 84.3665 35.6842 83.9902 36.5131C83.6115 37.3419 84.2903 38.097 87.7225 41.4886C88.0821 41.8435 88.0988 42.4699 87.4962 42.4318C86.8936 42.3937 80.7462 41.6029 80.4461 42.4318C80.146 43.2607 84.7071 45.7115 85.6122 46.3522C86.5173 46.9953 89.7589 48.9174 90.5877 49.3699C91.4166 49.8224 92.6623 50.163 93.0005 49.9344C93.3411 49.7081 91.9072 48.4648 90.9259 47.786C89.9447 47.1072 87.0794 45.147 86.665 44.8088C86.2505 44.4706 86.0624 43.9799 86.7031 43.8275C87.3438 43.6751 89.9065 44.13 90.9641 44.5063C92.0216 44.8826 94.9249 45.9402 95.4894 45.4876C96.0539 45.0351 95.6395 44.3182 93.7174 42.6986C91.7953 41.0766 90.8521 40.3978 90.3996 39.9833C89.947 39.5689 89.8708 39.3807 89.947 39.1902C90.0233 38.9997 90.5496 39.1521 91.1903 39.2664C91.831 39.3784 96.9209 40.5502 98.0141 40.8503C99.1073 41.1504 100.615 41.3409 100.991 40.7741C101.368 40.2072 101.332 39.3784 100.313 38.3995C99.2931 37.4182 94.0532 33.1572 93.6007 32.819C93.1481 32.4807 92.8457 31.5376 94.582 31.952C96.3159 32.3664 103.818 34.5529 105.176 34.9292C106.534 35.3055 109.475 35.9105 110.152 35.1555C110.83 34.4004 109.587 32.6665 106.381 30.5182C103.175 28.3698 102.197 27.841 101.668 27.5386C101.139 27.2384 101.253 26.5215 102.385 26.7097C103.516 26.9002 110.98 28.6342 113.355 28.9343C115.732 29.2368 119.086 30.2157 120.896 28.0673C122.706 25.9189 122.977 23.1632 121.282 20.3361C119.586 17.5089 115.108 13.2455 111.262 10.4588C107.415 7.66502 93.1934 0.12908 86.4434 0.0123728C82.0705 -0.0638441 80.9392 2.80143 81.2012 3.14203C81.4655 3.48024 82.2563 2.91576 82.635 2.7276C83.0113 2.53944 84.8215 1.97496 85.7265 2.01068C86.6316 2.04641 89.6469 2.16073 97.1495 6.08352C104.652 10.0039 111.931 15.9274 113.212 17.6208C114.155 18.8641 114.567 21.4674 114.155 22.5225C113.741 23.5777 113.288 24.8591 111.252 24.8995C109.216 24.9377 100.167 22.2605 94.8868 21.9962C93.796 21.9414 91.6214 22.1796 91.3809 23.3538C91.0403 25.0115 98.0165 29.1605 98.2047 29.3106C98.3928 29.4606 98.5452 29.8751 97.9045 29.8012C97.2638 29.725 91.6071 28.4817 89.5707 28.558C87.5367 28.6318 87.3485 28.7056 86.7817 29.2725ZM63.707 29.2725C64.6788 30.2419 62.3875 31.9877 61.7849 32.5522C60.4613 33.7684 59.129 34.9752 57.7883 36.1725C57.5263 36.3988 56.9594 36.8894 57.0357 37.0776C57.1119 37.2657 57.412 37.2657 58.2432 37.1538C59.0721 37.0395 66.1221 35.6842 66.5008 36.5131C66.8772 37.3419 66.1984 38.097 62.7686 41.4886C62.409 41.8435 62.3923 42.4699 62.9949 42.4318C63.5975 42.3937 69.7448 41.6029 70.0473 42.4318C70.3474 43.2607 65.7863 45.7115 64.8812 46.3522C63.9762 46.9953 60.7322 48.9174 59.9033 49.3699C59.0745 49.8224 57.8288 50.163 57.4906 49.9344C57.1524 49.7081 58.5838 48.4648 59.5651 47.786C60.5464 47.1072 63.4117 45.147 63.8261 44.8088C64.2405 44.4706 64.4287 43.9799 63.788 43.8275C63.1473 43.6751 60.5845 44.13 59.527 44.5063C58.4695 44.8826 55.5685 45.9402 55.004 45.4876C54.4371 45.0351 54.854 44.3182 56.7761 42.6986C58.6981 41.079 59.6413 40.3978 60.0939 39.9833C60.5464 39.5689 60.6226 39.3807 60.5464 39.1902C60.4702 38.9997 59.9438 39.1521 59.3031 39.2664C58.66 39.3784 53.5702 40.5502 52.4769 40.8503C51.3837 41.1504 49.876 41.3409 49.4997 40.7741C49.1234 40.2072 49.1591 39.3784 50.1785 38.3995C51.1956 37.4182 56.4355 33.1572 56.888 32.819C57.3405 32.4807 57.643 31.5376 55.9091 31.952C54.1728 32.3664 46.6702 34.5529 45.3149 34.9292C43.9573 35.3055 41.0158 35.9105 40.337 35.1555C39.6582 34.4004 40.9015 32.6665 44.1074 30.5182C47.3133 28.3698 48.2922 27.841 48.8209 27.5386C49.3497 27.2384 49.2354 26.5215 48.1064 26.7097C46.975 26.9002 39.5106 28.6342 37.1335 28.9343C34.7589 29.2368 31.403 30.2157 29.5928 28.0673C27.7827 25.9189 27.5183 23.1656 29.2165 20.3384C30.9124 17.5113 35.3925 13.2479 39.2367 10.4612C43.0761 7.66502 57.2953 0.12908 64.0476 0.0123728C68.4206 -0.0638441 69.5543 2.80143 69.2899 3.14203C69.0255 3.48024 68.2348 2.91576 67.8561 2.7276C67.4797 2.53944 65.6696 1.97496 64.7645 2.01068C63.8595 2.04641 60.8441 2.16073 53.3415 6.08352C45.8389 10.0039 38.5602 15.9274 37.2788 17.6208C36.3357 18.8641 35.9212 21.4674 36.3357 22.5225C36.7501 23.5777 37.2026 24.8591 39.239 24.8995C41.2731 24.9377 50.3238 22.2605 55.6018 21.9962C56.6927 21.9414 58.8673 22.1796 59.1078 23.3538C59.4484 25.0115 52.4722 29.1605 52.284 29.3106C52.0959 29.4606 51.9434 29.8751 52.5841 29.8012C53.2272 29.725 58.8815 28.4817 60.918 28.558C62.9544 28.6318 63.1425 28.7056 63.707 29.2725ZM61.1728 67.6643C60.725 68.0002 60.7036 68.7814 61.1133 69.6626C61.5253 70.5439 64.5907 80.7022 75.4539 79.9495C81.3917 79.5399 87.42 77.2391 89.3849 68.7242C89.5612 67.9597 89.0896 67.6072 88.5608 67.5476C88.0321 67.4881 87.2675 68.2526 86.915 68.7242C86.5625 69.1934 84.9763 72.1349 82.6255 73.3091C80.2746 74.4857 78.3335 75.2479 74.3964 75.2479C70.457 75.2479 65.8983 73.1472 63.2854 68.2526C62.8186 67.3714 61.4062 67.4881 61.1728 67.6643Z" fill="black"/>
<path d="M23.1815 52.0446H18.0749L13.4305 65.0896H18.537L23.1815 52.0446ZM126.377 52.0446H121.27L116.628 65.0896H121.735L126.377 52.0446ZM47.3874 55.4506L48.5974 52.0446H38.2891L33.647 65.0896H43.9553L45.1676 61.6861H39.8491L40.3731 60.2094H44.827L45.9965 56.9249H41.5449L42.0689 55.4506H47.3874ZM147.474 55.4506L148.684 52.0446H138.376L133.734 65.0896H144.045L145.257 61.6861H139.936L140.46 60.2094H144.914L146.083 56.9249H141.632L142.156 55.4506H147.474ZM13.4352 52.0446H4.95849L0.316406 65.0896H9.51244C11.9395 65.0896 13.5615 62.6388 13.8997 61.5836C14.1998 60.65 14.438 59.0733 12.5159 58.7184C13.1893 58.5193 13.8076 58.1672 14.3225 57.6896C14.8373 57.212 15.2347 56.6217 15.4836 55.965C16.4648 53.4785 14.9548 52.0446 13.4352 52.0446ZM37.9651 52.0446H32.3608L27.7997 56.2485L29.2955 52.0446H24.1866L19.5445 65.0896H24.651L26.3921 60.1998L27.6854 65.0896H33.1921L30.9818 58.6422L37.9651 52.0446ZM57.5481 52.0446H49.562L44.9199 65.0896H50.0264L51.7247 60.3142L53.2109 65.0896H58.1126L56.5049 59.7735C56.5049 59.7735 59.3058 59.4305 60.1252 56.3795C60.954 53.2903 59.787 52.0446 57.5481 52.0446ZM65.5175 51.5183H62.3116L60.954 55.9293H63.181L65.5175 51.5183ZM73.0201 56.2294L73.9252 52.4972C73.9252 52.4972 72.8963 51.8565 70.0405 51.8565C67.1848 51.8565 64.3933 54.0811 64.0837 56.077C63.8193 57.7752 65.215 58.9804 65.6295 59.4329C66.0439 59.8854 66.8894 60.8262 66.6846 61.2049C66.4202 61.6956 66.1177 61.9981 64.6863 61.6956C63.2548 61.3955 62.1235 60.7905 62.1235 60.7905L61.4066 64.7109C61.4066 64.7109 63.331 65.3897 65.7414 65.3897C69.1712 65.3897 71.472 63.9178 72.1508 61.5432C72.6176 59.9069 71.472 58.6398 70.605 57.8466C69.738 57.0559 69.5499 56.489 69.8142 56.0746C70.0786 55.6649 71.5506 55.1362 73.0201 56.2294ZM99.9032 52.0446L98.2002 56.8344H94.9301L96.6354 52.0446H91.8433L87.2012 65.0896H91.9933L93.7987 60.0141H97.0689L95.2611 65.0896H100.056L104.698 52.0446H99.9032ZM118.171 58.6279C116.79 62.3958 112.312 65.4493 108.17 65.4493C104.026 65.4493 101.785 62.3958 103.166 58.6279C104.548 54.8599 108.161 51.8065 113.17 51.8065C117.312 51.8065 119.553 54.8599 118.171 58.6279ZM87.2012 61.2716C87.2012 61.2716 85.3863 61.96 83.9906 61.96C81.766 61.96 81.1253 60.6024 81.6898 58.9446C82.2542 57.2845 83.8762 55.0981 86.8939 55.0981C87.5346 55.0981 88.1753 55.2862 89.0923 55.9555L90.3642 52.3805C89.4849 51.9852 88.5295 51.7885 87.5656 51.8041C82.5567 51.8041 78.9436 54.8575 77.5621 58.6255C76.1831 62.3935 78.6744 65.4469 82.5663 65.4469C83.7188 65.4335 84.8601 65.2191 85.9389 64.8133L87.2012 61.2716ZM134.315 61.2716C134.315 61.2716 132.503 61.96 131.107 61.96C128.882 61.96 128.242 60.6024 128.806 58.9446C129.371 57.2845 130.993 55.0981 134.01 55.0981C134.651 55.0981 135.292 55.2862 136.209 55.9555L137.48 52.3805C136.6 51.9851 135.644 51.7883 134.68 51.8041C129.673 51.8041 126.057 54.8575 124.678 58.6255C123.297 62.3935 125.791 65.4469 129.683 65.4469C130.804 65.4469 131.95 65.2159 133.055 64.8133L134.315 61.2716Z" fill="#666666"/>
<path d="M80.2228 10.1564C80.2228 10.1564 78.6008 9.74192 77.9601 9.78003C77.3194 9.81814 76.5263 9.93008 76.1143 9.85625C75.6998 9.78003 75.3211 9.6657 75.0948 9.78003C74.8686 9.89197 75.133 10.1564 75.4354 10.3445C75.5933 10.437 75.769 10.4948 75.951 10.5141C76.1329 10.5334 76.3168 10.5138 76.4906 10.4565C76.8312 10.3445 77.9982 10.1159 78.3007 10.1159C78.6032 10.1159 79.8084 10.2302 80.1109 10.3421C80.1085 10.3445 80.5229 10.3064 80.2228 10.1564ZM81.3923 7.77934C81.3923 7.77934 85.5389 8.91068 85.8033 9.02263C86.0677 9.13695 87.7278 9.58711 88.7448 10.5303L88.933 10.4183C88.933 10.4183 88.1398 9.36322 86.3321 8.75825C85.6723 8.53912 81.3541 7.66501 81.3541 7.66501L81.3923 7.77934ZM87.1204 20.7886C87.1204 20.7886 87.1585 20.3742 87.0823 20.1455C87.0823 20.1455 91.3052 17.3946 91.3433 13.4718L91.5315 13.5099C91.5339 13.5099 91.7601 17.6208 87.1204 20.7886ZM86.556 18.564L86.6703 18.4521C86.6703 18.4521 86.1034 15.4653 81.7686 15.5106C78.3388 15.5487 78.5627 18.4521 78.6008 19.319H78.7128C78.7128 19.319 78.4127 15.8131 81.7662 15.925C85.1197 16.037 85.6128 17.0921 86.556 18.564ZM69.5143 31.2327H69.3643C69.3643 31.2327 68.7974 28.6675 68.8355 27.2361C68.8737 25.8022 69.3643 21.8437 72.9822 20.8648L73.1323 20.9791C73.1323 20.9791 69.6239 22.12 69.25 27.3504C69.1738 28.4031 69.5143 31.2327 69.5143 31.2327ZM82.7856 36.0963C82.7856 36.0963 81.2779 36.2082 80.0704 36.1344C78.8628 36.0605 76.9407 35.4556 76.1881 34.8911L76.1119 35.0054C76.1119 35.0054 77.4695 36.2487 79.8441 36.5512C81.5304 36.7655 82.4069 36.6274 82.4069 36.6274C82.4069 36.6274 83.1262 36.2082 82.7856 36.0963ZM54.9236 16.8301V16.6038C56.0907 16.6419 56.9219 14.7937 57.6745 13.7004C58.4296 12.6072 60.0516 10.4207 64.4245 8.30809C68.7974 6.19784 74.1898 6.23357 74.1898 6.23357V6.45984C74.1898 6.45984 69.2881 6.53367 64.5388 8.72252C61.3663 10.1826 59.0726 12.1142 58.0151 14.0768C56.9576 16.0393 56.2407 17.3207 54.9236 16.8301ZM121.885 24.5971L121.697 24.5589C121.697 24.5589 120.904 27.3123 119.208 27.7267C117.512 28.1411 111.176 28.0292 107.256 27.1622L107.218 27.3504C107.218 27.3504 112.422 28.5937 116.23 28.5937C120.039 28.5937 121.056 27.8005 121.885 24.5971ZM82.2211 2.61565L82.1068 2.50132C82.1068 2.50132 82.9738 1.21755 85.4984 1.21755C88.0231 1.21755 91.3433 2.53705 97.3383 5.51665L97.1882 5.6286C97.1882 5.6286 89.195 1.63198 85.4627 1.70819C84.3235 1.73614 83.2093 2.04806 82.2211 2.61565ZM109.519 34.0599C109.519 34.0599 109.557 34.5743 108.954 34.5886C107.218 34.6267 102.507 33.6835 100.282 32.8928L100.244 33.0071C100.244 33.0071 103.486 34.2504 106.992 34.7791C109.519 35.1602 109.669 35.0054 109.821 34.741C109.971 34.4743 109.895 33.9098 109.519 34.0599ZM100.468 39.376C100.468 39.376 100.375 39.9357 100.13 40.0548C99.8748 40.1786 95.983 39.7904 92.9653 39.0735L93.0034 39.2617C93.0034 39.2617 99.6391 40.7336 100.244 40.5049C100.847 40.281 100.847 39.3379 100.468 39.376ZM94.7755 44.2777C94.7755 44.2777 94.9088 44.7778 94.3991 44.7302C93.9847 44.6921 91.0789 44.0133 89.9119 43.8251L89.8642 43.9109C89.8642 43.9109 91.7578 44.3158 92.9296 44.7302C93.5369 44.9469 94.8136 45.3328 95.0017 45.0708C95.1899 44.8064 95.1161 44.2396 94.7755 44.2777ZM92.0174 48.9007C92.0174 48.9007 92.1293 49.2103 91.9745 49.2818C91.8197 49.3532 90.2215 48.8292 87.9302 47.3311L87.8731 47.3883C87.8731 47.3883 90.4025 49.0269 91.1956 49.3389C91.9888 49.6486 92.3842 49.72 92.4818 49.5914C92.5842 49.4676 92.3294 49.1555 92.0174 48.9007ZM57.9389 49.67C57.9389 49.67 63.7838 46.3141 65.1033 45.409C66.4228 44.5039 69.0356 42.8653 69.3262 42.4318C69.4762 42.2055 69.5906 42.4699 69.4762 42.6581C69.3619 42.8462 67.2898 44.4682 64.8008 45.9759C62.3119 47.4835 58.8821 49.52 58.5034 49.6724C58.1271 49.8201 57.8627 49.8582 57.9389 49.67ZM66.0822 36.6989C66.0822 36.6989 66.0822 36.999 65.7821 37.3396C65.4796 37.6801 62.9526 40.393 62.6143 40.7336C62.2761 41.0742 61.7855 41.7506 62.2761 42.2031C62.2761 42.2031 62.2761 41.4505 62.6143 41.1099C62.9549 40.7693 65.4034 38.0922 65.744 37.754C66.0822 37.4158 66.499 36.9632 66.0822 36.6989ZM56.6194 37.1895C56.6194 37.1895 56.2431 36.7751 56.5813 36.3225C56.9219 35.8724 62.8406 30.592 62.9907 30.2895C63.1407 29.9894 63.1407 29.7631 63.1407 29.6107C63.1407 29.6107 63.367 29.7607 63.2908 30.1395C63.2146 30.5158 62.8382 30.7801 62.6882 30.9302C62.5381 31.0802 57.2601 36.0201 57.0315 36.2082C56.8076 36.3988 56.5813 36.887 56.6194 37.1895ZM51.6415 29.6845C51.6415 29.6845 51.4152 29.0819 52.1321 28.4031C52.8491 27.7243 55.338 26.2548 56.0168 25.726C56.6956 25.1973 58.0532 24.4827 58.5796 23.5395C58.5796 23.5395 58.8821 24.0302 57.8627 24.7471C56.8457 25.464 53.1134 28.0268 52.699 28.2912C52.2846 28.5556 51.7916 29.0843 51.6415 29.6845ZM36.2957 18.414C36.2957 18.414 38.2202 15.1724 40.9712 13.0216C43.9674 10.6827 48.6619 7.77934 51.077 6.386C53.4898 4.99028 60.3112 1.2104 64.4983 1.14371C66.9111 1.1056 68.0424 1.86063 68.2306 2.01068C68.4187 2.16073 68.2306 2.31316 68.0043 2.19884C67.778 2.0869 65.8559 1.40571 64.4602 1.52003C63.0645 1.63436 59.0322 2.31316 51.2247 6.6861C49.8933 7.4316 42.8932 12.0022 41.3094 13.286C39.7279 14.5674 38.4822 15.4344 36.2957 18.414ZM88.6233 69.4864L88.1517 69.7817C88.1517 69.7817 86.1534 76.3054 79.9227 78.5395L80.1585 78.6562C80.1585 78.6562 86.5655 76.6579 88.6233 69.4864ZM9.75322 55.0981C10.5463 55.0981 10.9536 55.4982 10.8083 56.077C10.6202 56.832 9.86516 57.0964 9.41262 57.0964H8.26699L8.97676 55.0981H9.75322ZM9.48884 61.0549C9.38585 61.3734 9.18431 61.6509 8.91332 61.8474C8.64233 62.0439 8.31591 62.1492 7.98118 62.1481H6.46875L7.24759 59.9617H8.7362C8.86646 59.9626 8.99458 59.995 9.10966 60.056C9.22475 60.117 9.32341 60.2049 9.39728 60.3122C9.47115 60.4195 9.51805 60.5431 9.53398 60.6724C9.54992 60.8016 9.53444 60.9329 9.48884 61.0549ZM55.6 56.4938C55.45 57.1345 54.7331 57.7776 53.7899 57.7776H52.6276L53.4993 55.3267H54.6187C55.4119 55.3243 55.7525 55.8531 55.6 56.4938ZM111.708 55.4196C109.659 55.4196 108.173 56.8558 107.599 58.6279C107.027 60.3999 107.937 61.8361 109.633 61.8361C111.329 61.8361 113.168 60.3999 113.742 58.6279C114.313 56.8558 113.401 55.4196 111.708 55.4196Z" fill="white"/>
</g>
<defs>
<clipPath id="clip0_951_538">
<rect width="148.368" height="80" fill="white" transform="translate(0.316406)"/>
</clipPath>
</defs>
</svg>
